SplineFontDB: 3.0
FontName: AnkaCoder-C87-r
FullName: Anka/Coder Condensed Regular
FamilyName: Anka/Coder Condensed
Weight: Book
Copyright: Copyright (c) 2010, Andrey Makarov (makarov@bmstu.ru, mka-at-mailru@mail.ru),\nwith Reserved Font Name Anka/Coder Condensed.\n---------------------------------\nThe Anka/* are members of Anna Shugol name font family; March 2010
Version: 001.100
ItalicAngle: 0
UnderlinePosition: -292
UnderlineWidth: 150
Ascent: 1638
Descent: 410
LayerCount: 2
Layer: 0 0 "Back"  1
Layer: 1 0 "Fore"  0
XUID: [1021 77 1780377344 4639347]
UseXUID: 1
BaseHoriz: 0
FSType: 8
OS2Version: 1
OS2_WeightWidthSlopeOnly: 0
OS2_UseTypoMetrics: 1
CreationTime: 1260467214
ModificationTime: 1351161070
PfmFamily: 49
TTFWeight: 400
TTFWidth: 4
LineGap: 0
VLineGap: 0
Panose: 2 11 5 9 2 5 2 2 2 4
OS2TypoAscent: 0
OS2TypoAOffset: 1
OS2TypoDescent: 0
OS2TypoDOffset: 1
OS2TypoLinegap: 0
OS2WinAscent: 0
OS2WinAOffset: 1
OS2WinDescent: 0
OS2WinDOffset: 1
HheadAscent: 0
HheadAOffset: 1
HheadDescent: 0
HheadDOffset: 1
OS2SubXSize: 553
OS2SubYSize: 1229
OS2SubXOff: 0
OS2SubYOff: 283
OS2SupXSize: 553
OS2SupYSize: 1229
OS2SupXOff: 0
OS2SupYOff: 977
OS2StrikeYSize: 102
OS2StrikeYPos: 530
OS2FamilyClass: 1285
OS2Vendor: 'AVM1'
OS2CodePages: 40000097.cfd60000
OS2UnicodeRanges: 800002ef.000079eb.00000000.00000000
DEI: 91125
ShortTable: maxp 16
  0
  0
  0
  0
  0
  0
  0
  2
  1
  0
  9
  0
  256
  0
  0
  0
EndShort
TtTable: prep
PUSHW_1
 511
SCANCTRL
SVTCA[y-axis]
MPPEM
PUSHB_1
 8
LT
IF
PUSHB_2
 1
 1
INSTCTRL
EIF
PUSHB_2
 70
 6
CALL
IF
POP
PUSHB_1
 16
EIF
MPPEM
PUSHB_1
 20
GT
IF
POP
PUSHB_1
 128
EIF
SCVTCI
PUSHB_1
 6
CALL
NOT
IF
EIF
EndTTInstrs
TtTable: fpgm
PUSHB_1
 0
FDEF
PUSHB_1
 0
SZP0
MPPEM
PUSHB_1
 42
LT
IF
PUSHB_1
 74
SROUND
EIF
PUSHB_1
 0
SWAP
MIAP[rnd]
RTG
PUSHB_1
 6
CALL
IF
RTDG
EIF
MPPEM
PUSHB_1
 42
LT
IF
RDTG
EIF
DUP
MDRP[rp0,rnd,grey]
PUSHB_1
 1
SZP0
MDAP[no-rnd]
RTG
ENDF
PUSHB_1
 1
FDEF
DUP
DUP
MDRP[rp0,min,white]
MDAP[rnd]
PUSHB_1
 7
CALL
NOT
IF
DUP
DUP
GC[orig]

StartChar: exclam
Encoding: 33 33 1
Width: 1075
VWidth: 1708
GlyphClass: 2
Flags: W
HStem: -116 354<414.607 660.243>
VStem: 351 373<-53.3516 173.342> 427 224<842.216 1399.73> 455 168<424 862.272>
LayerCount: 2
Fore
SplineSet
724 61 m 0xc0
 724 -42 636 -116 537 -116 c 0
 441 -116 351 -41 351 61 c 0
 351 154 432 238 537 238 c 0
 634 238 724 166 724 61 c 0xc0
534 1429 m 0
 593 1429 651 1377 651 1280 c 1xa0
 623 424 l 1
 455 424 l 1x90
 427 1281 l 1xa0
 427 1377 481 1429 534 1429 c 0
EndSplineSet
Validated: 3073
EndChar

StartChar: quotedbl
Encoding: 34 34 2
Width: 1075
VWidth: 1708
GlyphClass: 2
Flags: W
HStem: 953 512<206 351 678 821>
LayerCount: 2
Fore
SplineSet
281 1001 m 2
 262 968 232 953 206 953 c 3
 171 953 141 980 141 1027 c 3
 141 1036 143 1048 146 1058 c 2
 224 1377 l 2
 237 1429 297 1465 351 1465 c 3
 423 1465 463 1401 463 1342 c 3
 463 1321 458 1300 448 1283 c 2
 281 1001 l 2
751 1001 m 2
 732 968 704 953 678 953 c 3
 643 953 611 980 611 1027 c 3
 611 1036 613 1048 616 1058 c 2
 694 1377 l 2
 707 1429 767 1465 821 1465 c 3
 893 1465 933 1401 933 1342 c 3
 933 1321 928 1300 918 1283 c 2
 751 1001 l 2
EndSplineSet
Validated: 3073
EndChar

StartChar: numbersign
Encoding: 35 35 3
Width: 1075
VWidth: 1708
GlyphClass: 2
Flags: W
HStem: 0 21G<143 298.108 571 726.05> 341 150<52 196 371 624 798 945> 898 150<137 282 457 709 884 1030>
LayerCount: 2
Fore
SplineSet
371 491 m 1
 647 491 l 1
 709 898 l 1
 434 898 l 1
 371 491 l 1
295 0 m 1
 143 0 l 1
 196 341 l 1
 29 341 l 1
 52 491 l 1
 219 491 l 1
 282 898 l 1
 114 898 l 1
 137 1048 l 1
 305 1048 l 1
 352 1350 l 1
 503 1350 l 1
 457 1048 l 1
 732 1048 l 1
 779 1350 l 1
 930 1350 l 1
 884 1048 l 1
 1053 1048 l 1
 1030 898 l 1
 861 898 l 1
 798 491 l 1
 968 491 l 1
 945 341 l 1
 775 341 l 1
 723 0 l 1
 571 0 l 1
 624 341 l 1
 348 341 l 1
 295 0 l 1
EndSplineSet
Validated: 3073
EndChar

StartChar: dollar
Encoding: 36 36 4
Width: 1075
VWidth: 2334
GlyphClass: 2
Flags: W
HStem: -22 151<332.583 463 613 708.088> 1268 152<366.12 463 613 732.592>
VStem: 91 150<216.126 325> 147 150<942.084 1198.73> 463 150<-93 -17.0959 132 643 873 1268 1417.26 1494> 809 150<226.537 524.668 1063 1196.36>
LayerCount: 2
Fore
SplineSet
613 -93 m 1xdc
 463 -93 l 1
 463 -22 l 1
 245 0 91 134 91 325 c 1
 241 325 l 1xec
 241 206 346 145 463 129 c 1
 463 709 l 1
 345 761 l 2
 226 814 147 924 147 1033 c 2
 147 1063 l 2
 147 1264 276 1394 463 1420 c 1
 463 1494 l 1
 613 1494 l 1
 613 1422 l 1
 938 1391 954 1161 954 1063 c 1
 804 1063 l 1
 804 1131 786 1251 613 1271 c 1
 613 807 l 1
 710 764 l 2
 881 689 959 533 959 367 c 2
 959 337 l 2
 959 163 806 7 613 -22 c 1
 613 -93 l 1xdc
613 643 m 1
 613 132 l 1
 725 158 809 247 809 337 c 2
 809 367 l 2
 809 474 765 572 648 628 c 2
 613 643 l 1
463 873 m 1
 463 1268 l 1
 377 1250 297 1195 297 1063 c 2
 297 1033 l 2xdc
 297 995 327 933 405 899 c 2
 463 873 l 1
EndSplineSet
Validated: 3073
EndChar

StartChar: percent
Encoding: 37 37 5
Width: 1075
VWidth: 1708
GlyphClass: 2
Flags: W
HStem: -6 150<707.175 847.359> 370 150<708.651 845.978> 882 150<226.175 366.359> 1258 150<227.651 364.978>
VStem: 61 150<1042.8 1244.5> 381 150<1043.77 1247.11> 542 150<154.798 356.497> 862 150<155.774 359.106>
LayerCount: 2
Fore
SplineSet
1012 257 m 27
 1012 73 904 -6 777 -6 c 3
 634 -6 542 82 542 257 c 3
 542 437 655 520 777 520 c 3
 931 520 1012 400 1012 257 c 27
777 370 m 3
 733 370 692 334 692 257 c 3
 692 231 699 144 777 144 c 3
 825 144 862 176 862 257 c 3
 862 350 812 370 777 370 c 3
905 1367 m 1
 1029 1283 l 1
 171 34 l 1
 47 118 l 1
 905 1367 l 1
531 1145 m 27
 531 961 423 882 296 882 c 3
 153 882 61 970 61 1145 c 3
 61 1325 174 1408 296 1408 c 3
 450 1408 531 1288 531 1145 c 27
296 1258 m 3
 252 1258 211 1222 211 1145 c 3
 211 1119 218 1032 296 1032 c 3
 344 1032 381 1064 381 1145 c 3
 381 1238 331 1258 296 1258 c 3
EndSplineSet
Validated: 3073
EndChar

StartChar: ampersand
Encoding: 38 38 6
Width: 1075
VWidth: 2334
GlyphClass: 2
Flags: W
HStem: -25 150<335.896 671.655> 1275 150<414.317 672.812>
VStem: 91 150<210.156 488.288> 241 150<999.452 1249.74> 700 150<1035.67 1246.05>
LayerCount: 2
Fore
SplineSet
496 896 m 1
 614 997 l 2
 634 1013 700 1072 700 1098 c 2
 700 1157 l 2
 700 1251 616 1275 550 1275 c 2
 528 1275 l 2
 405 1275 391 1205 391 1162 c 2
 391 1140 l 2
 391 1090 424 1005 496 896 c 1
814 94 m 1
 742 17 641 -25 522 -25 c 2
 501 -25 l 2
 283 -25 91 107 91 337 c 2
 91 367 l 2
 91 503 170 595 254 689 c 2
 257 693 l 1
 381 798 l 1
 268 964 241 1069 241 1140 c 2
 241 1162 l 2
 241 1316 349 1425 528 1425 c 2
 550 1425 l 2
 730 1425 850 1313 850 1157 c 2
 850 1098 l 2
 850 1059 814 970 710 881 c 2
 578 769 l 1
 805 396 l 1
 898 619 l 1
 1036 561 l 1
 902 237 l 1
 1017 49 l 1
 889 -29 l 1
 814 94 l 1
731 229 m 1
 462 670 l 1
 363 585 l 1
 279 491 241 438 241 367 c 2
 241 337 l 2
 241 201 357 125 501 125 c 2
 522 125 l 2
 634 125 695 174 731 229 c 1
EndSplineSet
Validated: 3073
EndChar

StartChar: quotesingle
Encoding: 39 39 7
Width: 1075
VWidth: 1708
GlyphClass: 2
Flags: W
HStem: 953 512<442 587>
VStem: 377 322
LayerCount: 2
Fore
SplineSet
517 1001 m 2
 498 968 468 953 442 953 c 3
 407 953 377 980 377 1027 c 3
 377 1036 377 1048 379 1058 c 2
 460 1377 l 2
 473 1429 533 1465 587 1465 c 3
 659 1465 699 1401 699 1342 c 3
 699 1321 694 1300 684 1283 c 2
 517 1001 l 2
EndSplineSet
Validated: 3073
EndChar

StartChar: parenleft
Encoding: 40 40 8
Width: 1075
VWidth: 1708
GlyphClass: 2
Flags: W
VStem: 335 150<467.524 968.038>
LayerCount: 2
Fore
SplineSet
485 722 m 3
 485 407 681 134 903 -18 c 1
 817 -142 l 1
 571 28 335 343 335 722 c 3
 335 1088 571 1408 824 1546 c 1
 896 1414 l 1
 681 1296 485 1022 485 722 c 3
EndSplineSet
Validated: 3073
EndChar

StartChar: parenright
Encoding: 41 41 9
Width: 1075
VWidth: 1708
GlyphClass: 2
Flags: W
VStem: 591 150<467.524 968.038>
LayerCount: 2
Fore
SplineSet
741 722 m 3
 741 343 505 28 257 -142 c 1
 173 -18 l 1
 396 134 591 407 591 722 c 3
 591 1022 395 1296 179 1414 c 1
 251 1546 l 1
 505 1408 741 1088 741 722 c 3
EndSplineSet
Validated: 3073
EndChar

StartChar: asterisk
Encoding: 42 42 10
Width: 1075
VWidth: 1708
GlyphClass: 2
Flags: W
HStem: 641 147<122.998 212.621 863.379 953.002> 1020 20G<517.5 558.5>
VStem: 463 150<703 1033.31>
LayerCount: 2
Fore
SplineSet
813 349 m 2
 823 336 827 321 827 305 c 0
 827 282 817 258 797 244 c 0
 784 235 769 230 754 230 c 0
 730 230 707 241 692 261 c 2
 538 472 l 1
 384 261 l 2
 369 241 346 230 322 230 c 0
 307 230 292 235 279 244 c 0
 259 258 249 282 249 305 c 0
 249 321 253 336 263 349 c 2
 417 561 l 1
 168 641 l 2
 137 651 116 681 116 713 c 0
 116 721 117 728 120 736 c 0
 130 767 160 788 191 788 c 0
 199 788 206 787 214 784 c 2
 463 703 l 1
 463 965 l 2
 463 1006 497 1040 538 1040 c 0
 579 1040 613 1006 613 965 c 2
 613 703 l 1
 862 784 l 2
 870 787 877 788 885 788 c 0
 916 788 946 767 956 736 c 0
 959 728 960 721 960 713 c 0
 960 681 939 651 908 641 c 2
 659 561 l 1
 813 349 l 2
EndSplineSet
Validated: 3073
EndChar

StartChar: plus
Encoding: 43 43 11
Width: 1075
VWidth: 1708
GlyphClass: 2
Flags: W
HStem: 525 150<127 463 613 949>
VStem: 463 150<157 525 675 1011>
LayerCount: 2
Fore
SplineSet
949 675 m 1
 949 525 l 1
 613 525 l 1
 613 157 l 1
 463 157 l 1
 463 525 l 1
 127 525 l 1
 127 675 l 1
 463 675 l 1
 463 1011 l 1
 613 1011 l 1
 613 675 l 1
 949 675 l 1
EndSplineSet
Validated: 3073
EndChar

StartChar: comma
Encoding: 44 44 12
Width: 1075
VWidth: 1947
GlyphClass: 2
Flags: W
HStem: -315 55<382.09 416.775>
VStem: 515 169<-155.424 104.5>
LayerCount: 2
Fore
SplineSet
386 -315 m 1
 371 -260 l 1
 423 -241 515 -182 515 -116 c 3
 515 -94 506 -72 478 -64 c 0
 431 -50 391 17 391 65 c 3
 391 141 450 210 537 210 c 3
 622 210 684 144 684 65 c 3
 684 -145 612 -270 386 -315 c 1
EndSplineSet
Validated: 3073
EndChar

StartChar: hyphen
Encoding: 45 45 13
Width: 1075
VWidth: 1708
GlyphClass: 2
Flags: W
HStem: 525 150<127 949>
LayerCount: 2
Fore
SplineSet
949 675 m 1
 949 525 l 1
 127 525 l 1
 127 675 l 1
 949 675 l 1
EndSplineSet
Validated: 3073
EndChar

StartChar: period
Encoding: 46 46 14
Width: 1075
VWidth: 1708
GlyphClass: 2
Flags: W
HStem: -86 46<548 555 558 564 567 572 574 579 583 586.397> -26 6<551 556> -18 2<552 554> -14 2<551 554>
VStem: 526 4<-20 -14 -12 -10> 536 2<-20 -12> 540 2<-20 -12> 544 2<-20 -12> 548 2<-18 -16> 550 8<-32 -28> 552 2<-18 -16> 556 2<-38 -34 -28 -26> 564 2<-38 -32> 568 2<-38 -30> 572 2<-38 -32> 576 2<-38 -32> 580 2<-38 -32> 584 2<-38 -32> 588 2<-38 -32>
LayerCount: 2
Fore
SplineSet
594 -38 m 25xff8fe0
 592 -38 l 25
 592 -26 l 25
 590 -26 l 25
 590 -40 l 25
 594 -40 l 25
 594 -38 l 25xff8fe0
586 -38 m 9
 584 -38 l 17
 584 -32 l 9
 586 -32 l 1
 586 -38 l 9
524 -20 m 9
 526 -20 l 25
 526 -14 l 25
 530 -14 l 25
 530 -20 l 25
 532 -20 l 25
 532 -6 l 25
 526 -6 l 17
 524 -10 l 1
 524 -20 l 9
527 -8 m 9
 530 -8 l 25
 530 -12 l 25
 526 -12 l 17
 526 -10 l 1
 527 -8 l 9
538 -12 m 25
 538 -20 l 25
 540 -20 l 17
 540 -12 l 1
 539 -10 l 9
 534 -10 l 17
 534 -20 l 9
 536 -20 l 17
 536 -12 l 9
 538 -12 l 25
546 -12 m 25
 546 -20 l 25
 548 -20 l 17
 548 -12 l 1
 547 -10 l 9
 542 -10 l 17
 542 -20 l 9
 544 -20 l 25
 544 -12 l 25
 546 -12 l 25
552 -16 m 25xffafe0
 554 -16 l 25
 554 -18 l 25
 552 -18 l 25
 552 -16 l 25xffafe0
551 -20 m 9
 556 -20 l 17
 556 -12 l 1xffbfe0
 555 -10 l 9
 550 -10 l 25
 550 -12 l 25
 554 -12 l 25
 554 -14 l 25
 551 -14 l 17
 550 -16 l 1
 550 -18 l 1
 551 -20 l 9
562 -32 m 25
 562 -40 l 25
 564 -40 l 17
 564 -32 l 1
 563 -30 l 1
 560 -30 l 1
 560 -26 l 1
 558 -26 l 9
 558 -40 l 25
 560 -40 l 25
 560 -32 l 25
 562 -32 l 25
555 -32 m 1
 550 -32 l 25
 550 -28 l 25
 556 -28 l 1
 556 -26 l 9
 549 -26 l 17
 548 -28 l 1
 548 -32 l 1
 549 -34 l 9
 554 -34 l 17
 554 -38 l 1
 548 -38 l 1
 548 -40 l 9
 555 -40 l 17
 556 -38 l 1
 556 -34 l 1
 555 -32 l 1
570 -38 m 25
 568 -38 l 25
 568 -30 l 25
 566 -30 l 17
 566 -38 l 1
 567 -40 l 9
 572 -40 l 25
 572 -30 l 25
 570 -30 l 25
 570 -38 l 25
576 -38 m 25
 576 -32 l 25
 578 -32 l 25
 578 -38 l 25
 576 -38 l 25
575 -30 m 17
 574 -32 l 1
 574 -38 l 1
 575 -40 l 9
 578 -40 l 25
 578 -42 l 25
 574 -42 l 25
 574 -44 l 25
 579 -44 l 17
 580 -42 l 1
 580 -30 l 9
 575 -30 l 17
583 -30 m 17
 582 -32 l 1
 582 -38 l 1
 583 -40 l 9
 587 -40 l 17
 588 -38 l 1
 588 -32 l 1
 587 -30 l 9
 583 -30 l 17
684 59 m 0
 684 -19 624 -86 537 -86 c 0
 454 -86 391 -20 391 59 c 0
 391 136 450 204 537 204 c 0
 622 204 684 138 684 59 c 0
EndSplineSet
Validated: 3073
EndChar

StartChar: slash
Encoding: 47 47 15
Width: 1075
VWidth: 1708
GlyphClass: 2
Flags: W
LayerCount: 2
Fore
SplineSet
791 1455 m 1
 929 1395 l 1
 284 -55 l 1
 146 5 l 1
 791 1455 l 1
EndSplineSet
Validated: 3073
EndChar

StartChar: zero
Encoding: 48 48 16
Width: 1075
VWidth: 1708
GlyphClass: 2
Flags: W
HStem: -25 150<414.432 671.177> -3 21G<82.9091 107.402> 1275 150<403.691 673.319>
VStem: 129 150<503.822 1107.42> 797 150<312.111 904.967>
LayerCount: 2
Fore
SplineSet
791 907 m 1xb8
 330 306 l 1
 373 182 442 125 538 125 c 3
 705 125 797 250 797 732 c 3
 797 797 795 855 791 907 c 1xb8
947 732 m 3
 947 336 892 -25 538 -25 c 3xb8
 383 -25 286 56 226 171 c 1
 92 -3 l 1x78
 22 151 l 1
 166 339 l 1
 135 471 129 616 129 732 c 3
 129 1060 181 1425 538 1425 c 3
 699 1425 798 1352 858 1241 c 1
 991 1414 l 1
 1057 1253 l 1
 918 1072 l 1
 941 966 947 847 947 732 c 3
538 1275 m 3
 368 1275 279 1145 279 732 c 3
 279 645 283 568 290 501 c 1
 754 1105 l 1
 712 1229 640 1275 538 1275 c 3
EndSplineSet
Validated: 3073
EndChar

StartChar: one
Encoding: 49 49 17
Width: 1075
VWidth: 1708
GlyphClass: 2
Flags: W
HStem: -0 21G<577 727> 1405 20G<622 727>
VStem: 577 150<0 1127>
LayerCount: 2
Fore
SplineSet
727 1425 m 1
 727 0 l 1
 577 -0 l 1
 577 1127 l 1
 366 1007 l 1
 297 1049 l 1
 622 1422 l 1
 626 1425 l 1
 727 1425 l 1
EndSplineSet
Validated: 3073
EndChar

StartChar: two
Encoding: 50 50 18
Width: 1075
VWidth: 2334
GlyphClass: 2
Flags: W
HStem: 0 150<325 967> 1275 150<354.748 715.517>
VStem: 785 150<957.143 1201.16>
LayerCount: 2
Fore
SplineSet
528 1425 m 2
 548 1425 l 2
 807 1425 935 1275 935 1064 c 2
 935 1024 l 2
 935 988 919 938 812 806 c 2
 433 340 l 2
 378 273 349 208 325 150 c 1
 967 150 l 1
 967 0 l 1
 167 0 l 1
 167 161 l 1
 211 271 262 368 311 428 c 2
 698 902 l 2
 756 973 785 1020 785 1029 c 2
 785 1064 l 2
 785 1186 729 1275 548 1275 c 2
 528 1275 l 2
 372 1275 332 1225 295 1148 c 1
 161 1214 l 1
 224 1343 314 1425 528 1425 c 2
EndSplineSet
Validated: 3073
EndChar

StartChar: three
Encoding: 51 51 19
Width: 1075
VWidth: 2334
GlyphClass: 2
Flags: W
HStem: -25 150<367.321 687.987> 734 150<354 672.172> 1275 150<369.129 661.63>
VStem: 140 150<195.146 305> 733 150<943.973 1205.2> 785 150<221.579 616.223>
LayerCount: 2
Fore
SplineSet
550 884 m 2xf4
 657 884 733 976 733 1022 c 2
 733 1063 l 2
 733 1178 669 1275 548 1275 c 2
 528 1275 l 2
 426 1275 337 1232 305 1160 c 1
 167 1220 l 1
 231 1364 388 1425 528 1425 c 2
 548 1425 l 2
 749 1425 883 1266 883 1063 c 2
 883 1022 l 2xf8
 883 978 870 897 769 815 c 1
 873 738 935 599 935 417 c 2
 935 397 l 2
 935 222 858 -25 548 -25 c 2
 528 -25 l 2
 331 -25 140 90 140 305 c 1
 290 305 l 1
 290 160 446 125 528 125 c 2
 548 125 l 2
 704 125 785 222 785 397 c 2
 785 417 l 2
 785 557 729 734 550 734 c 2
 354 734 l 1
 354 884 l 1
 550 884 l 2xf4
EndSplineSet
Validated: 3073
EndChar

StartChar: four
Encoding: 52 52 20
Width: 1075
VWidth: 1708
GlyphClass: 2
Flags: W
HStem: -0 21G<707 857> 352 150<332 707 857 965> 1405 20G<726.337 857>
VStem: 707 150<0 352 502 1093>
LayerCount: 2
Fore
SplineSet
707 1093 m 1
 332 502 l 1
 707 502 l 1
 707 1093 l 1
109 430 m 1
 739 1425 l 1
 857 1425 l 1
 857 502 l 1
 965 502 l 1
 965 352 l 1
 857 352 l 1
 857 0 l 1
 707 -0 l 1
 707 352 l 1
 109 352 l 1
 109 430 l 1
EndSplineSet
Validated: 3073
EndChar

StartChar: five
Encoding: 53 53 21
Width: 1075
VWidth: 2334
GlyphClass: 2
Flags: W
HStem: -25 150<334.642 685.391> 804 150<413.977 679.19> 1250 150<386 900>
VStem: 785 150<231.18 692.546>
LayerCount: 2
Fore
SplineSet
528 954 m 2
 548 954 l 2
 780 954 935 776 935 487 c 2
 935 427 l 2
 935 75 694 -25 548 -25 c 2
 470 -25 l 2
 338 -25 175 57 111 203 c 1
 242 280 l 1
 275 178 394 125 470 125 c 2
 548 125 l 2
 690 125 785 225 785 427 c 2
 785 487 l 2
 785 628 738 804 548 804 c 2
 528 804 l 2
 466 804 364 751 316 635 c 1
 175 730 l 1
 254 1400 l 1
 900 1400 l 1
 900 1250 l 1
 386 1250 l 1
 345 896 l 1
 405 935 470 954 528 954 c 2
EndSplineSet
Validated: 3073
EndChar

StartChar: six
Encoding: 54 54 22
Width: 1075
VWidth: 2334
GlyphClass: 2
Flags: W
HStem: -25 150<388.242 686.929> 804 150<393.867 690.179> 1275 150<397.723 741.116>
VStem: 140 150<238.855 692.16 872 1150.58> 785 150<233.951 703.279>
LayerCount: 2
Fore
SplineSet
528 954 m 2
 548 954 l 2
 703 954 935 884 935 487 c 2
 935 427 l 2
 935 161 800 -25 548 -25 c 2
 528 -25 l 2
 316 -25 140 123 140 427 c 2
 140 973 l 2
 140 1203 272 1425 528 1425 c 2
 548 1425 l 2
 703 1425 837 1393 900 1265 c 1
 766 1199 l 1
 741 1249 685 1275 548 1275 c 2
 528 1275 l 2
 369 1275 292 1133 290 973 c 2
 290 872 l 1
 353 925 434 954 528 954 c 2
290 487 m 2
 290 427 l 2
 290 215 392 125 528 125 c 2
 548 125 l 2
 738 125 785 280 785 427 c 2
 785 487 l 2
 785 729 690 804 548 804 c 2
 528 804 l 2
 338 804 290 627 290 487 c 2
EndSplineSet
Validated: 3073
EndChar

StartChar: seven
Encoding: 55 55 23
Width: 1075
VWidth: 1708
GlyphClass: 2
Flags: W
HStem: 0 21G<236 440> 1250 150<109 760>
VStem: 236 154<0 161.582>
LayerCount: 2
Fore
SplineSet
236 0 m 1
 330 435 524 835 760 1250 c 1
 109 1250 l 1
 109 1400 l 1
 967 1400 l 1
 967 1308 l 1
 955 1287 l 2
 699 845 490 436 390 0 c 1
 339 0 287 0 236 0 c 1
EndSplineSet
Validated: 3073
EndChar

StartChar: eight
Encoding: 56 56 24
Width: 1075
VWidth: 2334
GlyphClass: 2
Flags: W
HStem: -25 150<382.963 713.506> 734 150<403.667 681.624> 1275 150<400.107 680.309>
VStem: 140 150<216.417 621.798> 193 150<940.202 1215.25> 733 150<933.642 1223.58> 785 150<193.925 633.458>
LayerCount: 2
Fore
SplineSet
550 734 m 2xf2
 526 734 l 2
 337 733 290 557 290 417 c 2
 290 365 l 2
 290 189 415 125 528 125 c 2
 548 125 l 2
 720 125 785 193 785 365 c 2
 785 417 l 2
 785 658 691 733 550 734 c 2xf2
306 814 m 1
 253 857 193 942 193 1024 c 2
 193 1096 l 2
 193 1293 329 1425 528 1425 c 2
 548 1425 l 2
 756 1425 883 1315 883 1095 c 2
 883 1023 l 2xec
 883 945 846 869 781 814 c 1
 867 750 935 631 935 417 c 2
 935 365 l 2
 935 125 819 -25 548 -25 c 2
 528 -25 l 2
 307 -25 140 111 140 365 c 2
 140 417 l 2
 140 599 202 737 306 814 c 1
526 884 m 2
 550 884 l 2
 668 884 733 959 733 1023 c 2
 733 1095 l 2
 733 1206 675 1275 548 1275 c 2
 528 1275 l 2
 417 1275 343 1203 343 1096 c 2
 343 1024 l 2
 343 1000 387 884 526 884 c 2
EndSplineSet
Validated: 3073
EndChar

StartChar: nine
Encoding: 57 57 25
Width: 1075
VWidth: 2334
GlyphClass: 2
Flags: W
HStem: -25 150<334.922 692> 478 150<402.6 702.093> 1275 150<376.781 687.54>
VStem: 140 150<753.12 1184.95> 785 150<224.255 546 717.424 1174.74>
LayerCount: 2
Fore
SplineSet
522 478 m 2
 399 478 140 566 140 930 c 2
 140 1005 l 2
 140 1276 292 1425 528 1425 c 2
 548 1425 l 2
 756 1425 935 1277 935 1005 c 2
 935 411 l 2
 935 105 746 -25 548 -25 c 2
 528 -25 l 2
 373 -25 238 7 176 135 c 1
 310 201 l 1
 334 153 391 125 528 125 c 2
 548 125 l 2
 690 125 785 213 785 411 c 2
 785 546 l 1
 708 490 617 478 548 478 c 2
 522 478 l 2
785 930 m 2
 785 1005 l 2
 785 1185 682 1275 548 1275 c 2
 528 1275 l 2
 385 1275 290 1202 290 1005 c 2
 290 930 l 2
 290 748 393 628 534 628 c 2
 548 628 l 2
 690 628 785 689 785 930 c 2
EndSplineSet
Validated: 3073
EndChar

StartChar: less
Encoding: 60 60 28
Width: 1075
VWidth: 1708
GlyphClass: 2
Flags: W
LayerCount: 2
Fore
SplineSet
167 655 m 1
 909 1233 l 1
 909 1042 l 1
 341 600 l 1
 909 158 l 1
 909 -33 l 1
 167 545 l 1
 167 655 l 1
EndSplineSet
Validated: 3073
EndChar

StartChar: equal
Encoding: 61 61 29
Width: 1075
VWidth: 1708
GlyphClass: 2
Flags: W
HStem: 325 150<127 949> 767 150<127 949>
LayerCount: 2
Fore
SplineSet
949 917 m 1
 949 767 l 1
 127 767 l 1
 127 917 l 1
 949 917 l 1
949 475 m 1
 949 325 l 1
 127 325 l 1
 127 475 l 1
 949 475 l 1
EndSplineSet
Validated: 3073
EndChar

StartChar: greater
Encoding: 62 62 30
Width: 1075
VWidth: 1708
GlyphClass: 2
Flags: W
LayerCount: 2
Fore
SplineSet
167 1233 m 1
 909 655 l 1
 909 545 l 1
 167 -33 l 1
 167 158 l 1
 735 600 l 1
 167 1042 l 1
 167 1233 l 1
EndSplineSet
Validated: 3073
EndChar

StartChar: question
Encoding: 63 63 31
Width: 1075
VWidth: 1708
GlyphClass: 2
Flags: W
HStem: -141 306<425.375 650.25> 1275 150<361.484 714.781>
VStem: 140 150<1096 1210.84> 376 323<-92.263 116.209> 463 150<360 599.27> 785 150<914.922 1210.37>
LayerCount: 2
Fore
SplineSet
699 12 m 0xf4
 699 -78 623 -141 537 -141 c 0
 454 -141 376 -76 376 12 c 0
 376 93 446 165 537 165 c 0
 621 165 699 103 699 12 c 0xf4
463 480 m 2xec
 463 578 507 660 566 724 c 2
 716 886 l 2
 777 950 785 997 785 1024 c 2
 785 1095 l 2
 785 1239 659 1275 548 1275 c 2
 528 1275 l 2
 421 1275 292 1241 290 1094 c 1
 140 1096 l 1
 143 1282 276 1425 528 1425 c 2
 548 1425 l 2
 800 1425 935 1282 935 1095 c 2
 935 1024 l 2
 935 928 887 848 826 784 c 2
 676 622 l 2
 641 584 613 537 613 480 c 2
 613 360 l 1
 463 360 l 1
 463 480 l 2xec
EndSplineSet
Validated: 3073
EndChar

StartChar: at
Encoding: 64 64 32
Width: 1075
VWidth: 1708
GlyphClass: 2
Flags: W
HStem: -25 150<402.384 785.632> 360 150<625.429 798.771> 925 150<617.263 832> 1275 150<391.505 733.11>
VStem: 60 150<408.646 1031.47> 436 150<549.335 894.632> 832 150<340 390 542.22 925 1075 1186.19>
LayerCount: 2
Fore
SplineSet
538 -25 m 3
 257 -25 60 260 60 732 c 3
 60 1070 189 1425 538 1425 c 3
 807 1425 982 1286 982 1076 c 2
 982 340 l 1
 832 340 l 1
 832 390 l 1
 796 371 755 360 711 360 c 3
 601 360 436 421 436 734 c 3
 436 1023 601 1075 711 1075 c 2
 832 1075 l 1
 825 1234 665 1275 538 1275 c 3
 276 1275 210 956 210 732 c 3
 210 364 341 125 538 125 c 3
 662 125 754 137 810 186 c 1
 910 74 l 1
 810 -9 624 -25 538 -25 c 3
711 925 m 2
 633 925 586 883 586 734 c 3
 586 546 650 510 711 510 c 3
 784 510 832 583 832 639 c 2
 832 925 l 1
 711 925 l 2
EndSplineSet
Validated: 3073
EndChar

StartChar: B
Encoding: 66 66 33
Width: 1075
VWidth: 1947
GlyphClass: 2
Flags: W
HStem: 0 150<290 723.471> 712 150<290 690.483> 1250 150<290 683.762>
VStem: 140 150<150 712 862 1250> 728 150<901.5 1207.12> 785 150<209.537 646.969>
LayerCount: 2
Fore
SplineSet
491 1400 m 2xf4
 651 1400 878 1371 878 1095 c 2
 878 1025 l 2xf8
 878 918 848 847 798 799 c 1
 891 736 935 629 935 485 c 2
 935 337 l 2
 935 177 850 0 548 0 c 2
 140 0 l 1
 140 1400 l 1
 491 1400 l 2xf4
785 337 m 2xf4
 785 485 l 2
 785 644 723 712 548 712 c 2
 290 712 l 1
 290 150 l 1
 548 150 l 2
 729 150 785 225 785 337 c 2xf4
728 1095 m 2xf8
 728 1209 675 1250 491 1250 c 2
 290 1250 l 1
 290 862 l 1
 491 862 l 2
 693 862 728 913 728 1025 c 2
 728 1095 l 2xf8
EndSplineSet
Validated: 3073
EndChar

StartChar: C
Encoding: 67 67 34
Width: 1075
VWidth: 1947
GlyphClass: 2
Flags: W
HStem: -25 150<418.097 689.885> 1275 150<403.143 698.569>
VStem: 129 150<339.385 1104.74> 780 144<228.315 295.371 1097.64 1193.67>
LayerCount: 2
Fore
SplineSet
568 -25 m 2
 532 -25 l 2
 371 -25 129 74 129 696 c 2
 129 763 l 2
 129 1064 190 1425 531 1425 c 2
 568 1425 l 2
 775 1425 889 1296 937 1098 c 1
 791 1062 l 1
 759 1194 701 1275 568 1275 c 2
 531 1275 l 2
 371 1275 279 1137 279 763 c 2
 279 696 l 2
 279 437 322 125 532 125 c 2
 568 125 l 2
 635 125 727 147 780 335 c 1
 924 295 l 1
 872 108 761 -25 568 -25 c 2
EndSplineSet
Validated: 3073
EndChar

StartChar: D
Encoding: 68 68 35
Width: 1075
VWidth: 1947
GlyphClass: 2
Flags: W
HStem: 0 150<290 662.464> 1250 150<290 677.296>
VStem: 140 150<150 1250> 797 150<339.06 1098.13>
LayerCount: 2
Fore
SplineSet
947 775 m 2
 947 671 l 2
 947 92 702 0 538 0 c 2
 140 0 l 1
 140 1400 l 1
 538 1400 l 2
 875 1400 947 1102 947 775 c 2
538 1250 m 2
 290 1250 l 1
 290 150 l 1
 538 150 l 2
 695 150 797 293 797 671 c 2
 797 775 l 2
 797 1148 702 1250 538 1250 c 2
EndSplineSet
Validated: 3073
EndChar

StartChar: E
Encoding: 69 69 36
Width: 1075
VWidth: 1708
GlyphClass: 2
Flags: W
HStem: 0 151<290 967> 712 150<290 860> 1250 150<290 967>
VStem: 140 150<151 712 862 1250>
LayerCount: 2
Fore
SplineSet
290 712 m 1
 290 151 l 1
 967 151 l 1
 967 0 l 1
 140 0 l 1
 140 1400 l 1
 967 1400 l 1
 967 1250 l 1
 290 1250 l 1
 290 862 l 1
 860 862 l 1
 860 712 l 1
 290 712 l 1
EndSplineSet
Validated: 3073
EndChar

StartChar: F
Encoding: 70 70 37
Width: 1075
VWidth: 1708
GlyphClass: 2
Flags: W
HStem: 712 150<290 860> 1250 150<290 967>
VStem: 140 150<76 712 862 1250>
LayerCount: 2
Fore
SplineSet
290 712 m 1
 290 76 l 1
 140 76 l 1
 140 1400 l 1
 967 1400 l 1
 967 1250 l 1
 290 1250 l 1
 290 862 l 1
 860 862 l 1
 860 712 l 1
 290 712 l 1
EndSplineSet
Validated: 3073
EndChar

StartChar: G
Encoding: 71 71 38
Width: 1075
VWidth: 1947
GlyphClass: 2
Flags: W
HStem: -25 150<418.097 705.273> 542 150<588 785> 1275 150<403.143 698.156>
VStem: 129 150<339.385 1104.3> 785 150<235 542 1094.92 1185.53>
LayerCount: 2
Fore
SplineSet
568 1275 m 2
 531 1275 l 2
 371 1275 279 1137 279 763 c 2
 279 696 l 2
 279 437 322 125 532 125 c 2
 568 125 l 2
 681 125 758 197 785 270 c 1
 785 542 l 1
 588 542 l 1
 588 692 l 1
 935 692 l 1
 935 245 l 1
 932 235 l 2
 890 101 756 -25 568 -25 c 2
 532 -25 l 2
 371 -25 129 74 129 696 c 2
 129 763 l 2
 129 1063 190 1425 531 1425 c 2
 568 1425 l 2
 774 1425 889 1296 937 1098 c 1
 791 1062 l 1
 759 1193 702 1275 568 1275 c 2
EndSplineSet
Validated: 3073
EndChar

StartChar: H
Encoding: 72 72 39
Width: 1075
VWidth: 1947
GlyphClass: 2
Flags: W
HStem: 0 21G<140 290 785 935> 657 150<290 785> 1380 20G<140 290 785 935>
VStem: 140 150<0 657 807 1400> 785 150<0 657 807 1400>
LayerCount: 2
Fore
SplineSet
290 -0 m 1
 140 0 l 1
 140 1400 l 1
 290 1400 l 1
 290 807 l 1
 785 807 l 1
 785 1400 l 1
 935 1400 l 1
 935 -0 l 1
 785 0 l 1
 785 657 l 1
 290 657 l 1
 290 -0 l 1
EndSplineSet
Validated: 3073
EndChar

StartChar: I
Encoding: 73 73 40
Width: 1075
VWidth: 1947
GlyphClass: 2
Flags: W
HStem: 0 150<109 463 613 967> 1250 150<109 463 613 967>
VStem: 463 150<150 1250>
LayerCount: 2
Fore
SplineSet
967 150 m 1
 967 0 l 1
 109 0 l 1
 109 150 l 1
 463 150 l 1
 463 1250 l 1
 109 1250 l 1
 109 1400 l 1
 967 1400 l 1
 967 1250 l 1
 613 1250 l 1
 613 150 l 1
 967 150 l 1
EndSplineSet
Validated: 3073
EndChar

StartChar: J
Encoding: 74 74 41
Width: 1075
VWidth: 1947
GlyphClass: 2
Flags: W
HStem: -25 150<282.383 568.25> 1250 150<373 629 779 990>
VStem: 629 150<187.346 1250>
LayerCount: 2
Fore
SplineSet
990 1400 m 1
 990 1250 l 1
 779 1250 l 1
 779 337 l 2
 779 111 638 -25 444 -25 c 2
 424 -25 l 2
 267 -25 145 36 104 189 c 1
 248 227 l 1
 260 181 287 125 424 125 c 2
 444 125 l 2
 562 125 629 202 629 337 c 2
 629 1250 l 1
 373 1250 l 1
 373 1400 l 1
 990 1400 l 1
EndSplineSet
Validated: 3073
EndChar

StartChar: K
Encoding: 75 75 42
Width: 1075
VWidth: 1947
GlyphClass: 2
Flags: W
HStem: -0 21G<142 292 791.979 975> 1380 20G<142 292 757.82 956>
VStem: 142 150<0 464 723 1400>
LayerCount: 2
Fore
SplineSet
142 0 m 1
 142 1400 l 1
 292 1400 l 1
 292 723 l 1
 772 1400 l 1
 956 1400 l 1
 532 802 l 1
 975 -0 l 1
 918 0 860 0 803 -0 c 1
 436 666 l 1
 292 464 l 1
 292 -0 l 1
 142 0 l 1
EndSplineSet
Validated: 3073
EndChar

StartChar: L
Encoding: 76 76 43
Width: 1075
VWidth: 1947
GlyphClass: 2
Flags: W
HStem: 0 151<290 967> 1380 20G<140 290>
VStem: 140 150<151 1400>
LayerCount: 2
Fore
SplineSet
290 151 m 1
 967 151 l 1
 967 0 l 1
 140 0 l 1
 140 1400 l 1
 290 1400 l 1
 290 151 l 1
EndSplineSet
Validated: 3073
EndChar

StartChar: M
Encoding: 77 77 44
Width: 1075
VWidth: 1947
GlyphClass: 2
Flags: W
HStem: 0 21G<47 199.663 876.337 1029> 1380 20G<162.329 322.711 753.289 913.671>
LayerCount: 2
Fore
SplineSet
47 0 m 1
 164 1400 l 1
 317 1400 l 1
 538 626 l 1
 759 1400 l 1
 912 1400 l 1
 1029 0 l 1
 979 0 928 0 878 0 c 1
 796 986 l 1
 576 211 l 1
 500 211 l 1
 280 986 l 1
 198 0 l 1
 47 0 l 1
EndSplineSet
Validated: 3073
EndChar

StartChar: N
Encoding: 78 78 45
Width: 1075
VWidth: 1947
GlyphClass: 2
Flags: W
HStem: -0 21G<140 290 791.078 935> 1380 20G<140 283.913 785 935>
VStem: 140 150<0 1030> 785 150<369 1400>
LayerCount: 2
Fore
SplineSet
290 0 m 1
 140 -0 l 1
 140 1400 l 1
 274 1400 l 1
 785 369 l 1
 785 1400 l 1
 935 1400 l 1
 935 -0 l 1
 890 0 846 0 801 -0 c 1
 290 1030 l 1
 290 0 l 1
EndSplineSet
Validated: 3073
EndChar

StartChar: O
Encoding: 79 79 46
Width: 1075
VWidth: 1947
GlyphClass: 2
Flags: W
HStem: -25 150<418.097 659.181> 1275 150<403.143 673.48>
VStem: 129 150<339.385 1104.74> 797 150<323.793 1104.79>
LayerCount: 2
Fore
SplineSet
545 1275 m 2
 531 1275 l 2
 371 1275 279 1137 279 763 c 2
 279 696 l 2
 279 437 322 125 532 125 c 2
 545 125 l 1
 755 126 797 436 797 696 c 2
 797 765 l 2
 797 1138 706 1275 545 1275 c 2
947 765 m 2
 947 696 l 2
 947 76 707 -24 545 -25 c 1
 532 -25 l 2
 371 -25 129 74 129 696 c 2
 129 763 l 2
 129 1064 190 1425 531 1425 c 2
 545 1425 l 2
 888 1425 947 1063 947 765 c 2
EndSplineSet
Validated: 3073
EndChar

StartChar: P
Encoding: 80 80 47
Width: 1075
VWidth: 1947
GlyphClass: 2
Flags: W
HStem: 0 21G<140 290> 642 150<290 734.781> 1250 150<290 736.573>
VStem: 140 150<0 642 792 1250> 785 150<844.507 1203.54>
LayerCount: 2
Fore
SplineSet
548 792 m 2
 748 792 785 863 785 972 c 2
 785 1063 l 2
 785 1199 743 1250 548 1250 c 2
 290 1250 l 1
 290 792 l 1
 548 792 l 2
290 642 m 1
 290 -0 l 1
 140 0 l 1
 140 1400 l 1
 548 1400 l 2
 771 1400 935 1333 935 1063 c 2
 935 972 l 2
 935 774 828 642 548 642 c 2
 290 642 l 1
EndSplineSet
Validated: 3073
EndChar

StartChar: Q
Encoding: 81 81 48
Width: 1075
VWidth: 1947
GlyphClass: 2
Flags: W
HStem: -25 150<418.097 606.109> 1275 150<403.143 673.48>
VStem: 129 150<339.385 1104.74> 797 150<327.195 1104.79>
LayerCount: 2
Fore
SplineSet
925 -106 m 1
 797 -182 l 1
 685 5 l 1
 637 -17 588 -25 545 -25 c 2
 532 -25 l 2
 371 -25 129 74 129 696 c 2
 129 763 l 2
 129 1064 190 1425 531 1425 c 2
 545 1425 l 2
 888 1425 947 1063 947 765 c 2
 947 696 l 2
 947 382 885 201 803 99 c 1
 925 -106 l 1
545 1275 m 2
 531 1275 l 2
 371 1275 279 1137 279 763 c 2
 279 696 l 2
 279 437 322 125 532 125 c 2
 545 125 l 2
 568 125 588 129 607 136 c 1
 473 361 l 1
 603 437 l 1
 719 241 l 1
 781 355 797 536 797 696 c 2
 797 765 l 2
 797 1138 706 1275 545 1275 c 2
EndSplineSet
Validated: 3073
EndChar

StartChar: R
Encoding: 82 82 49
Width: 1075
VWidth: 1947
GlyphClass: 2
Flags: W
HStem: 0 21G<140 290 807.782 987> 642 150<290 490> 1250 150<290 736.573>
VStem: 140 150<0 642 792 1250> 785 150<841.625 1203.54>
LayerCount: 2
Fore
SplineSet
548 792 m 2
 748 792 785 864 785 973 c 2
 785 1063 l 2
 785 1199 743 1250 548 1250 c 2
 290 1250 l 1
 290 792 l 1
 548 792 l 2
140 0 m 1
 140 1400 l 1
 548 1400 l 2
 771 1400 935 1333 935 1063 c 2
 935 973 l 2
 935 802 855 680 654 649 c 1
 987 0 l 1
 931 0 874 0 818 0 c 1
 490 642 l 1
 290 642 l 1
 290 -0 l 1
 140 0 l 1
EndSplineSet
Validated: 3073
EndChar

StartChar: S
Encoding: 83 83 50
Width: 1075
VWidth: 2334
GlyphClass: 2
Flags: W
HStem: -25 150<374.789 697.059> 1275 150<390.787 725.948>
VStem: 91 150<249.336 357> 147 150<942.767 1186.7> 809 150<223.577 518.532 1063 1200.15>
LayerCount: 2
Fore
SplineSet
528 125 m 2xe8
 548 125 l 2
 691 125 809 230 809 337 c 2
 809 367 l 2
 809 452 757 580 648 628 c 2
 345 761 l 2
 217 818 147 924 147 1033 c 2
 147 1063 l 2
 147 1261 316 1425 535 1425 c 2
 543 1425 l 2
 754 1425 890 1331 936 1202 c 0
 950 1163 954 1091 954 1063 c 1
 804 1063 l 1
 804 1098 797 1144 794 1152 c 0
 754 1265 596 1275 543 1275 c 2
 535 1275 l 2
 393 1275 297 1173 297 1063 c 2
 297 1033 l 2xd8
 297 990 326 934 405 899 c 2
 710 764 l 2
 890 684 959 490 959 367 c 2
 959 337 l 2
 959 144 771 -25 548 -25 c 2
 528 -25 l 2
 302 -25 91 162 91 357 c 1
 241 357 l 1
 241 246 386 125 528 125 c 2xe8
EndSplineSet
Validated: 3073
EndChar

StartChar: T
Encoding: 84 84 51
Width: 1075
VWidth: 1947
GlyphClass: 2
Flags: W
HStem: -0 21G<463 613> 1250 150<86 463 613 990>
VStem: 463 150<0 1250>
LayerCount: 2
Fore
SplineSet
990 1400 m 1
 990 1250 l 1
 613 1250 l 1
 613 0 l 1
 463 -0 l 1
 463 1250 l 1
 86 1250 l 1
 86 1400 l 1
 990 1400 l 1
EndSplineSet
Validated: 3073
EndChar

StartChar: U
Encoding: 85 85 52
Width: 1075
VWidth: 1947
GlyphClass: 2
Flags: W
HStem: -25 150<359.676 715.094> 1380 20G<140 290 785 935>
VStem: 140 150<198.463 1400> 785 150<191.314 1400>
LayerCount: 2
Fore
SplineSet
290 337 m 2
 290 213 346 125 528 125 c 2
 548 125 l 2
 728 125 785 212 785 337 c 2
 785 1400 l 1
 935 1400 l 1
 935 337 l 2
 935 124 807 -25 548 -25 c 2
 528 -25 l 2
 269 -25 140 123 140 337 c 2
 140 1400 l 1
 290 1400 l 1
 290 337 l 2
EndSplineSet
Validated: 3073
EndChar

StartChar: V
Encoding: 86 86 53
Width: 1075
VWidth: 1708
GlyphClass: 2
Flags: W
HStem: -25 21G<463.018 612.968> 1380 20G<113 272.977 803.023 962>
LayerCount: 2
Fore
SplineSet
468 -25 m 1
 113 1400 l 1
 268 1400 l 1
 538 315 l 1
 808 1400 l 1
 962 1400 l 1
 608 -25 l 1
 468 -25 l 1
EndSplineSet
Validated: 3073
EndChar

StartChar: W
Encoding: 87 87 54
Width: 1075
VWidth: 1947
GlyphClass: 2
Flags: W
HStem: 0 21G<162.329 322.703 753.297 913.671> 1380 20G<47 199.665 876.335 1029>
LayerCount: 2
Fore
SplineSet
164 0 m 1
 47 1400 l 1
 198 1400 l 1
 280 415 l 1
 500 1190 l 1
 576 1190 l 1
 796 415 l 1
 878 1400 l 1
 1029 1400 l 1
 912 0 l 1
 861 0 810 0 759 0 c 1
 538 775 l 1
 317 -0 l 1
 266 0 215 0 164 0 c 1
EndSplineSet
Validated: 3073
EndChar

StartChar: X
Encoding: 88 88 55
Width: 1075
VWidth: 1947
GlyphClass: 2
Flags: W
HStem: -0 21G<124 299.448 776.552 952> 1380 20G<124 299.448 776.552 952>
LayerCount: 2
Fore
SplineSet
124 -0 m 1
 455 700 l 1
 124 1400 l 1
 290 1400 l 1
 538 875 l 1
 786 1400 l 1
 952 1400 l 1
 621 700 l 1
 952 0 l 1
 897 0 841 0 786 -0 c 1
 538 525 l 1
 290 -0 l 1
 235 0 179 0 124 -0 c 1
EndSplineSet
Validated: 3073
EndChar

StartChar: Y
Encoding: 89 89 56
Width: 1075
VWidth: 1947
GlyphClass: 2
Flags: W
HStem: -25 21G<463 613> 1380 20G<119 287.622 788.378 957>
VStem: 463 150<-25 499>
LayerCount: 2
Fore
SplineSet
463 -25 m 1
 463 499 l 1
 119 1400 l 1
 280 1400 l 1
 538 723 l 1
 796 1400 l 1
 957 1400 l 1
 613 499 l 1
 613 -25 l 1
 463 -25 l 1
EndSplineSet
Validated: 3073
EndChar

StartChar: Z
Encoding: 90 90 57
Width: 1075
VWidth: 1947
GlyphClass: 2
Flags: W
HStem: 0 151<300 967> 1250 150<109 776>
LayerCount: 2
Fore
SplineSet
109 1250 m 1
 109 1400 l 1
 967 1400 l 1
 967 1279 l 1
 300 151 l 1
 967 151 l 1
 967 0 l 1
 109 0 l 1
 109 122 l 1
 776 1250 l 1
 109 1250 l 1
EndSplineSet
Validated: 3073
EndChar

StartChar: bracketleft
Encoding: 91 91 58
Width: 1075
VWidth: 1947
GlyphClass: 2
Flags: W
HStem: -155 150<485 860> 1405 150<485 860>
VStem: 335 150<-5 1405>
LayerCount: 2
Fore
SplineSet
485 1405 m 1
 485 -5 l 1
 860 -5 l 1
 860 -155 l 1
 335 -155 l 1
 335 1555 l 1
 860 1555 l 1
 860 1405 l 1
 485 1405 l 1
EndSplineSet
Validated: 3073
EndChar

StartChar: backslash
Encoding: 92 92 59
Width: 1075
VWidth: 1708
GlyphClass: 2
Flags: W
LayerCount: 2
Fore
SplineSet
146 1395 m 1
 284 1455 l 1
 929 5 l 1
 791 -55 l 1
 146 1395 l 1
EndSplineSet
Validated: 3073
EndChar

StartChar: bracketright
Encoding: 93 93 60
Width: 1075
VWidth: 1947
GlyphClass: 2
Flags: W
HStem: -155 150<215 591> 1405 150<215 591>
VStem: 591 150<-5 1405>
LayerCount: 2
Fore
SplineSet
215 1555 m 1
 741 1555 l 1
 741 -155 l 1
 215 -155 l 1
 215 -5 l 1
 591 -5 l 1
 591 1405 l 1
 215 1405 l 1
 215 1555 l 1
EndSplineSet
Validated: 3073
EndChar

StartChar: asciicircum
Encoding: 94 94 61
Width: 1075
VWidth: 1947
GlyphClass: 2
Flags: W
HStem: 946 479
VStem: 198 680
LayerCount: 2
Fore
SplineSet
602 1425 m 1
 878 1032 l 1
 756 946 l 1
 538 1255 l 1
 320 946 l 1
 198 1032 l 1
 474 1425 l 1
 602 1425 l 1
EndSplineSet
Validated: 3073
EndChar

StartChar: underscore
Encoding: 95 95 62
Width: 1075
VWidth: 1947
GlyphClass: 2
Flags: W
HStem: -167 150<167 909>
LayerCount: 2
Fore
SplineSet
909 -17 m 1
 909 -167 l 1
 167 -167 l 1
 167 -17 l 1
 909 -17 l 1
EndSplineSet
Validated: 3073
EndChar

StartChar: grave
Encoding: 96 96 63
Width: 1075
VWidth: 1708
GlyphClass: 2
Flags: W
HStem: 978 482
VStem: 296 482
LayerCount: 2
Fore
SplineSet
762 1099 m 2
 774 1086 778 1071 778 1055 c 3
 778 1036 770 1018 754 1002 c 0
 738 986 720 978 702 978 c 3
 686 978 672 984 658 995 c 2
 341 1242 l 2
 312 1266 296 1304 296 1341 c 3
 296 1374 307 1406 328 1428 c 0
 348 1450 382 1460 414 1460 c 3
 452 1460 489 1443 512 1414 c 2
 762 1099 l 2
EndSplineSet
Validated: 3073
EndChar

StartChar: a
Encoding: 97 97 64
Width: 1075
VWidth: 1947
GlyphClass: 2
Flags: W
HStem: -25 150<360.833 672.238> 0 21G<785 935> 486 150<368.842 785> 899 150<334.5 733.988>
VStem: 140 150<186.403 416.914> 785 150<0 63 228.483 486 636 846.493>
LayerCount: 2
Fore
SplineSet
140 337 m 2xbc
 140 434 224 623 528 636 c 1
 785 636 l 1
 785 719 l 2
 785 827 746 899 548 899 c 2
 528 899 l 2
 391 899 334 872 309 821 c 1
 175 887 l 1
 238 1016 372 1049 528 1049 c 2
 548 1049 l 2
 825 1049 935 917 935 719 c 2
 935 -0 l 1
 785 0 l 1x7c
 785 63 l 1
 726 18 648 -18 548 -25 c 1
 528 -25 l 2
 331 -25 150 75 140 259 c 1
 140 337 l 2xbc
548 125 m 1xbc
 693 134 785 272 785 305 c 2
 785 486 l 1
 528 486 l 1
 331 477 290 370 290 337 c 2
 290 259 l 1
 296 197 379 125 528 125 c 2
 548 125 l 1xbc
EndSplineSet
Validated: 3073
EndChar

StartChar: b
Encoding: 98 98 65
Width: 1075
VWidth: 2334
GlyphClass: 2
Flags: W
HStem: -25 150<400.359 686.929> 0 21G<140 290> 899 150<384.439 687.316> 1380 20G<140 290>
VStem: 140 150<0 64 243.381 796.557 972 1400> 785 150<233.951 788.759>
LayerCount: 2
Fore
SplineSet
528 1049 m 2x7c
 548 1049 l 2
 801 1049 935 860 935 597 c 2
 935 427 l 2
 935 161 800 -25 548 -25 c 2
 528 -25 l 2xbc
 437 -25 355 8 290 64 c 1
 290 -0 l 1
 140 0 l 1
 140 1400 l 1
 290 1400 l 1
 290 972 l 1
 351 1021 431 1049 528 1049 c 2x7c
290 427 m 2
 290 240 398 125 528 125 c 2
 548 125 l 2
 738 125 785 280 785 427 c 2
 785 597 l 2
 785 741 738 899 548 899 c 2
 528 899 l 2
 338 899 290 741 290 597 c 2
 290 427 l 2
EndSplineSet
Validated: 3073
EndChar

StartChar: c
Encoding: 99 99 66
Width: 1075
VWidth: 2334
GlyphClass: 2
Flags: W
HStem: -25 150<400.959 739.587> 898 150<388.577 735.299>
VStem: 140 150<245.844 789.015>
LayerCount: 2
Fore
SplineSet
548 898 m 2
 528 898 l 2
 338 898 290 741 290 597 c 2
 290 427 l 2
 290 255 386 125 528 125 c 2
 548 125 l 2
 689 125 749 154 772 215 c 1
 912 161 l 1
 858 18 725 -25 548 -25 c 2
 528 -25 l 2
 307 -25 140 165 140 427 c 2
 140 597 l 2
 140 861 275 1048 528 1048 c 2
 548 1048 l 2
 727 1048 862 1003 914 855 c 1
 772 805 l 1
 751 866 696 898 548 898 c 2
EndSplineSet
Validated: 3073
EndChar

StartChar: d
Encoding: 100 100 67
Width: 1075
VWidth: 1947
GlyphClass: 2
Flags: W
HStem: -25 150<400.959 690.991> 0 21G<785 935> 899 150<388.577 690.991> 1380 20G<785 935>
VStem: 140 150<245.844 789.189> 785 150<0 51 226.284 796.557 973 1400>
LayerCount: 2
Fore
SplineSet
528 1049 m 2xbc
 548 1049 l 2
 645 1049 724 1022 785 973 c 1
 785 1400 l 1
 935 1400 l 1
 935 -0 l 1
 785 0 l 1x7c
 785 51 l 1
 724 2 645 -25 548 -25 c 2
 528 -25 l 2
 307 -25 140 165 140 427 c 2
 140 597 l 2
 140 861 275 1049 528 1049 c 2xbc
290 597 m 2
 290 427 l 2
 290 240 398 125 528 125 c 2
 548 125 l 2xbc
 738 125 785 280 785 427 c 2
 785 597 l 2
 785 741 738 899 548 899 c 2
 528 899 l 2
 338 899 290 741 290 597 c 2
EndSplineSet
Validated: 3073
EndChar

StartChar: e
Encoding: 101 101 68
Width: 1075
VWidth: 1947
GlyphClass: 2
Flags: W
HStem: -25 150<378.285 736.239> 486 150<290 785> 899 150<341.372 733.988>
VStem: 140 150<210.416 486 636 846.493> 785 150<636 846.493>
LayerCount: 2
Fore
SplineSet
785 636 m 1
 785 719 l 2
 785 827 746 899 548 899 c 2
 528 899 l 2
 329 899 290 827 290 719 c 2
 290 636 l 1
 785 636 l 1
290 486 m 1
 290 337 l 2
 290 224 367 125 528 125 c 2
 548 125 l 2
 704 125 755 162 774 224 c 1
 918 180 l 1
 865 5 696 -25 548 -25 c 2
 528 -25 l 2
 273 -25 140 152 140 337 c 2
 140 719 l 2
 140 917 251 1049 528 1049 c 2
 548 1049 l 2
 825 1049 935 917 935 719 c 2
 935 486 l 1
 290 486 l 1
EndSplineSet
Validated: 3073
EndChar

StartChar: f
Encoding: 102 102 69
Width: 1075
VWidth: 1947
GlyphClass: 2
Flags: W
HStem: 0 21G<349 499> 781 150<109 349 499 860> 1275 150<528.125 761.609>
VStem: 349 150<0 781 931 1243.59> 785 150<1185 1246.13>
LayerCount: 2
Fore
SplineSet
785 1185 m 1
 785 1228 730 1275 652 1275 c 2
 632 1275 l 2
 561 1275 499 1214 499 1184 c 2
 499 931 l 1
 860 931 l 1
 860 781 l 1
 499 781 l 1
 499 -0 l 1
 349 0 l 1
 349 781 l 1
 109 781 l 1
 109 931 l 1
 349 931 l 1
 349 1184 l 2
 349 1259 441 1425 632 1425 c 2
 652 1425 l 2
 807 1425 935 1321 935 1185 c 1
 785 1185 l 1
EndSplineSet
Validated: 3073
EndChar

StartChar: g
Encoding: 103 103 70
Width: 1075
VWidth: 1947
GlyphClass: 2
Flags: W
HStem: -385 151<361.462 718.051> 23 150<356.675 714.781> 316 150<396.075 675.162> 884 150<893.847 955> 899 150<383.439 690.983>
VStem: 140 150<-171.554 -31.8408 157.756 352.114 567.567 814.438> 785 150<-169.606 -38.0637 565.756 812.867>
LayerCount: 2
Fore
SplineSet
140 281 m 2xf6
 140 359 185 420 228 459 c 1
 174 521 140 597 140 673 c 2
 140 719 l 2
 140 894 329 1049 528 1049 c 2
 548 1049 l 2xee
 636 1049 722 1019 790 970 c 1
 836 1009 893 1034 955 1034 c 1
 955 884 l 1
 933 884 911 875 893 861 c 1
 920 817 935 769 935 719 c 2
 935 673 l 2
 935 492 747 316 548 316 c 2
 528 316 l 2
 465 316 404 333 349 363 c 1
 302 332 290 297 290 281 c 2
 290 215 l 2
 291 208 303 171 354 144 c 1
 411 164 472 173 528 173 c 2
 548 173 l 2
 800 162 935 27 935 -87 c 2
 935 -107 l 2
 935 -312 694 -385 548 -385 c 2
 528 -385 l 2
 231 -373 140 -200 140 -107 c 2
 140 -87 l 2
 140 -48 144 -5 211 62 c 1
 147 123 140 213 140 215 c 2
 140 281 l 2xf6
548 899 m 2
 528 899 l 2
 413 899 290 809 290 719 c 2
 290 673 l 2
 290 578 410 466 528 466 c 2
 548 466 l 2
 667 466 785 578 785 673 c 2
 785 719 l 2
 785 803 671 899 548 899 c 2
785 -87 m 2
 785 -65 709 16 548 23 c 2
 528 23 l 2
 408 23 290 -38 290 -87 c 2
 290 -107 l 2
 290 -158 378 -228 528 -234 c 2
 548 -234 l 2
 679 -234 781 -164 785 -107 c 2
 785 -87 l 2
EndSplineSet
Validated: 3073
EndChar

StartChar: h
Encoding: 104 104 71
Width: 1075
VWidth: 2334
GlyphClass: 2
Flags: W
HStem: 0 21G<140 290 785 935> 899 150<420.286 733.988> 1380 20G<140 290>
VStem: 140 150<0 744.065 938 1400> 785 150<0 846.493>
LayerCount: 2
Fore
SplineSet
290 -0 m 1
 140 0 l 1
 140 1400 l 1
 290 1400 l 1
 290 938 l 1
 353 1004 434 1049 528 1049 c 2
 548 1049 l 2
 825 1049 935 917 935 719 c 2
 935 0 l 1
 785 -0 l 1
 785 719 l 2
 785 827 746 899 548 899 c 2
 528 899 l 2
 398 899 290 700 290 597 c 2
 290 -0 l 1
EndSplineSet
Validated: 3073
EndChar

StartChar: k
Encoding: 107 107 74
Width: 1075
VWidth: 1947
GlyphClass: 2
Flags: W
HStem: -0 21G<140 290 758.587 953> 1405 20G<140 290>
VStem: 140 150<0 352 570 1425>
LayerCount: 2
Fore
SplineSet
140 0 m 1
 140 1425 l 1
 290 1425 l 1
 290 570 l 1
 806 1115 l 1
 914 1011 l 1
 540 616 l 1
 953 0 l 1
 893 0 832 0 772 -0 c 1
 434 504 l 1
 290 352 l 1
 290 -0 l 1
 140 0 l 1
EndSplineSet
Validated: 3073
EndChar

StartChar: l
Encoding: 108 108 75
Width: 1075
VWidth: 1947
GlyphClass: 2
Flags: W
HStem: 0 150<215 463 613 860> 1250 150<215 463>
VStem: 463 150<150 1250>
LayerCount: 2
Fore
SplineSet
215 1400 m 1
 613 1400 l 1
 613 150 l 1
 860 150 l 1
 860 0 l 1
 215 0 l 1
 215 150 l 1
 463 150 l 1
 463 1250 l 1
 215 1250 l 1
 215 1400 l 1
EndSplineSet
Validated: 3073
EndChar

StartChar: m
Encoding: 109 109 76
Width: 1075
VWidth: 2334
GlyphClass: 2
Flags: W
HStem: 0 21G<94 244 463 613 832 982> 899 150<290.221 457.157 660.849 822.654> 1004 20G<94 244>
VStem: 94 150<0 852.445 1013 1024> 463 150<0 852.181> 832 150<0 894.435>
CounterMasks: 1 1c
LayerCount: 2
Fore
SplineSet
751 1049 m 2xdc
 966 1049 982 888 982 809 c 2
 982 0 l 1
 832 -0 l 1
 832 809 l 2
 832 872 813 899 751 899 c 2
 739 899 l 2
 676 899 613 819 613 719 c 2
 613 0 l 1
 463 -0 l 1
 463 809 l 2
 463 873 450 899 382 899 c 2
 370 899 l 2xdc
 307 899 244 819 244 719 c 2
 244 -0 l 1
 94 0 l 1
 94 1024 l 1
 244 1024 l 1xbc
 244 1013 l 1
 281 1036 324 1049 370 1049 c 2
 382 1049 l 2
 478 1049 533 1016 566 975 c 1
 612 1020 671 1049 739 1049 c 2
 751 1049 l 2xdc
EndSplineSet
Validated: 3073
EndChar

StartChar: n
Encoding: 110 110 77
Width: 1075
VWidth: 2334
GlyphClass: 2
Flags: W
HStem: 0 21G<140 290 785 935> 899 150<420.286 733.988> 1004 20G<140 290>
VStem: 140 150<0 744.065 938 1024> 785 150<0 846.493>
LayerCount: 2
Fore
SplineSet
290 -0 m 1xd8
 140 0 l 1
 140 1024 l 1
 290 1024 l 1xb8
 290 938 l 1
 353 1004 434 1049 528 1049 c 2
 548 1049 l 2
 825 1049 935 917 935 719 c 2
 935 0 l 1
 785 -0 l 1
 785 719 l 2
 785 827 746 899 548 899 c 2
 528 899 l 2
 398 899 290 700 290 597 c 2
 290 -0 l 1xd8
EndSplineSet
Validated: 3073
EndChar

StartChar: o
Encoding: 111 111 78
Width: 1075
VWidth: 1947
GlyphClass: 2
Flags: W
HStem: -25 150<381.732 689.952> 898 150<381.036 691.932>
VStem: 129 150<246.487 782.26> 797 150<251.204 773.83>
LayerCount: 2
Fore
SplineSet
558 898 m 2
 513 898 l 2
 326 898 279 718 279 561 c 2
 279 471 l 2
 279 309 326 125 515 125 c 2
 555 125 l 2
 749 125 797 303 797 470 c 2
 797 562 l 2
 797 719 749 898 558 898 c 2
947 562 m 2
 947 470 l 2
 947 187 821 -25 555 -25 c 2
 515 -25 l 2
 247 -25 129 200 129 471 c 2
 129 561 l 2
 129 830 250 1048 513 1048 c 2
 558 1048 l 2
 822 1048 947 833 947 562 c 2
EndSplineSet
Validated: 3073
EndChar

StartChar: p
Encoding: 112 112 79
Width: 1075
VWidth: 1947
GlyphClass: 2
Flags: W
HStem: -385 21G<140 290> -25 150<400.359 686.929> 899 150<384.439 687.316> 1004 20G<140 290>
VStem: 140 150<-385 64 243.381 796.557 972 1024> 785 150<233.951 788.759>
LayerCount: 2
Fore
SplineSet
290 -385 m 1xec
 140 -385 l 1
 140 1024 l 1
 290 1024 l 1xdc
 290 972 l 1
 351 1021 431 1049 528 1049 c 2
 548 1049 l 2
 801 1049 935 860 935 597 c 2
 935 427 l 2
 935 161 800 -25 548 -25 c 2
 528 -25 l 2
 437 -25 355 8 290 64 c 1
 290 -385 l 1xec
290 427 m 2
 290 240 398 125 528 125 c 2
 548 125 l 2
 738 125 785 280 785 427 c 2
 785 597 l 2
 785 741 738 899 548 899 c 2
 528 899 l 2xec
 338 899 290 741 290 597 c 2
 290 427 l 2
EndSplineSet
Validated: 3073
EndChar

StartChar: q
Encoding: 113 113 80
Width: 1075
VWidth: 1947
GlyphClass: 2
Flags: W
HStem: -385 21G<785 935> -25 150<400.959 690.991> 899 150<388.577 690.991> 1004 20G<785 935>
VStem: 140 150<245.844 789.189> 785 150<-385 51 226.284 796.557 973 1024>
LayerCount: 2
Fore
SplineSet
528 1049 m 2xec
 548 1049 l 2xec
 645 1049 724 1022 785 973 c 1
 785 1024 l 1
 935 1024 l 1xdc
 935 -385 l 1
 785 -385 l 1
 785 51 l 1
 724 2 645 -25 548 -25 c 2
 528 -25 l 2
 307 -25 140 165 140 427 c 2
 140 597 l 2
 140 861 275 1049 528 1049 c 2xec
290 597 m 2
 290 427 l 2
 290 240 398 125 528 125 c 2
 548 125 l 2
 738 125 785 280 785 427 c 2
 785 597 l 2
 785 741 738 899 548 899 c 2
 528 899 l 2
 338 899 290 741 290 597 c 2
EndSplineSet
Validated: 3073
EndChar

StartChar: r
Encoding: 114 114 81
Width: 1075
VWidth: 1947
GlyphClass: 2
Flags: W
HStem: -0 21G<140 290> 899 150<487.19 779.989> 1004 20G<140 290>
VStem: 140 150<0 655.021 872 1024>
LayerCount: 2
Fore
SplineSet
629 899 m 2xd0
 609 899 l 2xd0
 452 899 290 663 290 470 c 2
 290 -0 l 1
 140 -0 l 1
 140 1024 l 1
 290 1024 l 1xb0
 290 872 l 1
 374 977 487 1049 609 1049 c 2
 629 1049 l 2
 776 1049 876 998 933 899 c 1
 803 827 l 1
 776 874 729 899 629 899 c 2xd0
EndSplineSet
Validated: 3073
EndChar

StartChar: s
Encoding: 115 115 82
Width: 1075
VWidth: 1947
GlyphClass: 2
Flags: W
HStem: -25 150<367.841 726.501> 899 150<313.948 696.638>
VStem: 106 150<236.752 337> 140 150<701.19 869.758> 785 150<180.565 371.338 719 814.81>
LayerCount: 2
Fore
SplineSet
785 719 m 1xd8
 785 821 663 899 548 899 c 2
 528 899 l 2
 320 897 290 855 290 789 c 2
 290 777 l 2xd8
 295 724 333 700 347 695 c 2
 782 521 l 2
 816 507 935 454 935 301 c 2
 935 255 l 2
 935 87 767 -25 548 -25 c 2
 493 -25 l 2
 299 -25 106 157 106 337 c 1
 256 337 l 1xe8
 256 248 373 125 493 125 c 2
 548 125 l 2
 664 125 785 170 785 255 c 2
 785 301 l 2
 785 354 750 371 726 381 c 2
 293 555 l 2
 170 604 140 726 140 777 c 2
 140 789 l 2
 140 870 172 935 235 984 c 0
 304 1037 455 1048 528 1049 c 2
 548 1049 l 2
 757 1049 935 895 935 719 c 1
 785 719 l 1xd8
EndSplineSet
Validated: 3073
EndChar

StartChar: t
Encoding: 116 116 83
Width: 1075
VWidth: 1947
GlyphClass: 2
Flags: W
HStem: -25 150<499.667 741.141> 858 150<109 361 520 860> 1405 20G<391.897 544>
VStem: 325 150<150.743 469.252> 762 150<150.905 215>
LayerCount: 2
Fore
SplineSet
912 215 m 1
 912 87 790 -25 629 -25 c 2
 609 -25 l 2
 405 -25 325 134 325 210 c 0
 325 212 325 218 325 220 c 2
 361 858 l 1
 109 858 l 1
 109 1008 l 1
 370 1008 l 1
 393 1425 l 1
 544 1425 l 1
 520 1008 l 1
 860 1008 l 1
 860 858 l 1
 511 858 l 1
 475 212 l 2
 475 211 475 210 475 210 c 0
 475 182 519 125 609 125 c 2
 629 125 l 2
 705 125 762 170 762 215 c 1
 912 215 l 1
EndSplineSet
Validated: 3073
EndChar

StartChar: u
Encoding: 117 117 84
Width: 1075
VWidth: 2334
GlyphClass: 2
Flags: W
HStem: -25 150<349.25 628.474> -0 21G<785 935> 1004 20G<140 290 785 935>
VStem: 140 150<179.609 1024> 785 150<0 109 307 1024>
LayerCount: 2
Fore
SplineSet
785 1024 m 1xb8
 935 1024 l 1
 935 0 l 1
 785 -0 l 1x78
 785 109 l 1
 715 32 625 -25 525 -25 c 2
 504 -25 l 2
 272 -25 140 98 140 337 c 2
 140 1024 l 1
 290 1024 l 1
 290 337 l 2
 290 191 347 125 504 125 c 2
 525 125 l 2
 656 125 785 345 785 447 c 2
 785 1024 l 1xb8
EndSplineSet
Validated: 3073
EndChar

StartChar: v
Encoding: 118 118 85
Width: 1075
VWidth: 1947
GlyphClass: 2
Flags: W
HStem: -25 21G<477.289 598.73> 1004 20G<132 296.712 780.261 945>
LayerCount: 2
Fore
SplineSet
484 -25 m 1
 132 1024 l 1
 290 1024 l 1
 538 285 l 1
 787 1024 l 1
 945 1024 l 1
 592 -25 l 1
 484 -25 l 1
EndSplineSet
Validated: 3073
EndChar

StartChar: w
Encoding: 119 119 86
Width: 1075
VWidth: 1947
GlyphClass: 2
Flags: W
HStem: -0 21G<169.598 298.659 777.341 906.383> 1004 20G<49 203.379 872.621 1026>
LayerCount: 2
Fore
SplineSet
172 -0 m 1
 49 1024 l 1
 201 1024 l 1
 277 385 l 1
 494 949 l 1
 582 949 l 1
 799 385 l 1
 875 1024 l 1
 1026 1024 l 1
 904 -0 l 1
 865 0 824 0 785 0 c 1
 538 645 l 1
 291 -0 l 1
 172 -0 l 1
EndSplineSet
Validated: 3073
EndChar

StartChar: x
Encoding: 120 120 87
Width: 1075
VWidth: 1947
GlyphClass: 2
Flags: W
HStem: -0 21G<127 316.615 758.439 948> 1004 20G<127 316.615 758.439 949>
LayerCount: 2
Fore
SplineSet
127 -0 m 1
 449 512 l 1
 127 1024 l 1
 304 1024 l 1
 538 653 l 1
 771 1024 l 1
 949 1024 l 1
 626 512 l 1
 948 0 l 1
 889 0 830 0 771 -0 c 1
 538 371 l 1
 304 0 l 1
 245 0 186 0 127 -0 c 1
EndSplineSet
Validated: 3073
EndChar

StartChar: y
Encoding: 121 121 88
Width: 1075
VWidth: 1947
GlyphClass: 2
Flags: W
HStem: -369 150<276.183 467.575> 1004 20G<141 316.349 805.761 966>
VStem: 92 150<-182.547 -110>
LayerCount: 2
Fore
SplineSet
242 -110 m 1
 245 -170 320 -219 380 -219 c 0
 465 -219 511 -114 521 -88 c 1
 571 105 l 1
 141 1024 l 1
 307 1024 l 1
 630 333 l 1
 811 1024 l 1
 966 1024 l 1
 663 -132 l 1
 635 -208 547 -369 380 -369 c 0
 227 -369 92 -241 92 -110 c 1
 242 -110 l 1
EndSplineSet
Validated: 3073
EndChar

StartChar: z
Encoding: 122 122 89
Width: 1075
VWidth: 1947
GlyphClass: 2
Flags: W
HStem: 0 150<341 973> 874 150<167 747>
LayerCount: 2
Fore
SplineSet
106 102 m 1
 747 874 l 1
 167 874 l 1
 167 1024 l 1
 973 1024 l 1
 973 911 l 1
 341 150 l 1
 973 150 l 1
 973 0 l 1
 106 0 l 1
 106 102 l 1
EndSplineSet
Validated: 3073
EndChar

StartChar: braceleft
Encoding: 123 123 90
Width: 1075
VWidth: 1947
GlyphClass: 2
Flags: W
HStem: -155 150<559.984 817> 657 150<167 288.24> 1405 150<559.984 817>
VStem: 352 150<51.7552 589.496 856.006 1348.24>
LayerCount: 2
Fore
SplineSet
697 1405 m 2
 585 1405 502 1346 502 1242 c 2
 502 970 l 2
 502 883 464 788 390 726 c 1
 461 655 502 545 502 430 c 2
 502 158 l 2
 502 54 584 -5 697 -5 c 2
 817 -5 l 1
 817 -155 l 1
 697 -155 l 2
 500 -155 352 -30 352 158 c 2
 352 430 l 2
 352 531 300 657 197 657 c 2
 167 657 l 1
 167 807 l 1
 197 807 l 2
 303 807 352 899 352 970 c 2
 352 1242 l 2
 352 1430 500 1555 697 1555 c 2
 817 1555 l 1
 817 1405 l 1
 697 1405 l 2
EndSplineSet
Validated: 3073
EndChar

StartChar: bar
Encoding: 124 124 91
Width: 1075
VWidth: 1947
GlyphClass: 2
Flags: W
VStem: 463 150<-77 1477>
LayerCount: 2
Fore
SplineSet
463 1477 m 1
 613 1477 l 1
 613 -77 l 1
 463 -77 l 1
 463 1477 l 1
EndSplineSet
Validated: 3073
EndChar

StartChar: braceright
Encoding: 125 125 92
Width: 1075
VWidth: 1947
GlyphClass: 2
Flags: W
HStem: -155 150<167 424.016> 657 150<695.317 817> 1405 150<167 424.016>
VStem: 482 150<51.7552 589.496 856.006 1348.24>
LayerCount: 2
Fore
SplineSet
287 1555 m 2
 484 1555 632 1430 632 1242 c 2
 632 970 l 2
 632 899 681 807 787 807 c 2
 817 807 l 1
 817 657 l 1
 787 657 l 2
 683 657 632 531 632 430 c 2
 632 158 l 2
 632 -30 484 -155 287 -155 c 2
 167 -155 l 1
 167 -5 l 1
 287 -5 l 2
 400 -5 482 54 482 158 c 2
 482 430 l 2
 482 545 523 655 594 726 c 1
 520 788 482 883 482 970 c 2
 482 1242 l 2
 482 1346 399 1405 287 1405 c 2
 167 1405 l 1
 167 1555 l 1
 287 1555 l 2
EndSplineSet
Validated: 3073
EndChar

StartChar: asciitilde
Encoding: 126 126 93
Width: 1075
VWidth: 1947
GlyphClass: 2
Flags: W
HStem: 758 150<608.412 764.375> 902 150<308.812 489.52>
LayerCount: 2
Fore
SplineSet
394 1052 m 2x40
 409 1052 l 2x40
 438 1052 503 1041 560 993 c 2
 635 930 l 2
 648 919 670 908 677 908 c 2
 692 908 l 2
 738 908 769 937 790 1000 c 1
 932 954 l 1
 892 834 798 758 682 758 c 2
 667 758 l 2x80
 641 758 601 763 539 815 c 2
 464 879 l 2
 448 893 428 901 409 902 c 2
 394 902 l 2
 346 902 307 878 288 811 c 1
 144 853 l 1
 183 989 283 1052 394 1052 c 2x40
EndSplineSet
Validated: 3073
EndChar

StartChar: exclamdown
Encoding: 161 161 95
Width: 1075
VWidth: 1708
GlyphClass: 2
Flags: W
HStem: 1246 236<440.831 634.094>
VStem: 413 249<8.97778 420.176 1274.96 1452.69> 455 168<552.248 1011>
LayerCount: 2
Fore
SplineSet
662 1364 m 0xc0
 662 1294 602 1246 537 1246 c 0
 467 1246 413 1302 413 1364 c 0
 413 1432 473 1482 537 1482 c 0
 603 1482 662 1433 662 1364 c 0xc0
534 -34 m 0
 481 -34 427 18 427 114 c 1
 455 1011 l 1
 623 1011 l 1xa0
 651 115 l 1
 651 18 593 -34 534 -34 c 0
EndSplineSet
Validated: 3073
EndChar

StartChar: cent
Encoding: 162 162 96
Width: 1075
VWidth: 2334
GlyphClass: 2
Flags: W
HStem: -25 150<561 739.457> 898 150<388.577 568>
VStem: 140 150<245.311 789.015>
LayerCount: 2
Fore
SplineSet
568 898 m 1
 528 898 l 2
 338 898 290 741 290 597 c 2
 290 427 l 2
 290 307 337 207 414 158 c 1
 568 898 l 1
631 1197 m 1
 777 1167 l 1
 747 1020 l 1
 826 992 884 941 914 855 c 1
 772 805 l 1
 762 833 746 856 716 871 c 1
 561 125 l 1
 693 127 749 156 772 215 c 1
 912 161 l 1
 858 18 725 -25 548 -25 c 2
 529 -25 l 1
 508 -125 l 1
 362 -95 l 1
 382 5 l 1
 237 68 140 227 140 427 c 2
 140 597 l 2
 140 861 275 1048 528 1048 c 2
 548 1048 l 2
 566 1048 582 1048 599 1047 c 1
 631 1197 l 1
EndSplineSet
Validated: 3073
EndChar

StartChar: sterling
Encoding: 163 163 97
Width: 1075
VWidth: 1947
GlyphClass: 2
Flags: W
HStem: -25 150<609.891 900.084> 50 149<401.413 595.562> 656 150<86 233 478 837> 1275 150<360.219 703.916>
VStem: 140 150<929.031 1211.34> 349 150<328.389 653.563> 785 150<1066.24 1196.3>
LayerCount: 2
Fore
SplineSet
1009 63 m 1xbe
 975 32 916 -25 756 -25 c 2
 704 -25 l 2xbe
 658 -25 631 -15 605 0 c 2
 546 34 l 2
 527 45 491 50 449 50 c 0x7e
 361 50 243 28 183 -6 c 2
 146 -25 l 1xbe
 72 103 l 1
 109 124 l 2
 219 187 349 345 349 470 c 2
 349 516 l 2
 349 562 335 619 318 656 c 1
 86 656 l 1
 86 806 l 1
 233 806 l 1
 202 859 l 1
 174 910 140 970 140 1044 c 2
 140 1083 l 2
 140 1279 274 1425 528 1425 c 2
 548 1425 l 2
 677 1425 798 1376 870 1275 c 1
 920 1209 933 1099 935 1067 c 1
 785 1059 l 1
 783 1096 767 1162 748 1188 c 0
 709 1242 635 1275 548 1275 c 2
 528 1275 l 2
 411 1275 290 1237 290 1083 c 2
 290 1044 l 2
 290 1016 301 987 332 933 c 2
 406 806 l 1
 837 806 l 1
 837 656 l 1
 478 656 l 1
 493 604 499 552 499 516 c 2
 499 470 l 2
 499 377 459 282 401 199 c 1
 457 199 l 2x7e
 511 199 566 194 593 179 c 2
 675 133 l 2
 685 127 694 125 704 125 c 2
 756 125 l 2
 828 125 882 148 901 167 c 1
 1009 63 l 1xbe
EndSplineSet
Validated: 3073
EndChar

StartChar: euro
Encoding: 8364 8364 98
Width: 1075
VWidth: 1947
GlyphClass: 2
Flags: W
HStem: -25 150<512.635 796.734> 490 150<74 227 387 714> 832 150<109 227 390 864> 1275 150<500.703 800.559>
VStem: 227 150<325.513 490 640 832 982 1111.63>
LayerCount: 2
Fore
SplineSet
109 832 m 1
 109 982 l 1
 239 982 l 1
 271 1221 368 1425 634 1425 c 0
 848 1425 934 1321 965 1271 c 1
 837 1193 l 1
 800 1253 720 1275 634 1275 c 0
 505 1275 422 1199 390 982 c 1
 864 982 l 1
 864 832 l 1
 377 832 l 1
 377 640 l 1
 714 640 l 1
 714 490 l 1
 387 490 l 1
 416 238 499 125 634 125 c 0
 735 125 805 158 837 211 c 1
 965 133 l 1
 895 18 765 -25 634 -25 c 0
 355 -25 265 237 237 490 c 1
 74 490 l 1
 74 640 l 1
 227 640 l 1
 227 832 l 1
 109 832 l 1
EndSplineSet
Validated: 3073
EndChar

StartChar: yen
Encoding: 165 165 99
Width: 1075
VWidth: 1947
GlyphClass: 2
Flags: W
HStem: 48 150<109 463 613 967> 307 150<109 463 613 967> 1380 20G<119 287.622 788.378 957>
VStem: 463 150<-160 48 198 307 457 499>
LayerCount: 2
Fore
SplineSet
967 457 m 1
 967 307 l 1
 613 307 l 1
 613 198 l 1
 967 198 l 1
 967 48 l 1
 613 48 l 1
 613 -160 l 1
 463 -160 l 1
 463 48 l 1
 109 48 l 1
 109 198 l 1
 463 198 l 1
 463 307 l 1
 109 307 l 1
 109 457 l 1
 463 457 l 1
 463 499 l 1
 119 1400 l 1
 280 1400 l 1
 538 723 l 1
 796 1400 l 1
 957 1400 l 1
 613 499 l 1
 613 457 l 1
 967 457 l 1
EndSplineSet
Validated: 3073
EndChar

StartChar: section
Encoding: 167 167 101
Width: 1075
VWidth: 1947
GlyphClass: 2
Flags: W
HStem: -169 150<447.76 705.611> 340 150<385.057 691.739> 891 150<399.012 711.09> 1415 150<373.96 629.586>
VStem: 140 150<578.688 824.315 1137.1 1339.02> 785 150<57.6399 257.716 577.396 825.624>
LayerCount: 2
Fore
SplineSet
781 413 m 1
 935 308 935 215 935 172 c 2
 935 149 l 2
 935 -18 765 -169 580 -169 c 2
 561 -169 l 2
 412 -169 284 -56 233 48 c 1
 367 114 l 1
 400 47 484 -19 561 -19 c 2
 580 -19 l 2
 686 -19 785 70 785 149 c 2
 785 172 l 2
 785 262 640 340 547 340 c 2
 528 340 l 2
 329 340 140 496 140 677 c 2
 140 743 l 2
 140 846 202 926 288 977 c 1
 203 1039 140 1129 140 1224 c 2
 140 1247 l 2
 140 1416 320 1565 496 1565 c 2
 515 1565 l 2
 645 1565 778 1471 838 1355 c 1
 706 1285 l 1
 674 1347 591 1415 515 1415 c 2
 496 1415 l 2
 389 1415 290 1320 290 1247 c 2
 290 1224 l 2
 290 1146 424 1041 529 1041 c 2
 548 1041 l 2
 732 1041 935 932 935 743 c 2
 935 677 l 2
 935 572 872 476 781 413 c 1
548 891 m 2
 528 891 l 2
 384 891 290 811 290 743 c 2
 290 677 l 2
 290 586 406 490 528 490 c 2
 548 490 l 2
 662 490 785 579 785 677 c 2
 785 743 l 2
 785 825 671 891 548 891 c 2
EndSplineSet
Validated: 3073
EndChar

StartChar: copyright
Encoding: 169 169 103
Width: 1075
VWidth: 1947
GlyphClass: 2
Flags: W
HStem: 42 150<350.182 720.359> 289 150<423.366 676.851> 745 150<424.56 678.531> 992 150<352.239 725.504>
VStem: 5 150<396.078 787.075> 234 150<480.012 705.355> 921 150<399.043 791.792>
LayerCount: 2
Fore
SplineSet
1071 593 m 3
 1071 318 886 42 538 42 c 3
 195 42 5 309 5 593 c 3
 5 881 200 1142 538 1142 c 3
 876 1142 1071 887 1071 593 c 3
538 992 m 3
 286 992 155 801 155 593 c 3
 155 389 281 192 538 192 c 3
 796 192 921 394 921 593 c 3
 921 798 798 992 538 992 c 3
538 289 m 3
 348 289 234 427 234 592 c 3
 234 762 353 895 538 895 c 3
 672 895 739 830 761 807 c 1
 651 704 l 1
 621 735 578 745 538 745 c 3
 429 745 384 673 384 592 c 3
 384 513 428 439 538 439 c 3
 578 439 622 450 652 482 c 1
 762 380 l 1
 743 360 672 289 538 289 c 3
EndSplineSet
Validated: 3073
EndChar

StartChar: ordfeminine
Encoding: 170 170 104
Width: 1075
VWidth: 1947
GlyphClass: 2
Flags: W
HStem: 244 150<109 967> 518 150<382.732 658.094> 938 150<383.251 737> 1307 150<379.081 695.891>
VStem: 189 150<711.189 894.126> 737 150<536 586 747.016 938 1088 1263.9>
LayerCount: 2
Fore
SplineSet
189 823 m 2
 189 876 221 1070 529 1088 c 1
 737 1088 l 1
 737 1152 l 2
 737 1245 700 1307 547 1307 c 2
 529 1307 l 2
 424 1307 375 1277 354 1234 c 1
 220 1300 l 1
 268 1400 369 1457 529 1457 c 2
 547 1457 l 2
 774 1457 887 1338 887 1152 c 2
 887 536 l 1
 737 536 l 1
 737 586 l 1
 689 552 626 518 547 518 c 2
 529 518 l 2
 455 518 189 570 189 784 c 2
 189 823 l 2
547 668 m 2
 663 668 737 800 737 823 c 2
 737 938 l 1
 529 938 l 2
 471 938 339 909 339 823 c 2
 339 784 l 2
 339 733 408 668 529 668 c 2
 547 668 l 2
967 394 m 1
 967 244 l 1
 109 244 l 1
 109 394 l 1
 967 394 l 1
EndSplineSet
Validated: 3073
EndChar

StartChar: guillemotleft
Encoding: 171 171 105
Width: 1075
VWidth: 1947
GlyphClass: 2
Flags: W
LayerCount: 2
Fore
SplineSet
365 86 m 1
 174 404 l 1
 174 533 l 1
 365 852 l 1
 493 776 l 1
 324 491 l 1
 324 446 l 1
 493 162 l 1
 365 86 l 1
785 86 m 1
 594 404 l 1
 594 533 l 1
 785 852 l 1
 913 776 l 1
 744 491 l 1
 744 446 l 1
 913 162 l 1
 785 86 l 1
EndSplineSet
Validated: 3073
EndChar

StartChar: logicalnot
Encoding: 172 172 106
Width: 1075
VWidth: 1708
GlyphClass: 2
Flags: W
HStem: 525 150<127 742>
VStem: 742 150<214 525>
LayerCount: 2
Fore
SplineSet
127 675 m 1
 892 675 l 1
 892 214 l 1
 742 214 l 1
 742 525 l 1
 127 525 l 1
 127 675 l 1
EndSplineSet
Validated: 3073
EndChar

StartChar: softhyphen
Encoding: 173 173 107
Width: 1075
VWidth: 1947
GlyphClass: 2
Flags: W
HStem: 525 150<299 777>
VStem: 299 478<525 675>
LayerCount: 2
Fore
SplineSet
777 675 m 1
 777 525 l 1
 299 525 l 1
 299 675 l 1
 777 675 l 1
EndSplineSet
Validated: 3073
EndChar

StartChar: registered
Encoding: 174 174 108
Width: 1075
VWidth: 1947
GlyphClass: 2
Flags: W
HStem: 42 150<356.82 719.584> 497 150<476 530> 733 150<476 644.352> 992 150<352.215 727.052>
VStem: 5 150<401.633 788.667> 326 150<312 497 647 733> 645 150<650.892 727.928> 921 150<399.807 791.509>
LayerCount: 2
Fore
SplineSet
565 883 m 2
 780 883 795 782 795 715 c 2
 795 675 l 2
 795 599 755 546 692 519 c 1
 796 352 l 1
 668 273 l 1
 530 497 l 1
 476 497 l 1
 476 312 l 1
 326 312 l 1
 326 883 l 1
 565 883 l 2
645 705 m 2
 645 712 638 733 565 733 c 2
 476 733 l 1
 476 647 l 1
 565 647 l 2
 642 647 645 673 645 685 c 2
 645 705 l 2
1071 595 m 0
 1071 316 883 42 538 42 c 0
 194 42 5 311 5 595 c 0
 5 884 201 1142 538 1142 c 0
 884 1142 1071 881 1071 595 c 0
538 992 m 0
 285 992 155 802 155 595 c 0
 155 390 282 192 538 192 c 0
 795 192 921 396 921 595 c 0
 921 799 798 992 538 992 c 0
EndSplineSet
Validated: 3073
EndChar

StartChar: degree
Encoding: 176 176 110
Width: 1075
VWidth: 1947
GlyphClass: 2
Flags: W
HStem: 807 150<425.744 650.649> 1258 150<426.538 650.879>
VStem: 238 150<995.888 1220.36> 688 150<996.785 1220.19>
LayerCount: 2
Fore
SplineSet
538 1258 m 0
 432 1258 388 1186 388 1108 c 0
 388 1030 431 957 538 957 c 0
 646 957 688 1033 688 1108 c 0
 688 1172 658 1258 538 1258 c 0
838 1108 m 0
 838 946 726 807 538 807 c 0
 351 807 238 944 238 1108 c 0
 238 1275 354 1408 538 1408 c 0
 727 1408 838 1273 838 1108 c 0
EndSplineSet
Validated: 3073
EndChar

StartChar: plusminus
Encoding: 177 177 111
Width: 1075
VWidth: 1947
GlyphClass: 2
Flags: W
HStem: 33 150<127 949> 787 150<127 463 613 949>
VStem: 463 150<419 787 937 1273>
LayerCount: 2
Fore
SplineSet
949 937 m 1
 949 787 l 1
 613 787 l 1
 613 419 l 1
 463 419 l 1
 463 787 l 1
 127 787 l 1
 127 937 l 1
 463 937 l 1
 463 1273 l 1
 613 1273 l 1
 613 937 l 1
 949 937 l 1
949 183 m 1
 949 33 l 1
 127 33 l 1
 127 183 l 1
 949 183 l 1
EndSplineSet
Validated: 3073
EndChar

StartChar: twosuperior
Encoding: 178 178 112
Width: 1075
VWidth: 2334
GlyphClass: 2
Flags: W
HStem: 575 150<505 763> 1290 150<486.389 634.186>
VStem: 637 150<1087.64 1286.22>
LayerCount: 2
Fore
SplineSet
554 1440 m 2
 564 1440 l 2
 713 1440 787 1348 787 1217 c 2
 787 1195 l 2
 787 1158 771 1063 720 1005 c 2
 538 796 l 2
 526 781 517 758 505 725 c 1
 763 725 l 1
 763 575 l 1
 337 575 l 1
 337 692 l 1
 360 786 394 858 422 890 c 2
 604 1099 l 2
 630 1129 637 1185 637 1195 c 2
 637 1217 l 2
 637 1275 619 1290 564 1290 c 2
 554 1290 l 2
 514 1290 500 1275 480 1234 c 1
 342 1294 l 1
 379 1371 435 1440 554 1440 c 2
EndSplineSet
Validated: 3073
EndChar

StartChar: threesuperior
Encoding: 179 179 113
Width: 1075
VWidth: 2334
GlyphClass: 2
Flags: W
HStem: 557 150<454.132 623.792> 947 150<433 602.37> 1285 150<438.577 608.882>
VStem: 279 150<734.623 812> 617 150<1109.14 1278.25> 647 150<727.016 938.283>
LayerCount: 2
Fore
SplineSet
532 1285 m 2xf8
 490 1285 452 1266 434 1233 c 1
 297 1295 l 1
 314 1325 399 1435 532 1435 c 2
 544 1435 l 2
 678 1435 767 1335 767 1212 c 2
 767 1189 l 2xf8
 767 1161 762 1108 720 1048 c 1
 778 1003 797 932 797 856 c 2
 797 845 l 2
 797 672 696 557 544 557 c 2
 532 557 l 2
 415 557 279 667 279 812 c 1
 429 812 l 1
 429 756 491 707 532 707 c 2
 544 707 l 2
 615 707 647 761 647 845 c 2
 647 856 l 2xf4
 647 939 598 947 544 947 c 2
 433 947 l 1
 433 1097 l 1
 545 1097 l 2
 574 1097 617 1143 617 1189 c 2
 617 1212 l 2
 617 1252 595 1285 544 1285 c 2
 532 1285 l 2xf8
EndSplineSet
Validated: 3073
EndChar

StartChar: micro
Encoding: 181 181 115
Width: 1075
VWidth: 2334
GlyphClass: 2
Flags: W
HStem: -25 150<388.1 661.903> 1004 20G<140 290 785 935>
VStem: 140 150<-316.204 54 227.397 1024> 785 150<-11.5432 76 261.397 1024>
LayerCount: 2
Fore
SplineSet
785 76 m 1
 722 16 641 -25 548 -25 c 2
 528 -25 l 2
 431 -25 351 5 290 54 c 1
 290 -25 l 2
 290 -165 287 -246 238 -375 c 1
 98 -321 l 1
 137 -218 140 -160 140 -25 c 2
 140 1024 l 1
 290 1024 l 1
 290 397 l 2
 290 255 366 125 528 125 c 2
 548 125 l 2
 681 125 785 297 785 397 c 2
 785 1024 l 1
 935 1024 l 1
 935 99 l 2
 935 54 941 39 965 -14 c 1
 825 -66 l 1
 800 -17 788 16 785 76 c 1
EndSplineSet
Validated: 3073
EndChar

StartChar: paragraph
Encoding: 182 182 116
Width: 1075
VWidth: 1947
GlyphClass: 2
Flags: W
HStem: 0 21G<369 519 785 935> 1325 150<519 785>
VStem: 106 413<838.301 1310.52> 369 150<0 695.749> 785 150<0 1325>
LayerCount: 2
Fore
SplineSet
369 687 m 1xd8
 230 705 106 799 106 1057 c 2
 106 1127 l 2xe8
 106 1359 277 1475 424 1475 c 2
 935 1475 l 1
 935 0 l 1
 785 -0 l 1
 785 1325 l 1
 519 1325 l 1
 519 -0 l 1
 369 0 l 1
 369 687 l 1xd8
EndSplineSet
Validated: 3073
EndChar

StartChar: periodcentered
Encoding: 183 183 117
Width: 1075
VWidth: 1947
GlyphClass: 2
Flags: W
HStem: 602 290<432.5 642.375>
VStem: 391 293<642.794 850.843>
LayerCount: 2
Fore
SplineSet
684 747 m 0
 684 669 624 602 537 602 c 0
 453 602 391 669 391 747 c 0
 391 824 450 892 537 892 c 0
 622 892 684 825 684 747 c 0
EndSplineSet
Validated: 3073
EndChar

StartChar: onesuperior
Encoding: 185 185 119
Width: 1075
VWidth: 1708
GlyphClass: 2
Flags: W
HStem: 1405 20G<524.693 678>
VStem: 528 150<641 1229>
LayerCount: 2
Fore
SplineSet
678 1425 m 1
 678 641 l 1
 528 641 l 1
 528 1229 l 1
 419 1183 l 1
 370 1236 l 1
 543 1425 l 1
 678 1425 l 1
EndSplineSet
Validated: 3073
EndChar

StartChar: ordmasculine
Encoding: 186 186 120
Width: 1075
VWidth: 1947
GlyphClass: 2
Flags: W
HStem: 244 150<109 967> 523 150<408.351 667.649> 1310 150<415.117 660.883>
VStem: 179 150<762.915 1212.61> 747 150<762.915 1212.39>
LayerCount: 2
Fore
SplineSet
538 1310 m 3
 371 1310 329 1145 329 982 c 3
 329 747 413 673 538 673 c 3
 663 673 747 747 747 982 c 3
 747 1145 705 1310 538 1310 c 3
897 982 m 3
 897 668 753 523 538 523 c 3
 323 523 179 668 179 982 c 3
 179 1229 269 1460 538 1460 c 3
 807 1460 897 1228 897 982 c 3
967 394 m 1
 967 244 l 1
 109 244 l 1
 109 394 l 1
 967 394 l 1
EndSplineSet
Validated: 3073
EndChar

StartChar: guillemotright
Encoding: 187 187 121
Width: 1075
VWidth: 1947
GlyphClass: 2
Flags: W
LayerCount: 2
Fore
SplineSet
752 446 m 1
 752 491 l 1
 583 776 l 1
 711 852 l 1
 902 533 l 1
 902 404 l 1
 711 86 l 1
 583 162 l 1
 752 446 l 1
332 446 m 1
 332 491 l 1
 163 776 l 1
 291 852 l 1
 482 533 l 1
 482 404 l 1
 291 86 l 1
 163 162 l 1
 332 446 l 1
EndSplineSet
Validated: 3073
EndChar

StartChar: OE
Encoding: 338 338 122
Width: 1075
VWidth: 1947
GlyphClass: 2
Flags: W
HStem: 0 150<220.645 507.92 682 954> 657 150<682 876> 1250 150<218.447 509.756 682 954>
VStem: 47 150<172.979 1223.73> 532 150<177.571 657 807 1225.77>
LayerCount: 2
Fore
SplineSet
335 1250 m 2
 273 1250 197 1222 197 1156 c 2
 197 244 l 2
 197 225 213 150 335 150 c 2
 399 150 l 2
 448 150 525 180 532 244 c 1
 532 1156 l 2
 532 1189 495 1250 399 1250 c 2
 335 1250 l 2
335 0 m 2
 214 0 47 78 47 244 c 2
 47 1156 l 2
 47 1311 195 1400 335 1400 c 2
 399 1400 l 2
 423 1400 471 1399 532 1372 c 1
 532 1400 l 1
 954 1400 l 1
 954 1250 l 1
 682 1250 l 1
 682 807 l 1
 876 807 l 1
 876 657 l 1
 682 657 l 1
 682 150 l 1
 954 150 l 1
 954 0 l 1
 532 0 l 1
 532 30 l 1
 490 10 444 0 399 0 c 2
 335 0 l 2
EndSplineSet
Validated: 3073
EndChar

StartChar: oe
Encoding: 339 339 123
Width: 1075
VWidth: 1947
GlyphClass: 2
Flags: W
HStem: -25 150<228.338 439.449 644.178 864.711> 467 150<613 879> 899 150<211.711 431.822 636.551 847.662>
VStem: 47 150<160.091 881.939> 463 150<159.284 467 617 864.716> 879 150<142.505 219 617 863.909>
CounterMasks: 1 1c
LayerCount: 2
Fore
SplineSet
330 899 m 27
 266 899 204 889 197 805 c 1
 197 219 l 2
 197 181 266 125 330 125 c 27
 394 125 456 159 463 219 c 1
 463 805 l 2
 463 838 394 899 330 899 c 27
746 125 m 27
 810 125 874 137 879 219 c 1
 1029 219 l 1
 1028 205 1032 151 985 85 c 1
 930 10 849 -25 746 -25 c 27
 659 -25 615 -21 537 54 c 1
 482 3 416 -25 330 -25 c 27
 184 -25 47 121 47 219 c 2
 47 805 l 1
 51 850 53 888 91 939 c 0
 146 1014 227 1049 330 1049 c 27
 417 1049 461 1045 539 970 c 1
 594 1021 660 1049 746 1049 c 27
 892 1049 1029 903 1029 805 c 2
 1029 467 l 1
 613 467 l 1
 613 219 l 2
 613 186 682 125 746 125 c 27
746 899 m 27
 682 899 620 865 613 805 c 1
 613 617 l 1
 879 617 l 1
 879 805 l 2
 879 843 810 899 746 899 c 27
EndSplineSet
Validated: 3073
EndChar

StartChar: AE
Encoding: 198 198 132
Width: 1075
VWidth: 1947
GlyphClass: 2
Flags: W
HStem: 0 150<682 954> 689 150<331 532 682 895> 1250 150<411.118 532 682 954>
VStem: 532 150<150 689 839 1250>
LayerCount: 2
Fore
SplineSet
532 839 m 1
 532 1250 l 1
 466 1248 397 1223 385 1155 c 2
 331 839 l 1
 532 839 l 1
34 -0 m 1
 237 1181 l 2
 260 1317 381 1400 539 1400 c 2
 954 1400 l 1
 954 1250 l 1
 682 1250 l 1
 682 839 l 1
 895 839 l 1
 895 689 l 1
 682 689 l 1
 682 150 l 1
 954 150 l 1
 954 0 l 1
 532 0 l 1
 532 689 l 1
 305 689 l 1
 187 0 l 1
 136 0 85 0 34 -0 c 1
EndSplineSet
Validated: 3073
EndChar

StartChar: Eth
Encoding: 208 208 142
Width: 1075
VWidth: 1947
GlyphClass: 2
Flags: W
HStem: 0 150<337 658.646> 681 150<54 187 337 528> 1250 150<337 672.153>
VStem: 187 150<150 681 831 1250> 797 150<342.968 1098.03>
LayerCount: 2
Fore
SplineSet
538 1250 m 2
 337 1250 l 1
 337 831 l 1
 528 831 l 1
 528 681 l 1
 337 681 l 1
 337 150 l 1
 538 150 l 2
 705 150 797 309 797 732 c 0
 797 1142 710 1250 538 1250 c 2
947 732 m 0
 947 414 897 0 538 0 c 2
 187 0 l 1
 187 681 l 1
 54 681 l 1
 54 831 l 1
 187 831 l 1
 187 1400 l 1
 538 1400 l 2
 898 1400 947 1060 947 732 c 0
EndSplineSet
Validated: 3073
EndChar

StartChar: multiply
Encoding: 215 215 149
Width: 1075
VWidth: 1708
GlyphClass: 2
Flags: W
LayerCount: 2
Fore
SplineSet
775 975 m 1
 883 871 l 1
 641 616 l 1
 883 361 l 1
 775 257 l 1
 538 507 l 1
 301 257 l 1
 193 361 l 1
 435 616 l 1
 193 871 l 1
 301 975 l 1
 538 725 l 1
 775 975 l 1
EndSplineSet
Validated: 3073
EndChar

StartChar: Thorn
Encoding: 222 222 156
Width: 1075
VWidth: 1947
GlyphClass: 2
Flags: W
HStem: 0 21G<140 290> 370 150<290 708.766> 1155 150<290 735.125>
VStem: 140 150<0 370 520 1155 1305 1540> 785 150<599.078 1100.43>
LayerCount: 2
Fore
SplineSet
290 -0 m 1
 140 0 l 1
 140 1540 l 1
 290 1540 l 1
 290 1305 l 1
 548 1305 l 2
 750 1305 935 1238 935 970 c 2
 935 747 l 2
 935 536 809 370 548 370 c 2
 290 370 l 1
 290 -0 l 1
548 520 m 2
 703 520 785 596 785 747 c 2
 785 970 l 2
 785 1092 740 1155 548 1155 c 2
 290 1155 l 1
 290 520 l 1
 548 520 l 2
EndSplineSet
Validated: 3073
EndChar

StartChar: germandbls
Encoding: 223 223 157
Width: 1075
VWidth: 1947
GlyphClass: 2
Flags: W
HStem: -25 150<485.455 724.665> 712 150<470 687.16> 1275 150<341.559 668.974>
VStem: 140 150<-388 1222.94> 728 150<902.125 1214.48> 785 150<184.672 635.161>
LayerCount: 2
Fore
SplineSet
140 1096 m 2xf8
 140 1293 251 1425 528 1425 c 2
 548 1425 l 2
 749 1425 878 1288 878 1063 c 2
 878 1024 l 2xf8
 878 915 846 842 791 794 c 1
 889 725 935 610 935 485 c 2
 935 337 l 2
 935 110 793 -25 600 -25 c 2
 591 -25 l 2
 515 -25 451 -11 390 39 c 1
 484 155 l 1
 515 129 548 125 591 125 c 2
 600 125 l 2
 719 125 785 203 785 337 c 2
 785 485 l 2xf4
 785 597 738 712 548 712 c 2
 470 712 l 1
 470 862 l 1
 491 862 l 2
 693 862 728 915 728 1024 c 2
 728 1063 l 2
 728 1168 692 1275 548 1275 c 2
 528 1275 l 2
 330 1275 290 1203 290 1096 c 2
 290 -388 l 1
 140 -388 l 1
 140 1096 l 2xf8
EndSplineSet
Validated: 3073
EndChar

StartChar: ae
Encoding: 230 230 164
Width: 1075
VWidth: 1947
GlyphClass: 2
Flags: W
HStem: -25 150<218.315 428.056 650.109 857.812> 467 150<225.3 463 613 879> 899 150<217.797 446.632 631.215 862.904>
VStem: 47 150<151.716 438.644 805 874.172> 463 150<162.75 467 617 875.088> 879 150<146.618 229 617 879.319>
CounterMasks: 1 1c
LayerCount: 2
Fore
SplineSet
746 125 m 27
 812 125 874 147 879 229 c 1
 1029 229 l 1
 1029 214 1026 143 985 85 c 1
 930 10 849 -25 746 -25 c 27
 659 -25 615 -20 537 54 c 1
 456 -22 357 -25 332 -25 c 3
 173 -25 47 84 47 229 c 2
 47 358 l 2
 47 497 166 617 335 617 c 2
 463 617 l 1
 463 805 l 2
 463 878 387 899 320 899 c 3
 252 899 197 855 197 805 c 1
 47 805 l 1
 47 903 152 1049 320 1049 c 3
 411 1049 484 1020 539 969 c 1
 594 1020 666 1049 756 1049 c 3
 934 1049 1029 903 1029 805 c 2
 1029 467 l 1
 613 467 l 1
 613 229 l 2
 613 196 680 125 746 125 c 27
756 899 m 3
 692 899 613 874 613 805 c 2
 613 617 l 1
 879 617 l 1
 879 805 l 2
 879 883 804 899 756 899 c 3
330 125 m 27
 396 125 463 191 463 229 c 2
 463 467 l 1
 335 467 l 2
 260 467 197 423 197 358 c 2
 197 229 l 2
 197 155 264 125 330 125 c 27
EndSplineSet
Validated: 3073
EndChar

StartChar: eth
Encoding: 240 240 174
Width: 1075
VWidth: 1947
GlyphClass: 2
Flags: W
HStem: -25 150<400.959 686.929> 774 150<396.316 681.921> 1028 21G<234.958 298> 1390 20G<811.689 875.042>
VStem: 140 150<245.844 662.16> 785 150<233.951 656.459>
LayerCount: 2
Fore
SplineSet
528 924 m 2
 548 924 l 2
 605 924 658 913 705 892 c 1
 662 973 603 1056 536 1133 c 1
 242 1028 l 1
 192 1170 l 1
 422 1251 l 1
 375 1295 326 1335 276 1371 c 1
 364 1493 l 1
 431 1445 505 1381 578 1307 c 1
 868 1410 l 1
 918 1268 l 1
 687 1186 l 1
 826 1016 935 814 935 620 c 2
 935 427 l 2
 935 161 800 -25 548 -25 c 2
 528 -25 l 2
 307 -25 140 165 140 427 c 2
 140 457 l 2
 140 746 295 924 528 924 c 2
290 457 m 2
 290 427 l 2
 290 240 398 125 528 125 c 2
 548 125 l 2
 738 125 785 280 785 427 c 2
 785 457 l 2
 785 598 738 774 548 774 c 2
 528 774 l 2
 338 774 290 597 290 457 c 2
EndSplineSet
Validated: 3073
EndChar

StartChar: divide
Encoding: 247 247 181
Width: 1075
VWidth: 1947
GlyphClass: 2
Flags: W
HStem: 132 219<462.252 632.744> 525 150<127 949> 850 220<460.905 632.421>
VStem: 436 220<157.621 326.414 874.426 1045.57>
LayerCount: 2
Fore
SplineSet
949 675 m 1
 949 525 l 1
 127 525 l 1
 127 675 l 1
 949 675 l 1
656 960 m 0
 656 908 611 850 548 850 c 0
 479 850 436 913 436 960 c 0
 436 1007 479 1070 548 1070 c 0
 611 1070 656 1012 656 960 c 0
656 243 m 0
 656 188 612 132 548 132 c 0
 485 132 436 191 436 243 c 0
 436 292 483 351 548 351 c 0
 613 351 656 292 656 243 c 0
EndSplineSet
Validated: 3073
EndChar

StartChar: oslash
Encoding: 248 248 182
Width: 1075
VWidth: 1947
GlyphClass: 2
Flags: W
HStem: -25 150<399.459 689.952> 898 150<381.036 684.322>
VStem: 129 150<289.678 782.26> 797 150<251.204 720.301>
LayerCount: 2
Fore
SplineSet
848 1104 m 1
 972 1020 l 1
 874 872 l 1
 923 788 947 681 947 562 c 2
 947 470 l 2
 947 187 821 -25 555 -25 c 2
 515 -25 l 2
 435 -25 368 -5 314 30 c 1
 234 -90 l 1
 110 -6 l 1
 208 142 l 1
 154 230 129 345 129 471 c 2
 129 561 l 2
 129 830 250 1048 513 1048 c 2
 558 1048 l 2
 643 1048 713 1026 770 987 c 1
 848 1104 l 1
558 898 m 2
 513 898 l 2
 326 898 279 718 279 561 c 2
 279 471 l 2
 279 409 286 344 305 287 c 1
 686 861 l 1
 653 884 611 898 558 898 c 2
776 725 m 1
 398 157 l 1
 429 137 468 125 515 125 c 2
 555 125 l 2
 749 125 797 303 797 470 c 2
 797 562 l 2
 797 616 791 674 776 725 c 1
EndSplineSet
Validated: 3073
EndChar

StartChar: thorn
Encoding: 254 254 188
Width: 1075
VWidth: 1947
GlyphClass: 2
Flags: W
HStem: -385 21G<140 290> -25 150<383.192 681.306> 898 150<367.876 681.306> 1380 20G<140 290>
VStem: 140 150<-385 52 221.805 822.974 983 1400> 797 150<260.148 763.906>
LayerCount: 2
Fore
SplineSet
947 513 m 0
 947 56 702 -25 538 -25 c 0
 440 -25 356 3 290 52 c 1
 290 -385 l 1
 140 -385 l 1
 140 1400 l 1
 290 1400 l 1
 290 983 l 1
 355 1025 440 1048 538 1048 c 0
 702 1048 947 967 947 513 c 0
290 374 m 2
 290 229 376 125 538 125 c 0
 693 125 797 225 797 513 c 0
 797 798 693 898 538 898 c 0
 416 898 290 855 290 685 c 2
 290 374 l 2
EndSplineSet
Validated: 3073
EndChar

StartChar: minus
Encoding: 8722 8722 190
Width: 1075
VWidth: 1708
GlyphClass: 2
Flags: W
HStem: 525 150<50 1025>
LayerCount: 2
Fore
SplineSet
1025 675 m 1
 1025 525 l 1
 50 525 l 1
 50 675 l 1
 1025 675 l 1
EndSplineSet
Validated: 3073
EndChar

StartChar: gravemodifier
Encoding: 715 715 193
Width: 1075
VWidth: 2334
GlyphClass: 2
Flags: MW
HStem: 1319 407
VStem: 369 398
DStem2: 510 1726 369 1591 0.68678 -0.726865<1.29072 374.21>
LayerCount: 2
Fore
SplineSet
767 1454 m 5
 626 1319 l 5
 369 1591 l 5
 510 1726 l 5
 767 1454 l 5
EndSplineSet
Validated: 3073
EndChar

StartChar: acute
Encoding: 180 180 194
Width: 1075
VWidth: 1947
GlyphClass: 2
Flags: MW
HStem: 1189 477
VStem: 330 417
DStem2: 330 1303 488 1189 0.580814 0.814036<0 444.894>
LayerCount: 2
Fore
SplineSet
488 1189 m 5
 330 1303 l 5
 589 1666 l 5
 747 1552 l 5
 488 1189 l 5
EndSplineSet
Validated: 3073
EndChar

StartChar: circumflex
Encoding: 710 710 195
Width: 1075
VWidth: 1947
GlyphClass: 2
Flags: W
HStem: 1400 238
VStem: 295 486
LayerCount: 2
Fore
SplineSet
614 1638 m 1
 781 1521 l 1
 695 1400 l 1
 538 1508 l 1
 381 1400 l 1
 295 1521 l 1
 462 1638 l 1
 614 1638 l 1
EndSplineSet
Validated: 3073
EndChar

StartChar: tilde
Encoding: 732 732 196
Width: 1075
VWidth: 1947
GlyphClass: 2
Flags: W
HStem: 1447 150<567.493 732.216> 1537 150<347.107 510.134>
VStem: 199 680
LayerCount: 2
Fore
SplineSet
218 1572 m 2x60
 261 1628 325 1687 411 1687 c 2
 427 1687 l 2x60
 465 1687 522 1680 578 1632 c 2
 597 1615 l 2
 612 1601 633 1597 648 1597 c 2
 665 1597 l 2
 701 1597 710 1607 739 1650 c 2
 755 1674 l 1
 879 1590 l 1
 863 1566 l 2
 795 1464 751 1447 665 1447 c 2
 648 1447 l 2xa0
 610 1447 553 1456 497 1503 c 2
 478 1519 l 2
 464 1531 447 1537 427 1537 c 2
 411 1537 l 2
 387 1537 366 1521 338 1483 c 2
 319 1457 l 1
 199 1547 l 1
 218 1572 l 2x60
EndSplineSet
Validated: 3073
EndChar

StartChar: macronmodifier
Encoding: 713 713 197
Width: 1075
VWidth: 1947
GlyphClass: 2
Flags: W
HStem: 1463 150<311 764>
VStem: 311 453<1463 1613>
LayerCount: 2
Fore
SplineSet
311 1463 m 1
 311 1613 l 1
 764 1613 l 1
 764 1463 l 1
 311 1463 l 1
EndSplineSet
Validated: 3073
EndChar

StartChar: breve
Encoding: 728 728 198
Width: 1075
VWidth: 1947
GlyphClass: 2
Flags: W
HStem: 1405 150<406.427 667.101>
VStem: 248 579
LayerCount: 2
Fore
SplineSet
536 1405 m 0
 421 1405 318 1460 248 1544 c 1
 363 1640 l 1
 430 1559 510 1555 536 1555 c 0
 607 1555 669 1589 713 1641 c 1
 827 1544 l 1
 755 1460 652 1405 536 1405 c 0
EndSplineSet
Validated: 3073
EndChar

StartChar: dotaccent
Encoding: 729 729 199
Width: 1075
VWidth: 1947
GlyphClass: 2
Flags: W
HStem: 1390 234<441.453 625.78>
VStem: 417 234<1416.59 1597.41>
LayerCount: 2
Fore
SplineSet
417 1507 m 27
 417 1572 468 1624 533 1624 c 27
 598 1624 651 1572 651 1507 c 27
 651 1442 598 1390 533 1390 c 27
 468 1390 417 1442 417 1507 c 27
EndSplineSet
Validated: 3073
EndChar

StartChar: dieresis
Encoding: 168 168 200
Width: 1075
VWidth: 1947
GlyphClass: 2
Flags: W
HStem: 1409 228<233.461 406.232 670.311 841.229>
VStem: 209 223<1434.3 1613> 646 219<1433.69 1613.7>
LayerCount: 2
Fore
SplineSet
432 1524 m 0
 432 1463 381 1409 321 1409 c 0
 261 1409 209 1459 209 1524 c 0
 209 1592 264 1637 320 1637 c 0
 384 1637 432 1584 432 1524 c 0
865 1524 m 0
 865 1457 812 1409 756 1409 c 0
 698 1409 646 1461 646 1524 c 0
 646 1589 698 1637 756 1637 c 0
 809 1637 865 1592 865 1524 c 0
EndSplineSet
Validated: 3073
EndChar

StartChar: ring
Encoding: 730 730 202
Width: 1075
VWidth: 1947
GlyphClass: 2
Flags: W
HStem: 1223 110<452.515 607.788> 1517 110<452.515 607.788>
VStem: 328 110<1346.23 1503.77> 622 110<1348.51 1501.49>
LayerCount: 2
Fore
SplineSet
328 1425 m 27
 328 1537 416 1627 528 1627 c 27
 640 1627 732 1537 732 1425 c 27
 732 1313 640 1223 528 1223 c 27
 416 1223 328 1313 328 1425 c 27
438 1425 m 27
 438 1374 478 1333 529 1333 c 27
 580 1333 622 1374 622 1425 c 27
 622 1476 580 1517 529 1517 c 27
 478 1517 438 1476 438 1425 c 27
EndSplineSet
Validated: 3073
EndChar

StartChar: cedilla
Encoding: 184 184 203
Width: 1075
VWidth: 1947
GlyphClass: 2
Flags: W
HStem: -486 150<444.786 683.538> -207 225<500 644.375>
VStem: 500 150<-73.8119 18> 689 150<-322.453 -219.009>
LayerCount: 2
Fore
SplineSet
689 -270 m 27
 689 -216 611 -207 566 -207 c 2
 486 -207 l 1
 500 3 l 1
 500 18 l 1
 650 18 l 1
 650 -3 l 1
 646 -63 l 1
 825 -95 839 -199 839 -270 c 3
 839 -443 654 -486 578 -486 c 3
 478 -486 395 -449 328 -391 c 1
 426 -277 l 1
 465 -311 514 -336 578 -336 c 3
 615 -336 689 -320 689 -270 c 27
EndSplineSet
Validated: 3073
EndChar

StartChar: ogonek
Encoding: 731 731 204
Width: 1075
VWidth: 1947
GlyphClass: 2
Flags: W
HStem: -420 150<521.42 667.789>
VStem: 370 150<-267.794 -148.901>
LayerCount: 2
Fore
SplineSet
706 -371 m 1
 671 -400 624 -420 573 -420 c 0
 460 -420 370 -327 370 -216 c 0
 370 -161 392 -111 427 -74 c 1
 532 31 l 1
 532 72 l 1
 682 72 l 1
 682 -31 l 1
 535 -178 l 2
 526 -188 520 -200 520 -216 c 0
 520 -246 545 -270 573 -270 c 0
 586 -270 597 -266 608 -257 c 2
 635 -234 l 1
 733 -347 l 1
 706 -371 l 1
EndSplineSet
Validated: 3073
EndChar

StartChar: caron
Encoding: 711 711 205
Width: 1075
VWidth: 1947
GlyphClass: 2
Flags: W
HStem: 1422 239
VStem: 295 486
LayerCount: 2
Fore
SplineSet
538 1552 m 1
 695 1661 l 1
 781 1539 l 1
 614 1422 l 1
 462 1422 l 1
 295 1539 l 1
 381 1661 l 1
 538 1552 l 1
EndSplineSet
Validated: 3073
EndChar

StartChar: dotlessi
Encoding: 305 305 206
Width: 1075
VWidth: 1947
GlyphClass: 2
Flags: W
HStem: 0 150<215 463 613 860> 874 150<215 463>
VStem: 463 150<150 874>
LayerCount: 2
Fore
SplineSet
215 1024 m 1
 613 1024 l 1
 613 150 l 1
 860 150 l 1
 860 0 l 1
 215 0 l 1
 215 150 l 1
 463 150 l 1
 463 874 l 1
 215 874 l 1
 215 1024 l 1
EndSplineSet
Validated: 3073
EndChar

StartChar: currency
Encoding: 164 164 210
Width: 1075
VWidth: 1947
GlyphClass: 2
Flags: W
HStem: 416 150<412.07 664.766> 1003 150<414.436 661.564>
VStem: 173 150<652.861 911.968> 753 150<652.178 911.968>
LayerCount: 2
Fore
SplineSet
547 1003 m 2
 529 1003 l 2
 426 1003 323 891 323 798 c 2
 323 770 l 2
 323 668 428 566 529 566 c 2
 547 566 l 2
 648 566 753 666 753 770 c 2
 753 798 l 2
 753 891 650 1003 547 1003 c 2
903 798 m 2
 903 770 l 2
 903 705 882 642 847 588 c 1
 985 430 l 1
 871 331 l 1
 742 480 l 1
 684 440 616 416 547 416 c 2
 529 416 l 2
 460 416 392 440 334 480 c 1
 205 331 l 1
 91 430 l 1
 229 589 l 1
 194 643 173 705 173 770 c 2
 173 798 l 2
 173 860 194 922 229 976 c 1
 91 1134 l 1
 205 1233 l 1
 333 1085 l 1
 391 1126 458 1153 529 1153 c 2
 547 1153 l 2
 618 1153 685 1126 743 1085 c 1
 871 1233 l 1
 985 1134 l 1
 847 976 l 1
 882 922 903 860 903 798 c 2
EndSplineSet
Validated: 3073
EndChar

StartChar: brokenbar
Encoding: 166 166 211
Width: 1075
VWidth: 1947
GlyphClass: 2
Flags: W
VStem: 463 150<-77 600 832 1477>
LayerCount: 2
Fore
SplineSet
463 1477 m 1
 613 1477 l 1
 613 832 l 1
 463 832 l 1
 463 1477 l 1
463 600 m 1
 613 600 l 1
 613 -77 l 1
 463 -77 l 1
 463 600 l 1
EndSplineSet
Validated: 3073
EndChar

StartChar: onequarter
Encoding: 188 188 212
Width: 1075
VWidth: 1708
GlyphClass: 2
Flags: W
HStem: -34 150<721 828 978 1014>
VStem: 180 150<803 1373> 828 150<-209 -34 116 277>
LayerCount: 2
Fore
SplineSet
556 139 m 5
 846 575 l 5
 978 575 l 5
 978 116 l 5
 1014 116 l 5
 1014 -34 l 5
 978 -34 l 5
 978 -209 l 5
 828 -209 l 5
 828 -34 l 5
 556 -34 l 5
 556 139 l 5
791 1455 m 5
 929 1395 l 5
 284 -55 l 5
 146 5 l 5
 791 1455 l 5
828 277 m 5
 721 116 l 5
 828 116 l 5
 828 277 l 5
330 1555 m 1
 330 803 l 1
 180 803 l 1
 180 1373 l 1
 61 1303 l 1
 9 1351 l 5
 194 1555 l 1
 330 1555 l 1
EndSplineSet
Validated: 3073
EndChar

StartChar: onehalf
Encoding: 189 189 213
Width: 1075
VWidth: 1708
GlyphClass: 2
Flags: W
HStem: -285 150<726 1026> 398 150<694.594 883.55>
VStem: 180 150<803 1373> 892 150<206.677 388.335>
LayerCount: 2
Fore
SplineSet
791 1455 m 1
 929 1395 l 1
 284 -55 l 1
 146 5 l 1
 791 1455 l 1
330 1555 m 1
 330 803 l 1
 180 803 l 1
 180 1373 l 1
 61 1303 l 1
 9 1351 l 1
 194 1555 l 1
 330 1555 l 1
552 406 m 1
 576 456 638 548 784 548 c 2
 796 548 l 2
 989 548 1042 427 1042 325 c 2
 1042 303 l 2
 1042 243 1008 153 964 109 c 2
 752 -102 l 2
 744 -110 735 -120 726 -135 c 1
 1026 -135 l 1
 1026 -285 l 1
 544 -285 l 1
 544 -177 l 1
 582 -67 617 -25 646 4 c 2
 854 211 l 2
 880 237 892 289 892 303 c 2
 892 325 l 2
 892 371 860 398 796 398 c 2
 784 398 l 2
 725 398 709 383 686 338 c 1
 552 406 l 1
EndSplineSet
Validated: 3073
EndChar

StartChar: threequarters
Encoding: 190 190 214
Width: 1075
VWidth: 1708
GlyphClass: 2
Flags: W
HStem: -34 150<721 828 978 1014> 789 150<178.705 388.32> 1180 150<175 366.256> 1365 25<516.588 519> 1400 21G<129.5 185> 1454 150<181.053 364.379>
VStem: 17 150<958.208 1006> 400 150<951.57 1168.28> 828 150<-209 -34 116 277>
LayerCount: 2
Fore
SplineSet
828 277 m 1
 721 116 l 1
 828 116 l 1
 828 277 l 1
791 1454 m 1
 929 1395 l 1
 284 -55 l 1
 146 5 l 1
 791 1454 l 1
556 139 m 1
 846 575 l 1
 978 575 l 1
 978 116 l 1
 1014 116 l 1
 1014 -34 l 1
 978 -34 l 1
 978 -209 l 1
 828 -209 l 1
 828 -34 l 1
 556 -34 l 1
 556 139 l 1
278 1454 m 2
 247 1454 198 1443 172 1400 c 1
 36 1464 l 1
 49 1492 55 1502 83 1529 c 0
 139 1582 215 1604 278 1604 c 2
 290 1604 l 2
 316 1604 391 1604 458 1529 c 0
 492 1490 513 1441 518 1390 c 1
 519 1390 l 1
 519 1365 l 1
 518 1365 l 1
 514 1327 499 1293 477 1265 c 1
 518 1226 550 1164 550 1065 c 2
 550 1054 l 2
 550 999 545 870 410 812 c 0
 373 796 333 789 290 789 c 2
 278 789 l 2
 110 789 17 919 17 1006 c 1
 167 1006 l 1
 167 979 215 939 278 939 c 2
 290 939 l 2
 399 939 400 1006 400 1054 c 2
 400 1065 l 2
 400 1179 336 1180 290 1180 c 2
 175 1180 l 1
 175 1330 l 1
 291 1330 l 2
 338 1330 368 1351 368 1389 c 27
 368 1429 348 1448 290 1454 c 2
 278 1454 l 2
EndSplineSet
Validated: 3073
EndChar

StartChar: Lslash
Encoding: 321 321 216
Width: 1075
VWidth: 1947
GlyphClass: 2
Flags: W
HStem: 0 151<290 967> 1380 20G<140 290>
VStem: 140 150<151 461 665 1400>
LayerCount: 2
Fore
SplineSet
290 151 m 1
 967 151 l 1
 967 0 l 1
 140 0 l 1
 140 461 l 1
 73 440 l 1
 29 584 l 1
 140 618 l 1
 140 1400 l 1
 290 1400 l 1
 290 665 l 1
 725 802 l 1
 769 658 l 1
 290 508 l 1
 290 151 l 1
EndSplineSet
Validated: 3073
EndChar

StartChar: lslash
Encoding: 322 322 257
Width: 1075
VWidth: 1947
GlyphClass: 2
Flags: W
HStem: 0 150<215 463 613 860> 1250 150<215 463>
VStem: 463 150<150 519 723 1250>
LayerCount: 2
Fore
SplineSet
864 802 m 1
 908 658 l 1
 613 566 l 1
 613 150 l 1
 860 150 l 1
 860 0 l 1
 215 0 l 1
 215 150 l 1
 463 150 l 1
 463 519 l 1
 212 440 l 1
 168 584 l 1
 463 676 l 1
 463 1250 l 1
 215 1250 l 1
 215 1400 l 1
 613 1400 l 1
 613 723 l 1
 864 802 l 1
EndSplineSet
Validated: 3073
EndChar

StartChar: dotlessj
Encoding: 567 567 260
Width: 1075
VWidth: 1947
GlyphClass: 2
Flags: W
HStem: -369 150<449.841 671.152> 874 150<314 693>
VStem: 268 150<-187.375 -110> 693 150<-190.923 874>
LayerCount: 2
Fore
SplineSet
555 -219 m 0
 628 -219 693 -188 693 -109 c 2
 693 874 l 1
 314 874 l 1
 314 1024 l 1
 843 1024 l 1
 843 -109 l 2
 843 -265 721 -369 555 -369 c 0
 403 -369 268 -254 268 -110 c 1
 418 -110 l 1
 418 -159 473 -219 555 -219 c 0
EndSplineSet
Validated: 3073
EndChar

StartChar: eng
Encoding: 331 331 261
Width: 1075
VWidth: 2334
GlyphClass: 2
Flags: W
HStem: -369 150<442.533 724.464> 0 21G<140 290> 899 150<420.286 733.988> 1004 20G<140 290>
VStem: 140 150<0 744.065 938 1024> 785 150<-157.641 846.493>
LayerCount: 2
Fore
SplineSet
290 -0 m 1xec
 140 0 l 1
 140 1024 l 1
 290 1024 l 1xdc
 290 938 l 1
 353 1004 434 1049 528 1049 c 2
 548 1049 l 2
 825 1049 935 917 935 719 c 2
 935 -28 l 2
 935 -209 812 -369 613 -369 c 2
 554 -369 l 2
 476 -369 391 -343 332 -279 c 1
 442 -177 l 1
 453 -189 487 -219 554 -219 c 2
 613 -219 l 2
 723 -219 785 -132 785 -28 c 2
 785 719 l 2
 785 827 746 899 548 899 c 2
 528 899 l 2
 398 899 290 700 290 597 c 2
 290 -0 l 1xec
EndSplineSet
Validated: 3073
EndChar

StartChar: ellipsis
Encoding: 8230 8230 266
Width: 1075
VWidth: 1947
GlyphClass: 2
Flags: W
HStem: 32 161<114.765 249.235 470.734 605.003 825.966 961.003>
VStem: 106 152<39.5804 185.127> 462 152<39.5804 184.739> 817 153<39.5804 184.739>
LayerCount: 2
Fore
SplineSet
970 113 m 0
 970 71 937 32 893 32 c 0
 851 32 817 70 817 113 c 0
 817 155 850 193 893 193 c 0
 938 193 970 152 970 113 c 0
258 113 m 0
 258 71 226 32 182 32 c 0
 139 32 106 70 106 113 c 0
 106 155 138 193 182 193 c 0
 226 193 258 152 258 113 c 0
614 113 m 0
 614 71 581 32 537 32 c 0
 495 32 462 70 462 113 c 0
 462 155 494 193 537 193 c 0
 582 193 614 152 614 113 c 0
EndSplineSet
Validated: 3073
EndChar

StartChar: uparrow
Encoding: 8593 8593 267
Width: 1075
VWidth: 1708
GlyphClass: 2
Flags: W
HStem: 1024 20G<458.598 617.402>
VStem: 458 160<177 794>
LayerCount: 2
Fore
SplineSet
618 177 m 1
 458 177 l 1
 458 794 l 1
 235 564 l 1
 121 676 l 1
 478 1044 l 1
 598 1044 l 1
 955 676 l 1
 841 564 l 1
 618 794 l 1
 618 177 l 1
EndSplineSet
Validated: 3073
EndChar

StartChar: downarrow
Encoding: 8595 8595 268
Width: 1075
VWidth: 1708
GlyphClass: 2
Flags: W
VStem: 458 160<387 991>
LayerCount: 2
Fore
SplineSet
458 991 m 1
 618 991 l 1
 618 387 l 1
 838 633 l 1
 958 527 l 1
 598 124 l 1
 478 124 l 1
 118 527 l 1
 238 633 l 1
 458 387 l 1
 458 991 l 1
EndSplineSet
Validated: 3073
EndChar

StartChar: spaceopenbox
Encoding: 9251 9251 269
Width: 1075
VWidth: 1708
GlyphClass: 2
Flags: W
HStem: -167 291<107 257 742 892> -167 150<257 742>
VStem: 107 150<-17 124> 742 150<-17 124>
LayerCount: 2
Fore
SplineSet
892 124 m 1xb0
 892 -167 l 1
 107 -167 l 1
 107 124 l 1
 257 124 l 1xb0
 257 -17 l 1
 742 -17 l 1x70
 742 124 l 1
 892 124 l 1xb0
EndSplineSet
Validated: 3073
EndChar

StartChar: uni2074
Encoding: 8308 8308 271
Width: 1075
VWidth: 1947
GlyphClass: 2
Flags: W
HStem: 764 150<375 625 775 921> 1405 20G<603.613 775>
VStem: 625 150<544 764 914 1201>
LayerCount: 2
Fore
SplineSet
625 1201 m 1
 375 914 l 1
 625 914 l 1
 625 1201 l 1
142 874 m 1
 621 1425 l 1
 775 1425 l 1
 775 914 l 1
 921 914 l 1
 921 764 l 1
 775 764 l 1
 775 544 l 1
 625 544 l 1
 625 764 l 1
 142 764 l 1
 142 874 l 1
EndSplineSet
Validated: 3073
EndChar

StartChar: Eng
Encoding: 330 330 273
Width: 1075
VWidth: 2334
GlyphClass: 2
Flags: W
HStem: -369 150<442.533 724.464> 0 21G<140 290> 1275 150<425.011 708.56> 1380 20G<140 290>
VStem: 140 150<0 1109.71 1308 1400> 785 150<-157.641 1200.71>
LayerCount: 2
Fore
SplineSet
290 -0 m 1xec
 140 0 l 1
 140 1400 l 1
 290 1400 l 1xdc
 290 1308 l 1
 353 1377 434 1425 528 1425 c 2
 548 1425 l 2
 807 1425 935 1275 935 1063 c 2
 935 -28 l 2
 935 -209 812 -369 613 -369 c 2
 554 -369 l 2
 476 -369 391 -343 332 -279 c 1
 442 -177 l 1
 453 -189 487 -219 554 -219 c 2
 613 -219 l 2
 723 -219 785 -132 785 -28 c 2
 785 1063 l 2
 785 1185 729 1275 548 1275 c 2
 528 1275 l 2
 397 1275 290 1060 290 958 c 2
 290 -0 l 1xec
EndSplineSet
Validated: 3073
EndChar

StartChar: dcroat
Encoding: 273 273 274
Width: 1075
VWidth: 1947
GlyphClass: 2
Flags: W
HStem: -25 150<400.959 690.991> 0 21G<785 935> 899 150<388.577 690.991> 1205 150<523 785 935 1015> 1380 20G<785 935>
VStem: 140 150<245.844 789.189> 785 150<0 51 226.284 796.557 973 1205 1355 1400>
LayerCount: 2
Fore
SplineSet
528 1049 m 2xbe
 548 1049 l 2
 645 1049 724 1022 785 973 c 1
 785 1205 l 1
 523 1205 l 1
 523 1355 l 1
 785 1355 l 1
 785 1400 l 1
 935 1400 l 1
 935 1355 l 1
 1015 1355 l 1
 1015 1205 l 1
 935 1205 l 1
 935 -0 l 1
 785 0 l 1x7e
 785 51 l 1
 724 2 645 -25 548 -25 c 2
 528 -25 l 2
 307 -25 140 165 140 427 c 2
 140 597 l 2
 140 861 275 1049 528 1049 c 2xbe
290 597 m 2
 290 427 l 2
 290 240 398 125 528 125 c 2
 548 125 l 2xbe
 738 125 785 280 785 427 c 2
 785 597 l 2
 785 741 738 899 548 899 c 2
 528 899 l 2
 338 899 290 741 290 597 c 2
EndSplineSet
Validated: 3073
EndChar

StartChar: bullet
Encoding: 8226 8226 280
Width: 1075
VWidth: 1947
GlyphClass: 2
Flags: W
HStem: 471 393<425.801 650.279>
VStem: 348 379<549.429 790.258>
LayerCount: 2
Fore
SplineSet
727 669 m 0
 727 572 641 471 537 471 c 0
 432 471 348 575 348 669 c 0
 348 770 437 864 537 864 c 0
 637 864 727 770 727 669 c 0
EndSplineSet
Validated: 3073
EndChar

StartChar: florin
Encoding: 402 402 281
Width: 1075
VWidth: 1947
GlyphClass: 2
Flags: W
HStem: -385 149<181.935 391.909> 752 150<213 475 633 897> 1275 150<671.202 937.853>
LayerCount: 2
Fore
SplineSet
905 1236 m 1
 900 1246 881 1275 785 1275 c 3
 703 1275 651 1231 648 1177 c 2
 633 902 l 1
 897 902 l 1
 897 752 l 1
 625 752 l 1
 578 -132 l 1
 569 -261 444 -385 291 -385 c 3
 212 -385 106 -347 47 -263 c 1
 169 -177 l 1
 192 -209 243 -236 291 -236 c 3
 366 -236 425 -171 428 -122 c 2
 475 752 l 1
 213 752 l 1
 213 902 l 1
 483 902 l 1
 498 1185 l 2
 506 1331 634 1425 785 1425 c 3
 954 1425 1005 1356 1027 1324 c 1
 905 1236 l 1
EndSplineSet
Validated: 3073
EndChar

StartChar: dagger
Encoding: 8224 8224 282
Width: 1075
VWidth: 1947
GlyphClass: 2
Flags: W
HStem: -385 21G<463 613> 875 149<109 463 613 967> 1405 20G<463 613>
VStem: 463 150<-385 875 1024 1425>
LayerCount: 2
Fore
SplineSet
967 1024 m 1
 967 875 l 1
 613 875 l 1
 613 -385 l 1
 463 -385 l 1
 463 875 l 1
 109 875 l 1
 109 1024 l 1
 463 1024 l 1
 463 1425 l 1
 613 1425 l 1
 613 1024 l 1
 967 1024 l 1
EndSplineSet
Validated: 3073
EndChar

StartChar: daggerdbl
Encoding: 8225 8225 283
Width: 1075
VWidth: 1947
GlyphClass: 2
Flags: W
HStem: -385 21G<463 613> 14 150<109 463 613 967> 875 149<109 463 613 967> 1405 20G<463 613>
VStem: 463 150<-385 14 164 875 1024 1425>
LayerCount: 2
Fore
SplineSet
967 1024 m 1
 967 875 l 1
 613 875 l 1
 613 164 l 1
 967 164 l 1
 967 14 l 1
 613 14 l 1
 613 -385 l 1
 463 -385 l 1
 463 14 l 1
 109 14 l 1
 109 164 l 1
 463 164 l 1
 463 875 l 1
 109 875 l 1
 109 1024 l 1
 463 1024 l 1
 463 1425 l 1
 613 1425 l 1
 613 1024 l 1
 967 1024 l 1
EndSplineSet
Validated: 3073
EndChar

StartChar: trademark
Encoding: 8482 8482 284
Width: 1075
VWidth: 1947
GlyphClass: 2
Flags: W
HStem: 1250 150<113 238 388 490>
VStem: 238 150<469 1250> 490 150<466 711> 682 112<519 584.536> 835 150<466 708 1335.56 1400>
LayerCount: 2
Fore
SplineSet
490 466 m 1
 490 1250 l 1
 388 1250 l 1
 388 469 l 1
 238 469 l 1
 238 1250 l 1
 113 1250 l 1
 113 1400 l 1
 642 1400 l 1
 738 964 l 1
 835 1400 l 1
 986 1400 l 1
 985 466 l 1
 835 466 l 1
 835 708 l 1
 794 519 l 1
 682 519 l 1
 640 711 l 1
 640 466 l 1
 490 466 l 1
EndSplineSet
Validated: 3073
EndChar

StartChar: Ecyrillic
Encoding: 1028 1028 290
Width: 1075
VWidth: 1708
GlyphClass: 2
Flags: W
HStem: -25 150<415.335 659.687> 681 150<281 623> 1275 150<403.487 662.433>
VStem: 129 150<335.394 681 831 1095.41> 756 144<235.759 290.853 1093.31 1167.59>
LayerCount: 2
Fore
SplineSet
538 -25 m 0
 165 -25 129 445 129 732 c 0
 129 1060 181 1425 538 1425 c 0
 749 1425 856 1269 905 1096 c 1
 761 1056 l 1
 704 1258 600 1275 538 1275 c 0
 383 1275 295 1166 281 831 c 1
 623 830 l 1
 623 681 l 1
 279 681 l 1
 286 295 373 125 538 125 c 0
 595 125 696 140 756 332 c 1
 900 288 l 1
 827 53 683 -25 538 -25 c 0
EndSplineSet
Validated: 3073
EndChar

StartChar: Becyrillic
Encoding: 1041 1041 298
Width: 1075
VWidth: 1947
GlyphClass: 2
Flags: W
HStem: -25 150<290 734.973> 712 150<290 708.766> 1250 150<290 863>
VStem: 140 150<125 712 862 1250> 785 150<180.639 632.922>
LayerCount: 2
Fore
SplineSet
548 862 m 2
 809 862 935 696 935 485 c 2
 935 312 l 2
 935 42 749 -25 548 -25 c 2
 140 -25 l 1
 140 1400 l 1
 863 1400 l 1
 863 1250 l 1
 290 1250 l 1
 290 862 l 1
 548 862 l 2
290 712 m 1
 290 125 l 1
 548 125 l 2
 740 125 785 189 785 312 c 2
 785 485 l 2
 785 636 703 712 548 712 c 2
 290 712 l 1
EndSplineSet
Validated: 3073
EndChar

StartChar: Gecyrillic
Encoding: 1043 1043 299
Width: 1075
VWidth: 1947
GlyphClass: 2
Flags: W
HStem: -0 21G<140 290> 1249 151<290 967>
VStem: 140 150<0 1249>
LayerCount: 2
Fore
SplineSet
140 -0 m 1
 140 1400 l 1
 967 1400 l 1
 967 1249 l 1
 290 1249 l 1
 290 0 l 1
 140 -0 l 1
EndSplineSet
Validated: 3073
EndChar

StartChar: Decyrillic
Encoding: 1044 1044 300
Width: 1075
VWidth: 1947
GlyphClass: 2
Flags: W
HStem: 0 151<340 762> 1250 150<689 762>
VStem: 71 150<-67 0> 762 150<151 1250> 855 150<-77 0>
LayerCount: 2
Fore
SplineSet
340 151 m 1xf0
 762 151 l 1
 762 1250 l 1
 715 1250 l 1
 612 1207 506 1045 489 952 c 2
 340 151 l 1xf0
341 980 m 2
 366 1114 506 1338 677 1396 c 2
 689 1400 l 1
 912 1400 l 1
 912 151 l 1xf0
 1005 151 l 1
 1005 -77 l 1
 976 -162 l 1
 855 -162 l 1
 855 0 l 1xe8
 221 0 l 1
 221 -162 l 1
 105 -162 l 1
 71 -67 l 1
 71 151 l 1
 188 151 l 1
 341 980 l 2
EndSplineSet
Validated: 3073
EndChar

StartChar: Zhecyrillic
Encoding: 1046 1046 302
Width: 1075
VWidth: 1947
GlyphClass: 2
Flags: W
HStem: -0 21G<59 223.853 463 613 852.132 1017> 1380 20G<63 227.685 848.315 1013>
VStem: 463 150<0 203 676 1350>
LayerCount: 2
Fore
SplineSet
463 676 m 1
 463 1350 l 1
 613 1350 l 1
 613 676 l 1
 855 1400 l 1
 1013 1400 l 1
 778 697 l 1
 1017 -0 l 1
 964 0 912 0 859 0 c 1
 700 463 l 1
 613 203 l 1
 613 -0 l 1
 463 -0 l 1
 463 203 l 1
 376 464 l 1
 217 0 l 1
 164 0 112 0 59 -0 c 1
 297 699 l 1
 63 1400 l 1
 221 1400 l 1
 463 676 l 1
EndSplineSet
Validated: 3073
EndChar

StartChar: Zecyrillic
Encoding: 1047 1047 303
Width: 1075
VWidth: 1947
GlyphClass: 2
Flags: W
HStem: -25 150<363.086 702.378> 734 150<354 681.25> 1275 150<346.061 661.63>
VStem: 117 150<216.449 337> 733 150<934.137 1200.98> 785 150<217.578 619.038>
LayerCount: 2
Fore
SplineSet
504 1425 m 2xf8
 548 1425 l 2
 749 1425 883 1256 883 1063 c 2
 883 1024 l 2xf8
 883 941 842 863 776 810 c 1
 876 732 935 595 935 417 c 2
 935 397 l 2
 935 128 792 -25 548 -25 c 2
 504 -25 l 2
 313 -25 117 121 117 337 c 1
 267 337 l 1
 267 196 408 125 504 125 c 2
 548 125 l 2
 690 125 785 193 785 397 c 2
 785 417 l 2xf4
 785 557 738 733 550 734 c 1
 354 734 l 1
 354 884 l 1
 550 884 l 2
 656 884 733 951 733 1024 c 2
 733 1063 l 2
 733 1180 659 1275 548 1275 c 2
 504 1275 l 2
 403 1275 313 1231 282 1160 c 1
 144 1220 l 1
 207 1365 366 1425 504 1425 c 2xf8
EndSplineSet
Validated: 3073
EndChar

StartChar: Iicyrillic
Encoding: 1048 1048 304
Width: 1075
VWidth: 1947
GlyphClass: 2
Flags: W
HStem: -0 21G<140 283.922 785 935> 1380 20G<140 290 791.087 935>
VStem: 140 150<369 1400> 785 150<0 1030>
LayerCount: 2
Fore
SplineSet
140 -0 m 1
 140 1400 l 1
 290 1400 l 1
 290 369 l 1
 801 1400 l 1
 935 1400 l 1
 935 0 l 1
 785 -0 l 1
 785 1030 l 1
 274 -0 l 1
 229 0 185 0 140 -0 c 1
EndSplineSet
Validated: 3073
EndChar

StartChar: Elcyrillic
Encoding: 1051 1051 307
Width: 1075
VWidth: 1947
GlyphClass: 2
Flags: W
HStem: 0 21G<94 252.831 785 935> 1250 150<689 785>
VStem: 785 150<0 1250>
LayerCount: 2
Fore
SplineSet
331 984 m 2
 368 1138 503 1337 677 1396 c 2
 689 1400 l 1
 935 1400 l 1
 935 -0 l 1
 785 0 l 1
 785 1250 l 1
 714 1250 l 1
 613 1209 508 1076 477 948 c 2
 248 -0 l 1
 197 0 145 0 94 0 c 1
 331 984 l 2
EndSplineSet
Validated: 3073
EndChar

StartChar: Pecyrillic
Encoding: 1055 1055 311
Width: 1075
VWidth: 1947
GlyphClass: 2
Flags: W
HStem: -0 21G<140 290 785 935> 1250 150<290 785>
VStem: 140 150<0 1250> 785 150<0 1250>
LayerCount: 2
Fore
SplineSet
140 -0 m 1
 140 1400 l 1
 935 1400 l 1
 935 -0 l 1
 785 0 l 1
 785 1250 l 1
 290 1250 l 1
 290 0 l 1
 140 -0 l 1
EndSplineSet
Validated: 3073
EndChar

StartChar: Ucyrillic
Encoding: 1059 1059 315
Width: 1075
VWidth: 1947
GlyphClass: 2
Flags: W
HStem: -25 150<271 457.758> 1380 20G<122 294.819 801.505 963>
LayerCount: 2
Fore
SplineSet
631 193 m 2
 584 22 466 -24 352 -25 c 2
 320 -25 l 2
 293 -25 261 -23 227 -11 c 2
 190 0 l 1
 240 144 l 1
 271 133 l 2
 283 129 299 125 320 125 c 2
 352 125 l 2
 407 126 459 134 487 235 c 2
 544 443 l 1
 122 1400 l 1
 286 1400 l 1
 607 672 l 1
 807 1400 l 1
 963 1400 l 1
 631 193 l 2
EndSplineSet
Validated: 3073
EndChar

StartChar: Efcyrillic
Encoding: 1060 1060 316
Width: 1075
VWidth: 1947
GlyphClass: 2
Flags: W
HStem: -25 21G<463 613> 79 152<371.34 463 613 704.307> 1172 151<354.961 463 613 721.039> 1405 20G<463 613>
VStem: 79 150<412.906 1024.03> 463 150<-25 86.8907 231 1172 1316.55 1425> 847 150<412.906 1025.03>
CounterMasks: 1 0e
LayerCount: 2
Fore
SplineSet
613 -25 m 1
 463 -25 l 1
 463 79 l 1
 289 104 79 234 79 697 c 2
 79 753 l 2
 79 1191 290 1303 463 1323 c 1
 463 1425 l 1
 613 1425 l 1
 613 1323 l 1
 786 1303 997 1193 997 754 c 2
 997 697 l 2
 997 234 786 104 613 79 c 1
 613 -25 l 1
613 1172 m 1
 613 231 l 1
 795 271 847 478 847 697 c 2
 847 754 l 2
 847 1033 759 1148 613 1172 c 1
463 231 m 1
 463 1172 l 1
 318 1147 229 1032 229 753 c 2
 229 697 l 2
 229 478 280 271 463 231 c 1
EndSplineSet
Validated: 3073
EndChar

StartChar: Tsecyrillic
Encoding: 1062 1062 318
Width: 1075
VWidth: 1947
GlyphClass: 2
Flags: W
HStem: 0 150<290 705> 1380 20G<140 290 705 855>
VStem: 140 150<150 1400> 705 150<150 1400>
LayerCount: 2
Fore
SplineSet
290 150 m 1
 705 150 l 1
 705 1400 l 1
 855 1400 l 1
 855 149 l 1
 991 149 l 1
 991 60 l 1
 846 -223 l 1
 712 -155 l 1
 791 0 l 1
 140 0 l 1
 140 1400 l 1
 290 1400 l 1
 290 150 l 1
EndSplineSet
Validated: 3073
EndChar

StartChar: Checyrillic
Encoding: 1063 1063 319
Width: 1075
VWidth: 1947
GlyphClass: 2
Flags: W
HStem: 0 21G<785 935> 437 150<366.889 785> 1380 20G<140 290 785 935>
VStem: 140 150<665.656 1400> 785 150<0 437 587 1400>
LayerCount: 2
Fore
SplineSet
935 -0 m 1
 785 0 l 1
 785 437 l 1
 528 437 l 2
 268 437 140 602 140 814 c 2
 140 1400 l 1
 290 1400 l 1
 290 814 l 2
 290 664 373 587 528 587 c 2
 785 587 l 1
 785 1400 l 1
 935 1400 l 1
 935 -0 l 1
EndSplineSet
Validated: 3073
EndChar

StartChar: Shacyrillic
Encoding: 1064 1064 320
Width: 1075
VWidth: 1947
GlyphClass: 2
Flags: W
HStem: 0 150<233 463 613 843> 1380 20G<83 233 843 993>
VStem: 83 150<150 1400> 463 150<150 1184> 843 150<150 1400>
CounterMasks: 1 38
LayerCount: 2
Fore
SplineSet
613 150 m 1
 843 150 l 1
 843 1400 l 1
 993 1400 l 1
 993 0 l 1
 83 0 l 1
 83 1400 l 1
 233 1400 l 1
 233 150 l 1
 463 150 l 1
 463 1184 l 1
 613 1184 l 1
 613 150 l 1
EndSplineSet
Validated: 3073
EndChar

StartChar: Shchacyrillic
Encoding: 1065 1065 321
Width: 1075
VWidth: 1947
GlyphClass: 2
Flags: W
HStem: 0 150<233 434 584 785> 1380 20G<83 233 785 935>
VStem: 83 150<150 1400> 434 150<150 1184> 785 150<150 1400>
CounterMasks: 1 38
LayerCount: 2
Fore
SplineSet
839 0 m 1
 83 0 l 1
 83 1400 l 1
 233 1400 l 1
 233 150 l 1
 434 150 l 1
 434 1184 l 1
 584 1184 l 1
 584 150 l 1
 785 150 l 1
 785 1400 l 1
 935 1400 l 1
 935 150 l 1
 1045 150 l 1
 1045 55 l 1
 880 -227 l 1
 750 -151 l 1
 839 0 l 1
EndSplineSet
Validated: 3073
EndChar

StartChar: Hardsigncyrillic
Encoding: 1066 1066 322
Width: 1075
VWidth: 1947
GlyphClass: 2
Flags: W
HStem: 0 150<464 739.25> 672 150<464 715.952> 1250 150<239 314>
VStem: 314 150<150 672 822 1250> 785 150<196.44 603.926>
LayerCount: 2
Fore
SplineSet
618 822 m 2
 803 822 935 662 935 445 c 2
 935 337 l 2
 935 107 788 0 618 0 c 2
 314 0 l 1
 314 1250 l 1
 239 1250 l 1
 140 959 l 1
 74 959 l 1
 74 1400 l 1
 464 1400 l 1
 464 822 l 1
 618 822 l 2
464 672 m 1
 464 150 l 1
 618 150 l 2
 704 150 785 189 785 337 c 2
 785 445 l 2
 785 577 718 672 618 672 c 2
 464 672 l 1
EndSplineSet
Validated: 3073
EndChar

StartChar: Yericyrillic
Encoding: 1067 1067 323
Width: 1075
VWidth: 1947
GlyphClass: 2
Flags: W
HStem: 0 150<256 452.975> 722 150<256 428.265> 1380 20G<106 256 820 970>
VStem: 106 150<150 722 872 1400> 497 150<196.456 651.778> 820 150<0 1400>
LayerCount: 2
Fore
SplineSet
279 872 m 2
 539 872 647 707 647 495 c 2
 647 337 l 2
 647 67 479 0 279 0 c 2
 106 0 l 1
 106 1400 l 1
 256 1400 l 1
 256 872 l 1
 279 872 l 2
970 -0 m 1
 820 0 l 1
 820 1400 l 1
 970 1400 l 1
 970 -0 l 1
256 722 m 1
 256 150 l 1
 279 150 l 2
 471 150 497 215 497 337 c 2
 497 495 l 2
 497 645 434 722 279 722 c 2
 256 722 l 1
EndSplineSet
Validated: 3073
EndChar

StartChar: Softsigncyrillic
Encoding: 1068 1068 324
Width: 1075
VWidth: 1947
GlyphClass: 2
Flags: W
HStem: 0 150<290 734.973> 672 150<290 708.766> 1380 20G<140 290>
VStem: 140 150<150 672 822 1400> 785 150<205.639 592.922>
LayerCount: 2
Fore
SplineSet
548 822 m 2
 809 822 935 656 935 445 c 2
 935 337 l 2
 935 67 749 0 548 0 c 2
 140 0 l 1
 140 1400 l 1
 290 1400 l 1
 290 822 l 1
 548 822 l 2
290 672 m 1
 290 150 l 1
 548 150 l 2
 740 150 785 214 785 337 c 2
 785 445 l 2
 785 596 703 672 548 672 c 2
 290 672 l 1
EndSplineSet
Validated: 3073
EndChar

StartChar: Ereversedcyrillic
Encoding: 1069 1069 325
Width: 1075
VWidth: 1947
GlyphClass: 2
Flags: W
HStem: -25 150<415.789 653.329> 681 150<453 797> 1275 150<413.052 673.009>
VStem: 175 144<239.676 295.853 1091.31 1166.63> 797 150<335.394 681 830 1109.35>
LayerCount: 2
Fore
SplineSet
797 830 m 1
 783 1166 694 1275 538 1275 c 0
 475 1275 371 1257 314 1054 c 1
 170 1094 l 1
 219 1270 327 1425 538 1425 c 0
 895 1425 947 1060 947 732 c 0
 947 445 910 -25 538 -25 c 0
 393 -25 247 53 175 293 c 1
 319 337 l 1
 378 141 482 125 538 125 c 0
 702 125 790 297 797 681 c 1
 453 681 l 1
 453 831 l 1
 797 830 l 1
EndSplineSet
Validated: 3073
EndChar

StartChar: IUcyrillic
Encoding: 1070 1070 326
Width: 1075
VWidth: 1947
GlyphClass: 2
Flags: W
HStem: -25 150<671.033 760.887> 0 21G<83 233> 625 150<233 431> 1275 150<676.979 769.772> 1380 20G<83 233>
VStem: 83 150<0 625 775 1400> 431 148<327.402 625 775 1074.64> 843 150<273.625 1154.64>
LayerCount: 2
Fore
SplineSet
843 732 m 2xb7
 843 738 l 2
 843 817 837 1275 711 1275 c 3
 658 1275 579 950 579 732 c 27
 579 490 642 126 711 125 c 3
 764 125 841 268 843 732 c 2xb7
711 1425 m 3
 900 1425 993 1221 993 740 c 2
 993 714 l 2
 993 525 988 -25 711 -25 c 3xb7
 570 -25 447 81 431 625 c 1
 233 625 l 1
 233 -0 l 1
 83 0 l 1
 83 1400 l 1
 233 1400 l 1x6f
 233 775 l 1
 431 775 l 1
 436 1111 485 1425 711 1425 c 3
EndSplineSet
Validated: 3073
EndChar

StartChar: IAcyrillic
Encoding: 1071 1071 327
Width: 1075
VWidth: 1947
GlyphClass: 2
Flags: W
HStem: -0 21G<89 268.218 785 935> 642 150<586 785> 1250 150<339.195 785>
VStem: 140 150<841.625 1203.54> 785 150<0 642 792 1250>
LayerCount: 2
Fore
SplineSet
785 792 m 1
 785 1250 l 1
 528 1250 l 2
 332 1250 290 1199 290 1063 c 2
 290 973 l 2
 290 864 328 792 528 792 c 2
 785 792 l 1
785 642 m 1
 586 642 l 1
 258 -0 l 1
 202 0 145 0 89 -0 c 1
 422 649 l 1
 221 679 140 802 140 973 c 2
 140 1063 l 2
 140 1333 305 1400 528 1400 c 2
 935 1400 l 1
 935 -0 l 1
 785 0 l 1
 785 642 l 1
EndSplineSet
Validated: 3073
EndChar

StartChar: becyrillic
Encoding: 1073 1073 329
Width: 1075
VWidth: 2334
GlyphClass: 2
Flags: W
HStem: -25 150<400.959 686.929> 899 150<384.439 687.316> 1250 150<393.547 796.014>
VStem: 140 150<245.844 796.557 972 1135.58> 785 150<233.951 788.759>
LayerCount: 2
Fore
SplineSet
528 1049 m 2
 548 1049 l 2
 801 1049 935 860 935 597 c 2
 935 427 l 2
 935 161 800 -25 548 -25 c 2
 528 -25 l 2
 307 -25 140 165 140 427 c 2
 140 953 l 2
 140 1272 344 1400 537 1400 c 0
 657 1400 722 1419 837 1457 c 1
 883 1315 l 1
 753 1272 675 1250 537 1250 c 0
 414 1250 297 1176 290 972 c 1
 351 1021 431 1049 528 1049 c 2
290 597 m 2
 290 427 l 2
 290 240 398 125 528 125 c 2
 548 125 l 2
 738 125 785 280 785 427 c 2
 785 597 l 2
 785 741 738 899 548 899 c 2
 528 899 l 2
 338 899 290 741 290 597 c 2
EndSplineSet
Validated: 3073
EndChar

StartChar: vecyrillic
Encoding: 1074 1074 330
Width: 1075
VWidth: 2334
GlyphClass: 2
Flags: W
HStem: 0 150<290 744.231> 474 150<290 684.226> 874 150<290 719.1>
VStem: 140 150<150 474 624 874> 746 150<680.277 840.305> 807 150<213.304 421.552>
LayerCount: 2
Fore
SplineSet
746 772 m 3xf8
 746 833 684 874 509 874 c 2
 290 874 l 1
 290 624 l 1
 509 624 l 2
 650 624 746 683 746 772 c 3xf8
290 150 m 1
 571 150 l 2
 738 150 807 225 807 316 c 2
 807 325 l 2xf4
 807 444 682 474 570 474 c 2
 290 474 l 1
 290 150 l 1
140 0 m 1
 140 1024 l 1
 509 1024 l 2
 582 1024 712 1019 803 954 c 0
 829 936 896 881 896 772 c 3xf8
 896 696 864 627 807 574 c 1
 917 515 957 414 957 325 c 2
 957 316 l 2
 957 138 819 0 571 0 c 2
 140 0 l 1
EndSplineSet
Validated: 3073
EndChar

StartChar: gecyrillic
Encoding: 1075 1075 331
Width: 1075
VWidth: 1947
GlyphClass: 2
Flags: W
HStem: -25 150<314.499 673.965> 899 150<343.862 728.047>
VStem: 106 150<180.565 373.046 719 813.324> 751 150<700.797 867.643> 785 150<230.929 337>
LayerCount: 2
Fore
SplineSet
106 719 m 1xf0
 106 891 281 1049 493 1049 c 2
 514 1049 l 2
 687 1049 901 1024 901 789 c 2
 901 777 l 2
 901 740 884 608 751 555 c 2xf0
 315 381 l 2
 282 368 256 349 256 301 c 2
 256 255 l 2
 256 170 377 125 493 125 c 2
 548 125 l 2
 664 125 785 244 785 337 c 1
 935 337 l 1xe8
 935 163 750 -25 548 -25 c 2
 493 -25 l 2
 274 -25 106 87 106 255 c 2
 106 301 l 2
 106 458 233 511 259 521 c 2
 695 695 l 2
 723 706 747 737 751 777 c 1
 751 789 l 2
 751 854 721 899 514 899 c 2
 493 899 l 2
 366 899 256 808 256 719 c 1
 106 719 l 1xf0
EndSplineSet
Validated: 3073
EndChar

StartChar: decyrillic
Encoding: 1076 1076 332
Width: 1075
VWidth: 1947
GlyphClass: 2
Flags: W
HStem: 0 151<340 762> 874 150<617.297 762>
VStem: 762 150<151 874>
LayerCount: 2
Fore
SplineSet
340 151 m 1
 762 151 l 1
 762 874 l 1
 708 874 l 1
 590 850 438 689 420 590 c 2
 340 151 l 1
272 620 m 2
 300 772 500 992 688 1024 c 2
 695 1024 l 1
 912 1024 l 1
 912 151 l 1
 1005 151 l 1
 1005 -39 l 1
 953 -162 l 1
 855 -162 l 1
 855 0 l 1
 221 0 l 1
 221 -162 l 1
 133 -162 l 1
 71 -26 l 1
 71 151 l 1
 187 151 l 1
 272 620 l 2
EndSplineSet
Validated: 3073
EndChar

StartChar: zhecyrillic
Encoding: 1078 1078 334
Width: 1075
VWidth: 1947
GlyphClass: 2
Flags: W
HStem: 0 21G<88 260.543 463 613 815.333 987> 1004 20G<463 613>
VStem: 463 150<0 132 477 1024>
LayerCount: 2
Fore
SplineSet
463 477 m 1
 463 1024 l 1
 613 1024 l 1
 613 477 l 1
 899 1071 l 1
 1035 1004 l 1
 780 479 l 1
 987 0 l 1
 933 0 878 0 824 0 c 1
 694 300 l 1
 613 132 l 1
 613 -0 l 1
 463 -0 l 1
 463 132 l 1
 381 302 l 1
 252 0 l 1
 198 0 142 0 88 0 c 1
 295 481 l 1
 41 1004 l 1
 177 1071 l 1
 463 477 l 1
EndSplineSet
Validated: 3073
EndChar

StartChar: zecyrillic
Encoding: 1079 1079 335
Width: 1075
VWidth: 1947
GlyphClass: 2
Flags: W
HStem: -25 150<361.351 694.388> 485 150<424 671.511> 898 150<346.061 700.429>
VStem: 140 150<188.965 265> 733 150<698.134 864.428> 785 150<209.947 424.057>
LayerCount: 2
Fore
SplineSet
733 808 m 2xf8
 733 855 665 893 548 898 c 1
 504 898 l 2
 403 898 313 854 282 783 c 1
 144 843 l 1
 207 988 366 1048 504 1048 c 2
 548 1048 l 1
 826 1038 883 890 883 808 c 2
 883 797 l 2xf8
 883 718 847 638 785 579 c 1
 881 524 935 434 935 334 c 2
 935 314 l 2
 935 158 795 -25 548 -25 c 2
 528 -25 l 2
 355 -25 140 71 140 265 c 1
 290 265 l 1
 290 180 416 125 528 125 c 2
 548 125 l 2
 717 125 785 244 785 314 c 2
 785 334 l 2xf4
 785 424 690 484 550 485 c 1
 424 485 l 1
 424 635 l 1
 550 635 l 2
 665 635 733 731 733 797 c 2
 733 808 l 2xf8
EndSplineSet
Validated: 3073
EndChar

StartChar: iicyrillic
Encoding: 1080 1080 336
Width: 1075
VWidth: 1947
GlyphClass: 2
Flags: W
HStem: -0 21G<140 285.959 785 935> 1004 20G<140 290 789.079 935>
VStem: 140 150<287 1024> 785 150<0 735>
LayerCount: 2
Fore
SplineSet
140 0 m 1
 140 1024 l 1
 290 1024 l 1
 290 287 l 1
 803 1024 l 1
 935 1024 l 1
 935 0 l 1
 785 -0 l 1
 785 735 l 1
 272 0 l 1
 228 0 184 0 140 0 c 1
EndSplineSet
Validated: 3073
EndChar

StartChar: kacyrillic
Encoding: 1082 1082 338
Width: 1075
VWidth: 1947
GlyphClass: 2
Flags: W
HStem: -0 21G<140 290 742.439 959> 1004 20G<140 290 820.105 861.106>
VStem: 140 150<0 100 341 1024>
LayerCount: 2
Fore
SplineSet
290 0 m 1
 140 0 l 1
 140 1024 l 1
 290 1024 l 1
 290 341 l 1
 836 1028 l 1
 954 934 l 1
 567 448 l 1
 959 -0 l 1
 893 0 826 0 760 -0 c 1
 472 328 l 1
 290 100 l 1
 290 0 l 1
EndSplineSet
Validated: 3073
EndChar

StartChar: elcyrillic
Encoding: 1083 1083 339
Width: 1075
VWidth: 1947
GlyphClass: 2
Flags: W
HStem: -0 21G<98 260.993 785 935> 873 151<689 785>
VStem: 785 150<0 873>
LayerCount: 2
Fore
SplineSet
286 624 m 2
 338 798 524 967 677 1019 c 2
 689 1024 l 1
 935 1024 l 1
 935 -0 l 1
 785 0 l 1
 785 873 l 1
 714 873 l 1
 588 825 460 685 430 584 c 2
 255 0 l 1
 203 0 150 0 98 -0 c 1
 286 624 l 2
EndSplineSet
Validated: 3073
EndChar

StartChar: emcyrillic
Encoding: 1084 1084 340
Width: 1075
VWidth: 1947
GlyphClass: 2
Flags: W
HStem: 0 21G<48 199.856 876.174 1028> 1004 20G<141.145 305.069 772.872 936.816>
LayerCount: 2
Fore
SplineSet
198 0 m 1
 48 0 l 1
 143 1024 l 1
 298 1024 l 1
 538 345 l 1
 780 1024 l 1
 935 1024 l 1
 1028 0 l 1
 878 0 l 1
 816 679 l 1
 602 76 l 1
 474 76 l 1
 261 679 l 1
 198 0 l 1
EndSplineSet
Validated: 3073
EndChar

StartChar: encyrillic
Encoding: 1085 1085 341
Width: 1075
VWidth: 1947
GlyphClass: 2
Flags: W
HStem: 0 21G<140 290 785 935> 395 150<290 785> 1004 20G<140 290 785 935>
VStem: 140 150<0 395 545 1024> 785 150<0 395 545 1024>
LayerCount: 2
Fore
SplineSet
290 -0 m 1
 140 0 l 1
 140 1024 l 1
 290 1024 l 1
 290 545 l 1
 785 545 l 1
 785 1024 l 1
 935 1024 l 1
 935 -0 l 1
 785 0 l 1
 785 395 l 1
 290 395 l 1
 290 -0 l 1
EndSplineSet
Validated: 3073
EndChar

StartChar: tecyrillic
Encoding: 1090 1090 346
Width: 1075
VWidth: 1947
GlyphClass: 2
Flags: W
HStem: -0 21G<463 613> 875 149<86 463 613 990>
VStem: 463 150<0 875>
LayerCount: 2
Fore
SplineSet
990 1024 m 1
 990 875 l 1
 613 875 l 1
 613 0 l 1
 463 -0 l 1
 463 875 l 1
 86 875 l 1
 86 1024 l 1
 990 1024 l 1
EndSplineSet
Validated: 3073
EndChar

StartChar: efcyrillic
Encoding: 1092 1092 348
Width: 1075
VWidth: 1947
GlyphClass: 2
Flags: W
HStem: -385 21G<463 613> -23 151<343.758 463 613 732.242> 815 151<343.051 463 613 732.242> 1029 20G<463 613>
VStem: 79 150<246.4 696.684> 463 150<-385 -19.1169 128 815 961.907 1049> 847 150<244.596 688.6>
CounterMasks: 1 0e
LayerCount: 2
Fore
SplineSet
613 -385 m 1
 463 -385 l 1
 463 -23 l 1
 211 -3 79 181 79 428 c 2
 79 509 l 2
 79 749 209 945 463 966 c 1
 463 1049 l 1
 613 1049 l 1
 613 966 l 1
 865 943 997 750 997 509 c 2
 997 427 l 2
 997 177 865 -1 613 -23 c 1
 613 -385 l 1
613 815 m 1
 613 128 l 1
 799 150 847 289 847 427 c 2
 847 509 l 2
 847 636 799 791 613 815 c 1
463 128 m 1
 463 815 l 1
 277 793 229 638 229 509 c 2
 229 428 l 2
 229 293 277 149 463 128 c 1
EndSplineSet
Validated: 3073
EndChar

StartChar: tsecyrillic
Encoding: 1094 1094 350
Width: 1075
VWidth: 2334
GlyphClass: 2
Flags: W
HStem: -25 150<349.25 628.474> 1004 20G<140 290 785 935>
VStem: 140 150<179.609 1024> 785 150<43 109 307 1024> 834 150<-117.6 29.1368>
LayerCount: 2
Fore
SplineSet
732 -162 m 1xe8
 788 -131 834 -77 834 -56 c 3xe8
 834 -11 826 10 813 21 c 2
 785 43 l 1
 785 109 l 1
 715 32 625 -25 525 -25 c 2
 504 -25 l 2
 272 -25 140 98 140 337 c 2
 140 1024 l 1
 290 1024 l 1
 290 337 l 2
 290 191 347 125 504 125 c 2
 525 125 l 2
 656 125 785 345 785 447 c 2
 785 1024 l 1
 935 1024 l 1
 935 110 l 1xf0
 977 64 984 12 984 -56 c 3
 984 -103 965 -218 804 -294 c 1
 732 -162 l 1xe8
EndSplineSet
Validated: 3073
EndChar

StartChar: checyrillic
Encoding: 1095 1095 351
Width: 1075
VWidth: 1947
GlyphClass: 2
Flags: W
HStem: 0 21G<785 935> 352 150<354.88 624.851> 1004 20G<140 290 785 935>
VStem: 140 150<565.346 1024> 785 150<0 491 693.695 1024>
LayerCount: 2
Fore
SplineSet
935 -0 m 1
 785 0 l 1
 785 491 l 1
 716 411 626 352 525 352 c 2
 504 352 l 2
 261 352 140 501 140 729 c 2
 140 1024 l 1
 290 1024 l 1
 290 729 l 2
 290 547 382 502 504 502 c 2
 525 502 l 2
 654 502 785 735 785 839 c 2
 785 1024 l 1
 935 1024 l 1
 935 -0 l 1
EndSplineSet
Validated: 3073
EndChar

StartChar: shacyrillic
Encoding: 1096 1096 352
Width: 1075
VWidth: 2334
GlyphClass: 2
Flags: W
HStem: -25 150<252.771 406.376 616.048 774.285> -0 21G<832 982> 1004 20G<94 244 463 613 832 982>
VStem: 94 150<130.766 1024> 463 150<187.404 1024> 832 150<0 17 186.593 1024>
CounterMasks: 1 1c
LayerCount: 2
Fore
SplineSet
706 125 m 2xbc
 768 129 832 234 832 337 c 2
 832 1024 l 1
 982 1024 l 1
 982 0 l 1
 832 -0 l 1x7c
 832 17 l 1
 778 -21 709 -25 706 -25 c 2
 694 -25 l 2
 594 -25 538 11 506 55 c 1
 438 -21 339 -25 337 -25 c 2
 325 -25 l 2
 108 -25 94 173 94 215 c 2
 94 1024 l 1
 244 1024 l 1
 244 215 l 2
 244 151 246 125 325 125 c 2
 337 125 l 2
 399 129 463 234 463 337 c 2
 463 1024 l 1
 613 1024 l 1
 613 215 l 2
 613 150 615 125 694 125 c 2
 706 125 l 2xbc
EndSplineSet
Validated: 3073
EndChar

StartChar: shchacyrillic
Encoding: 1097 1097 353
Width: 1075
VWidth: 2334
GlyphClass: 2
Flags: W
HStem: -25 150<252.197 404.712 616.048 774.664> 1004 20G<94 244 463 613 832 982>
VStem: 94 150<130.766 1024> 463 150<187.404 1024> 832 150<186.593 1024> 880 150<-125.128 28.2046>
LayerCount: 2
Fore
SplineSet
778 -162 m 1xf4
 844 -123 880 -98 880 -56 c 3xf4
 880 -20 880 6 848 30 c 1
 802 -18 708 -25 706 -25 c 2
 694 -25 l 2
 594 -25 538 11 506 55 c 1
 442 -18 339 -25 337 -25 c 2
 325 -25 l 2
 106 -25 94 173 94 215 c 2
 94 1024 l 1
 244 1024 l 1
 244 215 l 2
 244 151 246 125 325 125 c 2
 337 125 l 2
 399 129 463 234 463 337 c 2
 463 1024 l 1
 613 1024 l 1
 613 215 l 2
 613 150 615 125 694 125 c 2
 706 125 l 2
 768 129 832 234 832 337 c 2
 832 1024 l 1
 982 1024 l 1
 982 111 l 1xf8
 1024 65 1030 11 1030 -56 c 3
 1030 -104 1003 -203 850 -294 c 1
 778 -162 l 1xf4
EndSplineSet
Validated: 3073
EndChar

StartChar: hardsigncyrillic
Encoding: 1098 1098 354
Width: 1075
VWidth: 1947
GlyphClass: 2
Flags: W
HStem: 0 149<464 741.201> 486 150<464 711.249> 848 150<210 314>
VStem: 74 49<572 617.48> 314 150<149 486 636 848> 785 150<196.278 418.021>
LayerCount: 2
Fore
SplineSet
548 636 m 2
 737 636 935 521 935 337 c 2
 935 259 l 2
 935 51 709 1 548 0 c 2
 314 0 l 1
 314 848 l 1
 210 848 l 1
 123 572 l 1
 74 572 l 1
 74 998 l 1
 464 998 l 1
 464 636 l 1
 548 636 l 2
464 486 m 1
 464 149 l 1
 548 149 l 2
 641 150 785 171 785 259 c 2
 785 337 l 2
 785 426 656 486 548 486 c 2
 464 486 l 1
EndSplineSet
Validated: 3073
EndChar

StartChar: yericyrillic
Encoding: 1099 1099 355
Width: 1075
VWidth: 1947
GlyphClass: 2
Flags: W
HStem: 0 150<233 465.802> 486 150<233 436.224> 1004 20G<83 233 843 993>
VStem: 83 150<150 486 636 1024> 497 150<184.035 430.32> 843 150<0 1024>
LayerCount: 2
Fore
SplineSet
283 150 m 2
 342 150 497 155 497 259 c 2
 497 337 l 2
 497 427 409 486 283 486 c 2
 233 486 l 1
 233 150 l 1
 283 150 l 2
843 1024 m 1
 993 1024 l 1
 993 0 l 1
 843 -0 l 1
 843 1024 l 1
233 636 m 1
 283 636 l 2
 492 636 647 514 647 337 c 2
 647 259 l 2
 647 197 628 141 582 95 c 0
 504 16 390 0 283 0 c 2
 83 0 l 1
 83 1024 l 1
 233 1024 l 1
 233 636 l 1
EndSplineSet
Validated: 3073
EndChar

StartChar: softsigncyrillic
Encoding: 1100 1100 356
Width: 1075
VWidth: 1947
GlyphClass: 2
Flags: W
HStem: 0 150<290 744.312> 486 150<290 712.845> 1028 20G<140 290>
VStem: 140 150<150 486 636 1048> 785 150<191.729 423.256>
LayerCount: 2
Fore
SplineSet
548 150 m 1
 602 152 785 159 785 259 c 2
 785 337 l 2
 785 426 670 486 548 486 c 2
 290 486 l 1
 290 150 l 1
 548 150 l 1
935 259 m 2
 935 155 870 7 548 0 c 1
 140 0 l 1
 140 1048 l 1
 290 1048 l 1
 290 636 l 1
 548 636 l 2
 755 636 935 516 935 337 c 2
 935 259 l 2
EndSplineSet
Validated: 3073
EndChar

StartChar: ereversedcyrillic
Encoding: 1101 1101 357
Width: 1075
VWidth: 1947
GlyphClass: 2
Flags: W
HStem: -25 150<319.204 657.904> 437 150<372 768> 898 150<317.65 670.316>
VStem: 768 150<246.266 437 587 789.015>
LayerCount: 2
Fore
SplineSet
510 1048 m 2
 531 1048 l 2
 784 1048 918 861 918 597 c 2
 918 427 l 2
 918 166 752 -25 531 -25 c 2
 510 -25 l 2
 334 -25 201 19 147 161 c 1
 287 215 l 1
 310 154 369 125 510 125 c 2
 531 125 l 2
 660 125 768 240 768 427 c 2
 768 437 l 1
 372 437 l 1
 372 587 l 1
 768 587 l 1
 768 597 l 2
 768 742 721 898 531 898 c 2
 510 898 l 2
 363 898 307 866 286 805 c 1
 144 855 l 1
 196 1003 333 1048 510 1048 c 2
EndSplineSet
Validated: 3073
EndChar

StartChar: iucyrillic
Encoding: 1102 1102 358
Width: 1075
VWidth: 1947
GlyphClass: 2
Flags: W
HStem: -25 150<609.971 765.586> 0 21G<94 244> 437 150<244 396> 898 150<609.729 765.586> 1004 20G<94 244>
VStem: 94 150<0 437 587 1024> 396 149<199.632 437 587 817.339> 832 150<203.91 819.948>
LayerCount: 2
Fore
SplineSet
688 898 m 3xb7
 601 898 545 798 545 513 c 3
 545 224 602 125 688 125 c 3
 776 125 832 226 832 513 c 3
 832 798 776 898 688 898 c 3xb7
982 513 m 3
 982 254 934 -25 688 -25 c 3xb7
 466 -25 406 204 396 437 c 1
 244 437 l 1
 244 -0 l 1
 94 0 l 1
 94 1024 l 1
 244 1024 l 1x6f
 244 587 l 1
 396 587 l 1
 405 822 466 1048 688 1048 c 3
 934 1048 982 770 982 513 c 3
EndSplineSet
Validated: 3073
EndChar

StartChar: iacyrillic
Encoding: 1103 1103 359
Width: 1075
VWidth: 1947
GlyphClass: 2
Flags: W
HStem: -0 21G<785 935> 412 150<600 785> 873 151<331.531 785>
VStem: 140 150<604.566 832.068> 785 150<0 412 562 873>
LayerCount: 2
Fore
SplineSet
528 873 m 2
 476 873 290 865 290 764 c 2
 290 693 l 2
 290 614 353 562 528 562 c 2
 785 562 l 1
 785 873 l 1
 528 873 l 2
140 764 m 2
 140 868 206 1024 528 1024 c 2
 935 1024 l 1
 935 0 l 1
 785 -0 l 1
 785 412 l 1
 600 412 l 1
 251 -29 l 1
 133 65 l 1
 415 420 l 1
 188 455 140 595 140 693 c 2
 140 764 l 2
EndSplineSet
Validated: 3073
EndChar

StartChar: ecyrillic
Encoding: 1108 1108 362
Width: 1075
VWidth: 1947
GlyphClass: 2
Flags: W
HStem: -25 150<419.096 757.796> 437 150<309 706> 898 150<406.684 759.35>
VStem: 159 150<246.266 437 587 789.015>
LayerCount: 2
Fore
SplineSet
567 898 m 2
 546 898 l 2
 356 898 309 742 309 597 c 2
 309 587 l 1
 706 587 l 1
 706 437 l 1
 309 437 l 1
 309 427 l 2
 309 240 417 125 546 125 c 2
 567 125 l 2
 708 125 767 154 790 215 c 1
 930 161 l 1
 876 19 743 -25 567 -25 c 2
 546 -25 l 2
 325 -25 159 166 159 427 c 2
 159 597 l 2
 159 861 293 1048 546 1048 c 2
 567 1048 l 2
 744 1048 881 1003 933 855 c 1
 791 805 l 1
 770 866 714 898 567 898 c 2
EndSplineSet
Validated: 3073
EndChar

StartChar: numero
Encoding: 8470 8470 372
Width: 1075
VWidth: 1947
Flags: W
HStem: 0 21G<54 204 402.932 562> 468 152<809.181 879.7> 1179 150<804.21 877.439> 1380 20G<54 213.068 412 562>
VStem: 54 150<0 805 1344.52 1400> 412 150<0 55.4831 595 1400> 645 130<642.897 1161.07> 911 130<635.867 1161.07>
LayerCount: 2
Fore
SplineSet
775 916 m 27
 775 798 802 620 843 620 c 3
 897 620 911 798 911 916 c 27
 911 1022 888 1179 843 1179 c 3
 795 1179 775 1022 775 916 c 27
843 1329 m 27
 1022 1329 1041 1095 1041 916 c 27
 1041 725 1034 468 843 468 c 27
 652 468 645 725 645 916 c 27
 645 1095 664 1329 843 1329 c 27
54 0 m 1
 54 1400 l 1
 208 1400 l 1
 412 595 l 1
 412 1400 l 1
 562 1400 l 1
 562 0 l 1
 408 0 l 1
 204 805 l 1
 204 0 l 1
 54 0 l 1
EndSplineSet
Validated: 3073
EndChar

StartChar: caroncomb
Encoding: 780 780 377
Width: 1075
VWidth: 1947
Flags: W
HStem: 1422 239
VStem: 295 486
LayerCount: 2
Fore
SplineSet
538 1552 m 1
 695 1661 l 1
 781 1539 l 1
 614 1422 l 1
 462 1422 l 1
 295 1539 l 1
 381 1661 l 1
 538 1552 l 1
EndSplineSet
Validated: 3073
EndChar

StartChar: gravecomb
Encoding: 768 768 379
Width: 1075
VWidth: 2334
Flags: MW
HStem: 1319 407
VStem: 369 398
DStem2: 510 1726 369 1591 0.68678 -0.726865<1.29072 374.21>
LayerCount: 2
Fore
SplineSet
767 1454 m 5
 626 1319 l 5
 369 1591 l 5
 510 1726 l 5
 767 1454 l 5
EndSplineSet
Validated: 3073
EndChar

StartChar: acutecomb
Encoding: 769 769 380
Width: 1075
VWidth: 2334
Flags: MW
HStem: 1319 407
VStem: 309 398
DStem2: 309 1454 450 1319 0.68678 0.726865<0 372.919>
LayerCount: 2
Fore
SplineSet
450 1319 m 5
 309 1454 l 5
 566 1726 l 5
 707 1591 l 5
 450 1319 l 5
EndSplineSet
Validated: 3073
EndChar

StartChar: tildecomb
Encoding: 771 771 381
Width: 1075
VWidth: 1947
Flags: W
HStem: 1447 150<567.592 731.694> 1537 150<345.02 508.508>
VStem: 199 680
LayerCount: 2
Fore
SplineSet
218 1572 m 2x60
 271 1641 316 1687 411 1687 c 2
 427 1687 l 2x60
 474 1687 522 1680 578 1632 c 2
 597 1615 l 2
 615 1599 637 1597 648 1597 c 2
 665 1597 l 2
 695 1597 707 1602 739 1650 c 2
 755 1674 l 1
 879 1590 l 1
 863 1566 l 2
 802 1474 762 1447 665 1447 c 2
 648 1447 l 2xa0
 587 1447 555 1454 497 1503 c 2
 478 1519 l 2
 463 1531 447 1537 427 1537 c 2
 411 1537 l 2
 386 1537 369 1525 338 1483 c 2
 319 1457 l 1
 199 1547 l 1
 218 1572 l 2x60
EndSplineSet
Validated: 3073
EndChar

StartChar: hookabovecomb
Encoding: 777 777 382
Width: 1075
VWidth: 1947
Flags: W
HStem: 1255 207<470 619.714> 1531 150<379.262 667.686>
VStem: 470 150<1255 1321.21> 668 150<1466.73 1525.4>
LayerCount: 2
Fore
SplineSet
818 1495 m 3
 818 1347 676 1319 620 1315 c 1
 620 1255 l 1
 470 1255 l 1
 470 1462 l 1
 545 1462 l 2
 662 1462 668 1471 668 1495 c 3
 668 1516 644 1531 557 1531 c 3
 493 1531 449 1520 397 1486 c 1
 315 1612 l 1
 387 1659 459 1681 557 1681 c 27
 682 1681 818 1626 818 1495 c 3
EndSplineSet
Validated: 3073
EndChar

StartChar: dotbelowcomb
Encoding: 803 803 383
Width: 1075
VWidth: 2334
Flags: W
HStem: -370 234<446.453 630.78>
VStem: 422 234<-343.406 -162.594>
LayerCount: 2
Fore
SplineSet
422 -253 m 27
 422 -188 473 -136 538 -136 c 27
 603 -136 656 -188 656 -253 c 27
 656 -318 603 -370 538 -370 c 27
 473 -370 422 -318 422 -253 c 27
EndSplineSet
Validated: 3073
EndChar

StartChar: commaturnedabovecmb
Encoding: 786 786 396
Width: 1075
VWidth: 1947
Flags: W
HStem: -486 150<444.786 683.719> -207 225<500 644.75>
VStem: 500 150<-74.027 18> 689 150<-320.96 -218.976>
LayerCount: 2
Fore
SplineSet
689 -270 m 27
 689 -216 612 -207 566 -207 c 2
 486 -207 l 1
 500 3 l 1
 500 18 l 1
 650 18 l 1
 650 -3 l 1
 646 -63 l 1
 825 -95 839 -208 839 -270 c 3
 839 -460 630 -486 578 -486 c 3
 478 -486 395 -449 328 -391 c 1
 426 -277 l 1
 465 -311 514 -336 578 -336 c 3
 615 -336 689 -320 689 -270 c 27
EndSplineSet
Validated: 3073
EndChar

StartChar: Hbar
Encoding: 294 294 400
Width: 1075
VWidth: 1947
Flags: W
HStem: 0 21G<140 290 785 935> 657 150<290 785> 1095 150<60 140 290 785 935 1015> 1380 20G<140 290 785 935>
VStem: 140 150<0 657 807 1095 1245 1400> 785 150<0 657 807 1095 1245 1400>
LayerCount: 2
Fore
SplineSet
290 -0 m 1
 140 0 l 1
 140 1095 l 1
 60 1095 l 1
 60 1245 l 1
 140 1245 l 1
 140 1400 l 1
 290 1400 l 1
 290 1245 l 1
 785 1245 l 1
 785 1400 l 1
 935 1400 l 1
 935 1245 l 1
 1015 1245 l 1
 1015 1095 l 1
 935 1095 l 1
 935 -0 l 1
 785 0 l 1
 785 657 l 1
 290 657 l 1
 290 -0 l 1
290 807 m 1
 785 807 l 1
 785 1095 l 1
 290 1095 l 1
 290 807 l 1
EndSplineSet
Validated: 3073
EndChar

StartChar: hbar
Encoding: 295 295 401
Width: 1075
VWidth: 1947
Flags: W
HStem: 0 21G<140 290 785 935> 899 150<420.286 733.988> 1205 150<60 140 290 552> 1380 20G<140 290>
VStem: 140 150<0 744.065 938 1205 1355 1400> 785 150<0 846.493>
LayerCount: 2
Fore
SplineSet
290 -0 m 1
 140 0 l 1
 140 1205 l 1
 60 1205 l 1
 60 1355 l 1
 140 1355 l 1
 140 1400 l 1
 290 1400 l 1
 290 1355 l 1
 552 1355 l 1
 552 1205 l 1
 290 1205 l 1
 290 938 l 1
 353 1004 434 1049 528 1049 c 2
 548 1049 l 2
 825 1049 935 917 935 719 c 2
 935 0 l 1
 785 -0 l 1
 785 719 l 2
 785 827 746 899 548 899 c 2
 528 899 l 2
 398 899 290 700 290 597 c 2
 290 -0 l 1
EndSplineSet
Validated: 3073
EndChar

StartChar: IJ
Encoding: 306 306 410
Width: 1075
VWidth: 1947
Flags: W
HStem: -15 150<117 273 423 639> 262 150<504 635.337> 1265 150<117 273 423 652 802 959>
VStem: 273 150<135 1265> 652 150<417.693 1265>
LayerCount: 2
Fore
SplineSet
592 412 m 1
 622 414 652 446 652 597 c 2
 652 1265 l 1
 423 1265 l 1
 423 135 l 1
 639 135 l 1
 639 -15 l 1
 117 -15 l 1
 117 135 l 1
 273 135 l 1
 273 1265 l 1
 117 1265 l 1
 117 1415 l 1
 959 1415 l 1
 959 1265 l 1
 802 1265 l 1
 802 597 l 2
 802 500 788 439 775 403 c 0
 723 258 611 264 592 262 c 1
 504 262 l 1
 504 412 l 1
 592 412 l 1
EndSplineSet
Validated: 3073
EndChar

StartChar: Tbar
Encoding: 358 358 430
Width: 1075
VWidth: 1947
Flags: W
HStem: -0 21G<463 613> 485 150<86 463 613 990> 1250 150<86 463 613 990>
VStem: 463 150<0 485 635 1250>
LayerCount: 2
Fore
SplineSet
990 1400 m 1
 990 1250 l 1
 613 1250 l 1
 613 635 l 1
 990 635 l 1
 990 485 l 1
 613 485 l 1
 613 0 l 1
 463 -0 l 1
 463 485 l 1
 86 485 l 1
 86 635 l 1
 463 635 l 1
 463 1250 l 1
 86 1250 l 1
 86 1400 l 1
 990 1400 l 1
EndSplineSet
Validated: 3073
EndChar

StartChar: tbar
Encoding: 359 359 431
Width: 1075
VWidth: 1947
Flags: W
HStem: -25 150<493.67 743.618> 485 150<86 340 499 990> 858 150<109 361 520 860> 1405 20G<391.897 544>
VStem: 325 150<150.343 473.269> 762 150<148.195 215>
LayerCount: 2
Fore
SplineSet
609 -25 m 2
 369 -25 325 133 325 210 c 0
 325 213 325 217 325 220 c 2
 340 485 l 1
 86 485 l 1
 86 635 l 1
 349 635 l 1
 361 858 l 1
 109 858 l 1
 109 1008 l 1
 370 1008 l 1
 393 1425 l 1
 544 1425 l 1
 520 1008 l 1
 860 1008 l 1
 860 858 l 1
 511 858 l 1
 499 635 l 1
 990 635 l 1
 990 485 l 1
 490 485 l 1
 475 220 l 2
 475 219 475 217 475 216 c 0
 475 170 522 125 609 125 c 2
 629 125 l 2
 707 125 762 169 762 215 c 1
 912 215 l 1
 912 79 781 -25 629 -25 c 2
 609 -25 l 2
EndSplineSet
Validated: 3073
EndChar

StartChar: A
Encoding: 65 65 461
Width: 1075
VWidth: 1708
Flags: W
HStem: 0 21G<116 276.06 799.94 960> 249 150<372 704> 1405 20G<472.919 603.081>
LayerCount: 2
Fore
SplineSet
372 399 m 1
 704 399 l 1
 538 1052 l 1
 372 399 l 1
271 0 m 1
 116 0 l 1
 478 1425 l 1
 598 1425 l 1
 960 0 l 1
 805 0 l 1
 742 249 l 1
 334 249 l 1
 271 0 l 1
EndSplineSet
Validated: 3073
EndChar

StartChar: Lambda
Encoding: 923 923 462
Width: 1075
VWidth: 1708
Flags: W
HStem: -0 21G<116 276.076 799.924 960> 1405 20G<472.919 603.081>
LayerCount: 2
Fore
SplineSet
271 0 m 1
 219 0 168 0 116 -0 c 1
 478 1425 l 1
 598 1425 l 1
 960 0 l 1
 908 0 857 0 805 0 c 1
 538 1052 l 1
 271 0 l 1
EndSplineSet
Validated: 3073
EndChar

StartChar: Delta
Encoding: 916 916 463
Width: 1075
VWidth: 1708
Flags: W
HStem: 0 150<311 764> 1405 20G<472.961 603.025>
LayerCount: 2
Fore
SplineSet
764 151 m 1
 538 1049 l 1
 311 150 l 1
 764 151 l 1
119 0 m 1
 478 1425 l 1
 598 1425 l 1
 956 0 l 1
 119 0 l 1
EndSplineSet
Validated: 3073
EndChar

StartChar: Theta
Encoding: 920 920 464
Width: 1075
VWidth: 1947
Flags: W
HStem: -25 150<418.097 659.181> 624 150<417 659> 1275 150<403.143 673.48>
VStem: 129 150<339.385 1104.74> 417 242<624 774> 797 150<323.793 1104.79>
CounterMasks: 1 1c
LayerCount: 2
Fore
SplineSet
947 765 m 2
 947 696 l 2
 947 76 707 -24 545 -25 c 2
 532 -25 l 2
 371 -25 129 74 129 696 c 2
 129 763 l 2
 129 1064 190 1425 531 1425 c 2
 545 1425 l 2
 888 1425 947 1063 947 765 c 2
545 1275 m 2
 531 1275 l 2
 371 1275 279 1137 279 763 c 2
 279 696 l 2
 279 437 322 125 532 125 c 2
 545 125 l 2
 755 126 797 436 797 696 c 2
 797 765 l 2
 797 1138 706 1275 545 1275 c 2
659 774 m 1
 659 624 l 1
 417 624 l 1
 417 774 l 1
 659 774 l 1
EndSplineSet
Validated: 3073
EndChar

StartChar: Xi
Encoding: 926 926 465
Width: 1075
VWidth: 1708
Flags: W
HStem: 0 337<140 290 785 935> 0 150<290 785> 625 150<349 727> 1049 351<140 290 785 935> 1250 150<290 785>
VStem: 140 150<150 337 1049 1250> 785 150<150 337 1049 1250>
LayerCount: 2
Fore
SplineSet
140 1049 m 1x36
 140 1400 l 1
 935 1400 l 1
 935 1049 l 1
 785 1049 l 1x36
 785 1250 l 1
 290 1250 l 1x2e
 290 1049 l 1
 140 1049 l 1x36
727 775 m 1
 727 625 l 1
 349 625 l 1
 349 775 l 1
 727 775 l 1
290 150 m 1x66
 785 150 l 1x66
 785 337 l 1
 935 337 l 1
 935 0 l 1
 140 0 l 1
 140 337 l 1
 290 337 l 1xa6
 290 150 l 1x66
EndSplineSet
Validated: 3073
EndChar

StartChar: Sigma
Encoding: 931 931 468
Width: 1075
VWidth: 1947
Flags: W
HStem: -25 150<286 967> 1250 150<296 967>
LayerCount: 2
Fore
SplineSet
109 1400 m 1
 967 1400 l 1
 967 1250 l 1
 296 1250 l 1
 626 737 l 1
 286 125 l 1
 967 125 l 1
 967 -25 l 1
 109 -25 l 1
 109 116 l 1
 452 731 l 1
 109 1263 l 1
 109 1400 l 1
EndSplineSet
Validated: 3073
EndChar

StartChar: Psi
Encoding: 936 936 473
Width: 1075
VWidth: 1947
Flags: W
HStem: -24 21G<463 613> 437 150<315.361 463 613 773.356> 1405 20G<463 613>
VStem: 117 150<636.5 1350> 463 150<-24 437 587 1425> 809 150<623.241 1350>
CounterMasks: 1 1c
LayerCount: 2
Fore
SplineSet
613 -24 m 1
 463 -24 l 1
 463 437 l 1
 405 437 l 2
 253 437 117 588 117 728 c 2
 117 1350 l 1
 267 1350 l 1
 267 728 l 2
 267 672 335 587 405 587 c 2
 463 587 l 1
 463 1425 l 1
 613 1425 l 1
 613 587 l 1
 671 587 l 2
 754 587 809 650 809 728 c 2
 809 1350 l 1
 959 1350 l 1
 959 728 l 2
 959 572 840 437 671 437 c 2
 613 437 l 1
 613 -24 l 1
EndSplineSet
Validated: 3073
EndChar

StartChar: Omega
Encoding: 937 937 474
Width: 1075
VWidth: 1947
Flags: W
HStem: 0 150<109 297 779 967> 1276 150<385.961 690.482>
VStem: 129 150<527.031 1139.54> 297 150<150 335.557> 629 150<150 332.643> 797 150<519.858 1140.77>
LayerCount: 2
Fore
SplineSet
297 150 m 1
 297 290 l 1
 165 421 129 627 129 817 c 2
 129 872 l 2
 129 1270 290 1426 531 1426 c 2
 545 1426 l 2
 786 1426 947 1271 947 874 c 2
 947 817 l 2
 947 651 920 415 779 287 c 1
 779 150 l 1
 967 150 l 1
 967 0 l 1
 629 0 l 1
 629 362 l 1
 660 384 l 2
 750 448 797 609 797 817 c 2
 797 874 l 2
 797 1174 706 1276 545 1276 c 2
 531 1276 l 2
 371 1276 279 1173 279 872 c 2
 279 817 l 2
 279 541 360 430 420 381 c 2
 447 358 l 1
 447 0 l 1
 109 0 l 1
 109 150 l 1
 297 150 l 1
EndSplineSet
Validated: 3073
EndChar

StartChar: alpha
Encoding: 945 945 483
Width: 1075
VWidth: 1947
Flags: W
HStem: -40 150<410.682 585.476> -16 21G<782.723 878.25> 913 150<410.682 585.264> 1020 20G<779.714 875.25>
VStem: 174 150<226.514 797.91>
LayerCount: 2
Fore
SplineSet
673 515 m 1xa8
 608 816 l 2
 596 870 563 913 488 913 c 0
 390 913 324 754 324 513 c 0
 324 270 390 110 488 110 c 0
 551 110 592 139 607 207 c 2
 673 515 l 1xa8
826 515 m 1
 933 16 l 1
 787 -16 l 1x58
 750 157 l 1
 716 36 621 -40 488 -40 c 0
 247 -40 174 258 174 513 c 0
 174 768 247 1063 488 1063 c 0xa8
 620 1063 713 986 748 872 c 1
 784 1040 l 1x18
 930 1008 l 1
 826 515 l 1
EndSplineSet
Validated: 3073
EndChar

StartChar: beta
Encoding: 946 946 484
Width: 1075
VWidth: 2334
Flags: W
HStem: -25 150<331.375 758.623> 474 150<469 698.975> 899 150<341.372 727.838>
VStem: 140 150<-321 20 166.722 846.493> 769 150<687.976 858.865> 807 150<166.722 421.552>
LayerCount: 2
Fore
SplineSet
140 719 m 2xf4
 140 917 251 1049 528 1049 c 2
 532 1049 l 1
 699 1045 919 1004 919 784 c 0xf8
 919 703 883 625 817 568 c 1
 920 508 957 411 957 325 c 2
 957 259 l 2
 957 145 896 -25 571 -25 c 2
 528 -25 l 2
 424 -25 347 -7 290 20 c 1
 290 -321 l 1
 140 -321 l 1
 140 719 l 2xf4
769 784 m 0
 769 830 741 895 532 899 c 1
 528 899 l 2
 329 899 290 827 290 719 c 2
 290 259 l 2
 290 198 321 125 528 125 c 2
 571 125 l 2
 776 125 807 198 807 259 c 2
 807 325 l 2xf4
 807 444 682 474 570 474 c 2
 469 474 l 1
 469 624 l 1
 532 624 l 2
 705 624 769 717 769 784 c 0
EndSplineSet
Validated: 3073
EndChar

StartChar: gamma
Encoding: 947 947 485
Width: 1075
VWidth: 2334
Flags: W
HStem: -385 21G<464 614> 1004 20G<137 301.63 775.397 940>
VStem: 464 150<-385 37>
LayerCount: 2
Fore
SplineSet
464 -385 m 1
 464 37 l 1
 137 1024 l 1
 295 1024 l 1
 539 288 l 1
 782 1024 l 1
 940 1024 l 1
 614 37 l 1
 614 -385 l 1
 464 -385 l 1
EndSplineSet
Validated: 3073
EndChar

StartChar: delta
Encoding: 948 948 486
Width: 1075
VWidth: 2334
Flags: W
HStem: -25 150<400.959 686.929> 1250 150<415 860>
VStem: 140 150<246.266 795.127> 785 150<233.951 804.612>
LayerCount: 2
Fore
SplineSet
290 597 m 2
 290 427 l 2
 290 240 398 125 528 125 c 2
 548 125 l 2
 738 125 785 280 785 427 c 2
 785 597 l 2
 785 774 758 802 671 869 c 0
 634 897 598 899 548 899 c 2
 528 899 l 2
 338 899 290 741 290 597 c 2
144 1400 m 1
 860 1400 l 1
 860 1250 l 1
 415 1250 l 1
 749 998 l 0
 871 924 935 778 935 597 c 2
 935 427 l 2
 935 161 800 -25 548 -25 c 2
 528 -25 l 2
 307 -25 140 166 140 427 c 2
 140 597 l 2
 140 829 245 1003 443 1041 c 1
 144 1267 l 1
 144 1400 l 1
EndSplineSet
Validated: 3073
EndChar

StartChar: epsilon
Encoding: 949 949 487
Width: 1075
VWidth: 2334
Flags: W
HStem: -25 150<355.597 764.667> 458 150<358.686 708> 899 150<339.686 767.684>
VStem: 140 150<186.496 395 671.566 856.713>
LayerCount: 2
Fore
SplineSet
770 852 m 1
 746 876 700 899 572 899 c 2
 528 899 l 2
 322 899 290 825 290 764 c 0
 290 702 350 608 532 608 c 2
 708 608 l 1
 708 458 l 1
 532 458 l 1
 322 450 290 345 290 317 c 2
 290 300 l 2
 290 160 419 125 528 125 c 2
 572 125 l 2
 694 125 738 139 771 175 c 1
 881 73 l 1
 808 -7 713 -25 572 -25 c 2
 528 -25 l 2
 278 -25 140 114 140 300 c 2
 140 317 l 2
 140 353 154 457 266 533 c 1
 184 591 140 676 140 764 c 0
 140 878 202 1049 528 1049 c 2
 572 1049 l 2
 803 1049 860 974 886 948 c 1
 770 852 l 1
EndSplineSet
Validated: 3073
EndChar

StartChar: zeta
Encoding: 950 950 488
Width: 1075
VWidth: 2334
Flags: W
HStem: -369 150<538 763.533> -25 150<359.676 767.7>
VStem: 140 150<198.463 449.702> 785 150<-194.145 -50.7521>
LayerCount: 2
Fore
SplineSet
944 903 m 1
 939 898 l 2
 863 822 744 739 706 715 c 2
 467 564 l 2
 401 522 290 440 290 357 c 2
 290 337 l 2
 290 213 346 125 528 125 c 2
 548 125 l 2
 698 125 935 71 935 -104 c 3
 935 -195 926 -278 799 -333 c 0
 727 -364 630 -369 538 -369 c 1
 538 -219 l 1
 645 -219 703 -210 739 -195 c 1
 780 -176 785 -136 785 -104 c 3
 785 -25 606 -25 548 -25 c 2
 528 -25 l 2
 269 -25 140 123 140 337 c 2
 140 357 l 2
 140 519 297 633 387 690 c 2
 687 882 l 1
 583 894 472 923 388 991 c 1
 482 1107 l 1
 566 1039 703 1024 884 1024 c 2
 944 1024 l 1
 944 903 l 1
EndSplineSet
Validated: 3073
EndChar

StartChar: eta
Encoding: 951 951 489
Width: 1075
VWidth: 2334
Flags: W
HStem: -385 21G<785 935> 0 21G<140 290> 899 150<420.286 733.988> 1004 20G<140 290>
VStem: 140 150<0 744.065 938 1024> 785 150<-385 846.493>
LayerCount: 2
Fore
SplineSet
290 -0 m 1xec
 140 0 l 1
 140 1024 l 1
 290 1024 l 1xdc
 290 938 l 1
 353 1004 434 1049 528 1049 c 2
 548 1049 l 2
 825 1049 935 917 935 719 c 2
 935 -385 l 1
 785 -385 l 1
 785 719 l 2
 785 827 746 899 548 899 c 2
 528 899 l 2
 398 899 290 700 290 597 c 2
 290 -0 l 1xec
EndSplineSet
Validated: 3073
EndChar

StartChar: theta
Encoding: 952 952 490
Width: 1075
VWidth: 1947
Flags: W
HStem: -25 150<383.917 689.952> 437 150<280 796> 898 150<381.303 691.932>
VStem: 129 151<246.487 437 587 782.724> 796 151<244.898 437 587 781.68>
LayerCount: 2
Fore
SplineSet
558 898 m 2
 513 898 l 2
 336 898 284 737 279 587 c 1
 796 587 l 1
 791 737 739 898 558 898 c 2
947 562 m 2
 947 470 l 2
 947 187 821 -25 555 -25 c 2
 515 -25 l 2
 247 -25 129 200 129 471 c 2
 129 561 l 2
 129 830 250 1048 513 1048 c 2
 558 1048 l 2
 822 1048 947 833 947 562 c 2
796 437 m 1
 280 437 l 1
 287 284 339 125 515 125 c 2
 555 125 l 2
 736 125 790 280 796 437 c 1
EndSplineSet
Validated: 3073
EndChar

StartChar: lambda
Encoding: 955 955 491
Width: 1075
VWidth: 2334
Flags: W
HStem: 0 21G<137 301.603 775.37 940> 1390 20G<320 484.553>
LayerCount: 2
Fore
SplineSet
137 0 m 1
 459 975 l 1
 320 1410 l 1
 478 1410 l 1
 940 -0 l 1
 887 0 835 0 782 0 c 1
 538 736 l 1
 295 0 l 1
 242 0 190 0 137 0 c 1
EndSplineSet
Validated: 3073
EndChar

StartChar: xi
Encoding: 958 958 494
Width: 1075
VWidth: 2334
Flags: W
HStem: -369 150<535 717> -25 150<355.597 750.785> 458 150<362.141 754>
VStem: 140 150<186.496 392.887 671.419 860.615> 785 150<-160.546 -62.9883>
LayerCount: 2
Fore
SplineSet
290 317 m 2
 290 300 l 2
 290 160 419 125 528 125 c 2
 572 125 l 2
 660 125 835 79 902 0 c 0
 931 -34 935 -68 935 -88 c 2
 935 -120 l 2
 935 -178 902 -228 854 -266 c 0
 805 -305 699 -363 535 -369 c 1
 535 -219 l 1
 687 -213 785 -140 785 -120 c 2
 785 -96 l 2
 785 -72 664 -25 572 -25 c 2
 528 -25 l 2
 278 -25 140 114 140 300 c 2
 140 317 l 2
 140 329 144 446 266 532 c 1
 183 590 140 676 140 764 c 0
 140 981 300 1028 458 1065 c 1
 389 1097 328 1141 275 1189 c 1
 377 1299 l 1
 469 1215 584 1157 725 1152 c 2
 794 1149 l 1
 794 1035 l 1
 763 1014 l 2
 562 882 290 952 290 764 c 0
 290 702 350 608 532 608 c 2
 754 608 l 1
 754 458 l 1
 532 458 l 2
 373 458 290 371 290 317 c 2
EndSplineSet
Validated: 3073
EndChar

StartChar: pi
Encoding: 960 960 496
Width: 1075
VWidth: 2334
Flags: W
HStem: 0 21G<192 371 702 878> 822 167<109 235.07> 874 150<395 681 831 957.533>
VStem: 245 150<16.5863 868> 681 150<5.07404 874>
LayerCount: 2
Fore
SplineSet
109 989 m 1xd8
 171 1012 246 1024 343 1024 c 2
 733 1024 l 2
 864 1024 930 1048 967 1075 c 1
 967 908 l 1
 927 894 882 884 831 879 c 1
 831 168 l 2
 831 107 849 47 878 -0 c 1
 823 0 767 0 712 0 c 1
 692 54 681 112 681 168 c 2
 681 874 l 1
 395 874 l 1xb8
 395 168 l 2
 395 118 383 59 359 -0 c 1
 303 0 248 0 192 0 c 1
 223 52 245 115 245 168 c 2
 245 868 l 1
 182 860 140 843 109 822 c 1
 109 989 l 1xd8
EndSplineSet
Validated: 3073
EndChar

StartChar: rho
Encoding: 961 961 497
Width: 1075
VWidth: 2334
Flags: W
HStem: -385 21G<140 290> -25 150<384.439 687.316> 899 150<388.964 675.321>
VStem: 140 150<-385 52 227.443 790.049> 785 150<234.811 777.734>
LayerCount: 2
Fore
SplineSet
548 -25 m 2
 528 -25 l 2
 431 -25 351 3 290 52 c 1
 290 -385 l 1
 140 -385 l 1
 140 597 l 2
 140 863 276 1049 528 1049 c 2
 548 1049 l 2
 770 1049 935 858 935 597 c 2
 935 427 l 2
 935 163 801 -25 548 -25 c 2
785 427 m 2
 785 597 l 2
 785 768 690 899 548 899 c 2
 528 899 l 2
 338 899 290 743 290 597 c 2
 290 427 l 2
 290 283 338 125 528 125 c 2
 548 125 l 2
 738 125 785 283 785 427 c 2
EndSplineSet
Validated: 3073
EndChar

StartChar: sigmafinal
Encoding: 962 962 498
Width: 1075
VWidth: 2059
Flags: W
HStem: -369 150<535 744.2> -25 150<400.959 758.613> 896 150<449.447 875.833>
VStem: 140 150<245.844 744.886> 785 150<-178.323 -58.5586>
LayerCount: 2
Fore
SplineSet
785 -92 m 2
 785 -83 738 -25 548 -25 c 2
 528 -25 l 2
 307 -25 140 165 140 427 c 2
 140 597 l 2
 140 855 345 1046 646 1046 c 0
 722 1046 802 1032 886 1005 c 2
 933 990 l 1
 887 848 l 1
 840 863 l 2
 769 886 704 896 646 896 c 0
 434 896 290 776 290 597 c 2
 290 427 l 2
 290 255 386 125 528 125 c 2
 548 125 l 2
 860 125 935 -8 935 -92 c 2
 935 -111 l 2
 935 -136 935 -205 865 -271 c 0
 820 -313 725 -369 535 -369 c 1
 535 -219 l 1
 585 -219 785 -213 785 -111 c 2
 785 -92 l 2
EndSplineSet
Validated: 3073
EndChar

StartChar: sigma
Encoding: 963 963 499
Width: 1075
VWidth: 1947
Flags: W
HStem: -25 150<376.68 675.359> 857 150<864 1003> 898 150<378.103 679.528>
VStem: 129 150<245.157 789.217> 774 150<243.078 786.647>
LayerCount: 2
Fore
SplineSet
546 898 m 2xb8
 501 898 l 2
 344 898 279 766 279 561 c 2
 279 471 l 2
 279 299 324 125 503 125 c 2
 544 125 l 2
 709 125 774 259 774 470 c 2
 774 562 l 2
 774 729 728 898 546 898 c 2xb8
924 562 m 2
 924 470 l 2
 924 55 696 -25 544 -25 c 2
 503 -25 l 2
 353 -25 129 59 129 471 c 2
 129 561 l 2
 129 828 236 1048 501 1048 c 2
 546 1048 l 2xb8
 619 1048 680 1032 731 1003 c 1
 731 1007 l 1
 1003 1008 l 1
 1003 857 l 1
 864 857 l 1xd8
 905 775 924 673 924 562 c 2
EndSplineSet
Validated: 3073
EndChar

StartChar: tau
Encoding: 964 964 500
Width: 1075
VWidth: 2334
Flags: W
HStem: 0 21G<341 547.5> 874 150<176.405 463 613 877.485>
VStem: 463 150<140.416 874>
LayerCount: 2
Fore
SplineSet
343 1024 m 2
 733 1024 l 2
 840 1024 925 1095 967 1152 c 1
 967 948 l 1
 902 905 823 874 733 874 c 2
 613 874 l 1
 613 358 l 2
 613 235 576 105 519 -0 c 1
 460 0 400 0 341 0 c 1
 404 82 463 219 463 358 c 2
 463 874 l 1
 343 874 l 2
 232 874 153 824 109 774 c 1
 109 964 l 1
 172 1000 251 1024 343 1024 c 2
EndSplineSet
Validated: 3073
EndChar

StartChar: upsilon
Encoding: 965 965 501
Width: 1075
VWidth: 1947
Flags: W
HStem: -25 150<397.197 681.306> 898 150<573 709.138> 1004 20G<140 290>
VStem: 140 150<259.977 1024> 797 150<260.148 794.298>
LayerCount: 2
Fore
SplineSet
947 513 m 0xd8
 947 56 702 -25 538 -25 c 0
 379 -25 140 46 140 513 c 0
 140 683 140 854 140 1024 c 1
 290 1024 l 1xb8
 290 854 290 683 290 513 c 0
 290 214 389 125 538 125 c 0
 693 125 797 225 797 513 c 0
 797 821 719 898 573 898 c 1
 573 1048 l 1
 875 1048 947 810 947 513 c 0xd8
EndSplineSet
Validated: 3073
EndChar

StartChar: phi
Encoding: 966 966 502
Width: 1075
VWidth: 1947
Flags: W
HStem: -385 21G<463 613> -19 152<370.598 463 613 705.402> 898 150<635.893 775.21>
VStem: 83 150<292.948 973> 463 150<-385 -10.3337 133 882.04> 843 150<291.041 809.914>
CounterMasks: 1 1c
LayerCount: 2
Fore
SplineSet
463 734 m 2
 463 795 469 880 521 953 c 0
 562 1011 626 1048 704 1048 c 1
 749 1045 791 1041 843 999 c 0
 963 903 993 692 993 513 c 3
 993 218 844 17 613 -19 c 1
 613 -385 l 1
 463 -385 l 1
 463 -19 l 1
 232 17 83 218 83 513 c 2
 83 973 l 1
 233 973 l 1
 233 513 l 2
 233 312 315 168 463 133 c 1
 463 734 l 2
704 898 m 1
 616 898 613 771 613 734 c 2
 613 133 l 1
 763 169 843 314 843 513 c 3
 843 737 795 846 750 882 c 0
 736 893 727 896 704 898 c 1
EndSplineSet
Validated: 3073
EndChar

StartChar: chi
Encoding: 967 967 503
Width: 1075
VWidth: 2062
Flags: W
HStem: -385 21G<156 327.578 740.273 978> 1004 20G<116 326 747.515 919>
LayerCount: 2
Fore
SplineSet
156 -385 m 1
 452 309 l 1
 387 541 l 2
 344 694 267 838 220 896 c 2
 116 1024 l 1
 310 1024 l 1
 334 994 l 2
 411 900 492 717 531 581 c 2
 546 529 l 1
 756 1024 l 1
 919 1024 l 1
 611 299 l 1
 645 176 l 2
 704 -32 785 -199 842 -255 c 2
 978 -385 l 1
 763 -385 l 1
 738 -363 l 2
 642 -278 566 -73 518 79 c 1
 319 -385 l 1
 156 -385 l 1
EndSplineSet
Validated: 3073
EndChar

StartChar: psi
Encoding: 968 968 504
Width: 1075
VWidth: 1947
Flags: W
HStem: -385 21G<463 613> -19 152<370.598 463 613 695.65> 1029 20G<463 613>
VStem: 83 150<292.948 973> 463 150<-385 -10.3337 134 1049> 843 150<305.907 973>
CounterMasks: 1 1c
LayerCount: 2
Fore
SplineSet
463 1049 m 1
 613 1049 l 1
 613 134 l 1
 763 173 843 329 843 513 c 2
 843 973 l 1
 993 973 l 1
 993 513 l 2
 993 233 844 19 613 -19 c 1
 613 -385 l 1
 463 -385 l 1
 463 -19 l 1
 232 17 83 218 83 513 c 2
 83 973 l 1
 233 973 l 1
 233 513 l 2
 233 312 315 168 463 133 c 1
 463 1049 l 1
EndSplineSet
Validated: 3073
EndChar

StartChar: omega
Encoding: 969 969 505
Width: 1075
VWidth: 2334
Flags: W
HStem: -25 150<284.2 452.861 623.647 788.163> 1004 20G<136.5 358 718 941.5>
VStem: 94 150<165.266 931.522> 463 150<135.558 732> 832 150<168.4 931.411>
CounterMasks: 1 38
LayerCount: 2
Fore
SplineSet
94 734 m 2
 94 869 103 936 170 1024 c 1
 358 1024 l 1
 259 893 244 897 244 734 c 2
 244 336 l 2
 244 183 312 125 338 125 c 2
 350 125 l 2
 436 125 463 154 463 215 c 2
 463 732 l 1
 613 732 l 1
 613 215 l 2
 613 159 638 125 722 125 c 2
 733 125 l 2
 794 125 832 260 832 337 c 2
 832 734 l 2
 832 898 812 902 718 1024 c 1
 907 1024 l 1
 976 940 982 837 982 734 c 2
 982 337 l 2
 982 258 962 129 887 46 c 0
 824 -23 764 -25 733 -25 c 2
 722 -25 l 2
 663 -25 595 -14 540 30 c 1
 481 -20 405 -25 350 -25 c 2
 338 -25 l 2
 240 -25 94 65 94 336 c 2
 94 734 l 2
EndSplineSet
Validated: 3073
EndChar

StartChar: dieresiscmb
Encoding: 776 776 508
Width: 1075
VWidth: 1947
Flags: W
HStem: 1250 228<263.312 434.411 641.311 811.456>
VStem: 238 223<1276.07 1454.49> 617 219<1275.15 1455.47>
LayerCount: 2
Fore
SplineSet
461 1367 m 0
 461 1306 410 1250 350 1250 c 0
 290 1250 238 1302 238 1367 c 0
 238 1434 293 1478 349 1478 c 0
 413 1478 461 1426 461 1367 c 0
836 1367 m 0
 836 1299 783 1250 727 1250 c 0
 669 1250 617 1303 617 1367 c 0
 617 1432 669 1478 727 1478 c 0
 780 1478 836 1434 836 1367 c 0
EndSplineSet
Validated: 3073
EndChar

StartChar: Djecyrillic
Encoding: 1026 1026 512
Width: 1075
VWidth: 2334
Flags: W
HStem: 0 150<707 791.433> 829 150<616.144 807.765> 1250 150<86 349 499 863>
VStem: 349 150<0 642.793 876 1250> 820 150<174.288 816.439>
LayerCount: 2
Fore
SplineSet
820 719 m 2
 820 826 759 829 699 829 c 2
 678 829 l 2
 597 829 499 577 499 417 c 2
 499 -0 l 1
 349 0 l 1
 349 1250 l 1
 86 1250 l 1
 86 1400 l 1
 863 1400 l 1
 863 1250 l 1
 499 1250 l 1
 499 876 l 1
 541 923 606 979 678 979 c 2
 699 979 l 2
 759 979 893 976 952 829 c 1
 964 796 970 759 970 719 c 2
 970 336 l 2
 970 57 825 0 728 0 c 2
 707 0 l 1
 707 150 l 1
 728 150 l 2
 765 150 820 171 820 336 c 2
 820 719 l 2
EndSplineSet
Validated: 3073
EndChar

StartChar: Ljecyrillic
Encoding: 1033 1033 513
Width: 1075
VWidth: 1947
Flags: W
HStem: 0 150<626 823.186> 722 150<626 798.143> 1250 150<376.726 476>
VStem: 476 150<150 722 872 1250> 866 150<196.456 651.348>
LayerCount: 2
Fore
SplineSet
626 722 m 1
 626 150 l 1
 649 150 l 2
 840 150 866 214 866 337 c 2
 866 495 l 2
 866 646 804 722 649 722 c 2
 626 722 l 1
187 1082 m 2
 203 1239 269 1330 311 1367 c 0
 348 1399 382 1400 390 1400 c 2
 626 1400 l 1
 626 872 l 1
 649 872 l 2
 909 872 1016 706 1016 495 c 2
 1016 337 l 2
 1016 67 850 0 649 0 c 2
 476 0 l 1
 476 1250 l 1
 406 1250 l 1
 386 1228 347 1164 337 1068 c 2
 228 -0 l 1
 178 0 127 0 77 -0 c 1
 187 1082 l 2
EndSplineSet
Validated: 3073
EndChar

StartChar: Njecyrillic
Encoding: 1034 1034 514
Width: 1075
VWidth: 1947
Flags: W
HStem: 0 150<626 823.186> 722 150<234 476 626 798.543> 1380 20G<84 234 476 626>
VStem: 84 150<0 722 872 1400> 476 150<150 722 872 1400> 866 150<196.456 651.348>
LayerCount: 2
Fore
SplineSet
649 872 m 2
 910 872 1016 706 1016 495 c 2
 1016 337 l 2
 1016 67 850 0 649 0 c 2
 476 0 l 1
 476 722 l 1
 234 722 l 1
 233 -0 l 1
 84 0 l 1
 84 1400 l 1
 234 1400 l 1
 234 872 l 1
 476 872 l 1
 476 1400 l 1
 626 1400 l 1
 626 872 l 1
 649 872 l 2
626 722 m 1
 626 150 l 1
 649 150 l 2
 841 150 866 214 866 337 c 2
 866 495 l 2
 866 646 804 722 649 722 c 2
 626 722 l 1
EndSplineSet
Validated: 3073
EndChar

StartChar: Tshecyrillic
Encoding: 1035 1035 515
Width: 1075
VWidth: 2334
Flags: W
HStem: 0 21G<349 499 820 970> 829 150<613.543 804.444> 1250 150<86 349 499 863>
VStem: 349 150<0 673.779 885 1250> 820 150<0 814.512>
LayerCount: 2
Fore
SplineSet
678 829 m 2
 643 829 499 723 499 417 c 2
 499 -0 l 1
 349 0 l 1
 349 1250 l 1
 86 1250 l 1
 86 1400 l 1
 863 1400 l 1
 863 1250 l 1
 499 1250 l 1
 499 885 l 1
 579 976 660 979 678 979 c 2
 699 979 l 2
 889 979 937 867 952 829 c 1
 967 788 970 768 970 719 c 2
 970 0 l 1
 820 -0 l 1
 820 719 l 2
 820 767 817 829 699 829 c 2
 678 829 l 2
EndSplineSet
Validated: 3073
EndChar

StartChar: Dzhecyrillic
Encoding: 1039 1039 516
Width: 1075
VWidth: 2334
Flags: W
HStem: -385 21G<463 613> 0 150<290 463 613 785> 1380 20G<140 290 785 935>
VStem: 140 150<150 1400> 463 150<-385 0> 785 150<150 1400>
LayerCount: 2
Fore
SplineSet
290 150 m 1
 785 150 l 1
 785 1400 l 1
 935 1400 l 1
 935 0 l 1
 613 0 l 1
 613 -385 l 1
 463 -385 l 1
 463 0 l 1
 140 0 l 1
 140 1400 l 1
 290 1400 l 1
 290 150 l 1
EndSplineSet
Validated: 3073
EndChar

StartChar: djecyrillic
Encoding: 1106 1106 517
Width: 1075
VWidth: 2334
Flags: W
HStem: -369 150<442.533 724.464> 0 21G<198 348> 780 150<483.075 742.303> 1110 150<40 198 348 704> 1404 20G<198 348>
VStem: 198 150<0 614.708 814 1110 1260 1424> 785 150<-157.641 732.607>
LayerCount: 2
Fore
SplineSet
348 -0 m 1
 198 0 l 1
 198 1110 l 1
 40 1110 l 1
 40 1260 l 1
 198 1260 l 1
 198 1424 l 1
 348 1424 l 1
 348 1260 l 1
 704 1260 l 1
 704 1110 l 1
 348 1110 l 1
 348 814 l 1
 411 882 492 930 585 930 c 2
 606 930 l 2
 869 930 935 761 935 553 c 2
 935 -28 l 2
 935 -209 812 -369 613 -369 c 2
 554 -369 l 2
 476 -369 391 -343 332 -279 c 1
 442 -177 l 1
 453 -189 487 -219 554 -219 c 2
 613 -219 l 2
 723 -219 785 -132 785 -28 c 2
 785 553 l 2
 785 731 738 780 606 780 c 2
 585 780 l 2
 456 780 348 565 348 463 c 2
 348 -0 l 1
EndSplineSet
Validated: 3073
EndChar

StartChar: dzhecyrillic
Encoding: 1119 1119 519
Width: 1075
VWidth: 2334
Flags: W
HStem: -385 21G<463 613> 0 151<290 463 613 785> 1004 20G<140 290 785 935>
VStem: 140 150<151 1024> 463 150<-385 0> 785 150<151 1024>
LayerCount: 2
Fore
SplineSet
290 151 m 1
 785 151 l 1
 785 1024 l 1
 935 1024 l 1
 935 0 l 1
 613 0 l 1
 613 -385 l 1
 463 -385 l 1
 463 0 l 1
 140 0 l 1
 140 1024 l 1
 290 1024 l 1
 290 151 l 1
EndSplineSet
Validated: 3073
EndChar

StartChar: ljecyrillic
Encoding: 1113 1113 520
Width: 1075
VWidth: 1947
Flags: W
HStem: 0 150<614 804.305> 486 150<615 789.652> 873 151<337.512 465>
VStem: 465 150<150 486 636 873> 832 150<178.567 445.685>
LayerCount: 2
Fore
SplineSet
699 150 m 2
 766 150 832 185 832 279 c 2
 832 357 l 2
 832 418 764 486 699 486 c 2
 614 486 l 1
 614 150 l 1
 699 150 l 2
79 0 m 1
 121 620 l 2
 139 882 231 977 369 1024 c 1
 615 1024 l 1
 615 636 l 1
 699 636 l 2
 855 636 982 493 982 357 c 2
 982 279 l 2
 982 172 934 0 699 0 c 2
 465 0 l 1
 465 873 l 1
 394 873 l 1
 320 843 282 772 271 610 c 2
 229 0 l 1
 179 0 129 0 79 0 c 1
EndSplineSet
Validated: 3073
EndChar

StartChar: njecyrillic
Encoding: 1114 1114 521
Width: 1075
VWidth: 1947
Flags: W
HStem: 0 150<614 797.659> 486 150<244 464 614 796.186> 1004 20G<94 244 464 614>
VStem: 94 150<0 486 636 1024> 464 150<150 486 636 1024> 832 150<182.799 448.414>
LayerCount: 2
Fore
SplineSet
699 150 m 2
 772 150 832 197 832 289 c 2
 832 367 l 2
 832 428 764 486 699 486 c 2
 614 486 l 1
 614 150 l 1
 699 150 l 2
982 289 m 2
 982 187 939 0 699 0 c 2
 464 0 l 1
 464 486 l 1
 244 486 l 1
 244 -0 l 1
 94 0 l 1
 94 1024 l 1
 244 1024 l 1
 244 636 l 1
 464 636 l 1
 464 1024 l 1
 614 1024 l 1
 614 636 l 1
 699 636 l 2
 855 636 982 503 982 367 c 2
 982 289 l 2
EndSplineSet
Validated: 3073
EndChar

StartChar: apostrophereverse
Encoding: 8219 8219 523
Width: 1075
VWidth: 1708
Flags: W
HStem: 963 55<658.225 692.91>
VStem: 391 169<1122.58 1382.5>
LayerCount: 2
Fore
SplineSet
689 963 m 1
 463 1008 391 1133 391 1343 c 3
 391 1422 453 1488 538 1488 c 3
 625 1488 684 1419 684 1343 c 3
 684 1295 644 1228 597 1214 c 0
 569 1206 560 1184 560 1162 c 3
 560 1096 652 1037 704 1018 c 1
 689 963 l 1
EndSplineSet
Validated: 3073
EndChar

StartChar: arrowleft
Encoding: 8592 8592 526
Width: 1075
VWidth: 1708
Flags: W
HStem: 520 160<353 949> 1027 20G<461.072 501.091>
LayerCount: 2
Fore
SplineSet
949 680 m 1
 949 520 l 1
 353 520 l 1
 596 263 l 1
 480 153 l 1
 127 526 l 1
 127 674 l 1
 480 1047 l 1
 596 937 l 1
 353 680 l 1
 949 680 l 1
EndSplineSet
Validated: 3073
EndChar

StartChar: arrowright
Encoding: 8594 8594 527
Width: 1075
VWidth: 1708
Flags: W
HStem: 520 160<127 723> 1027 20G<574.909 614.928>
LayerCount: 2
Fore
SplineSet
127 520 m 1
 127 680 l 1
 723 680 l 1
 480 937 l 1
 596 1047 l 1
 949 674 l 1
 949 526 l 1
 596 153 l 1
 480 263 l 1
 723 520 l 1
 127 520 l 1
EndSplineSet
Validated: 3073
EndChar

StartChar: lthorizform
Encoding: 9472 9472 528
Width: 1075
Flags: W
HStem: 443 160<0 1075>
LayerCount: 2
Fore
SplineSet
0 443 m 1
 -0 603 l 1
 1075 603 l 1
 1075 443 l 1
 0 443 l 1
EndSplineSet
Validated: 3073
EndChar

StartChar: ltvertform
Encoding: 9474 9474 529
Width: 1075
Flags: W
VStem: 458 160<-615 1775>
LayerCount: 2
Fore
SplineSet
618 -615 m 1
 458 -615 l 1
 458 1775 l 1
 618 1775 l 1
 618 -615 l 1
EndSplineSet
Validated: 3073
EndChar

StartChar: rightanglenw
Encoding: 9484 9484 530
Width: 1075
Flags: W
HStem: 443 160<618 1075>
VStem: 458 160<-615 443>
LayerCount: 2
Fore
SplineSet
458 -615 m 1
 458 603 l 1
 1075 603 l 1
 1075 443 l 1
 618 443 l 1
 618 -615 l 1
 458 -615 l 1
EndSplineSet
Validated: 3073
EndChar

StartChar: rightanglene
Encoding: 9488 9488 531
Width: 1075
Flags: W
HStem: 443 160<0 458>
VStem: 458 160<-615 443>
LayerCount: 2
Fore
SplineSet
458 443 m 1
 0 443 l 1
 -0 603 l 1
 618 603 l 1
 618 -615 l 1
 458 -615 l 1
 458 443 l 1
EndSplineSet
Validated: 3073
EndChar

StartChar: rightanglesw
Encoding: 9492 9492 532
Width: 1075
Flags: W
HStem: 443 160<618 1075>
VStem: 458 160<603 1775>
LayerCount: 2
Fore
SplineSet
618 603 m 1
 1075 603 l 1
 1075 443 l 1
 458 443 l 1
 458 1775 l 1
 618 1775 l 1
 618 603 l 1
EndSplineSet
Validated: 3073
EndChar

StartChar: rightanglese
Encoding: 9496 9496 533
Width: 1075
Flags: W
HStem: 443 160<0 458>
VStem: 458 160<603 1775>
LayerCount: 2
Fore
SplineSet
618 1775 m 1
 618 443 l 1
 0 443 l 1
 -0 603 l 1
 458 603 l 1
 458 1775 l 1
 618 1775 l 1
EndSplineSet
Validated: 3073
EndChar

StartChar: ltvertrightform
Encoding: 9500 9500 534
Width: 1075
Flags: W
HStem: 443 160<618 1075>
VStem: 458 160<-615 443 603 1775>
LayerCount: 2
Fore
SplineSet
618 -615 m 1
 458 -615 l 1
 458 1775 l 1
 618 1775 l 1
 618 603 l 1
 1075 603 l 1
 1075 443 l 1
 618 443 l 1
 618 -615 l 1
EndSplineSet
Validated: 3073
EndChar

StartChar: ltvertleftform
Encoding: 9508 9508 535
Width: 1075
Flags: W
HStem: 443 160<0 458>
VStem: 458 160<-615 443 603 1775>
LayerCount: 2
Fore
SplineSet
0 443 m 1
 -0 603 l 1
 458 603 l 1
 458 1775 l 1
 618 1775 l 1
 618 -615 l 1
 458 -615 l 1
 458 443 l 1
 0 443 l 1
EndSplineSet
Validated: 3073
EndChar

StartChar: ltdnhorizform
Encoding: 9516 9516 536
Width: 1075
Flags: W
HStem: 443 160<0 458 618 1075>
VStem: 458 160<-615 443>
LayerCount: 2
Fore
SplineSet
0 443 m 1
 -0 603 l 1
 1075 603 l 1
 1075 443 l 1
 618 443 l 1
 618 -615 l 1
 458 -615 l 1
 458 443 l 1
 0 443 l 1
EndSplineSet
Validated: 3073
EndChar

StartChar: ltuphorizform
Encoding: 9524 9524 537
Width: 1075
Flags: W
HStem: 443 160<0 458 618 1075>
VStem: 458 160<603 1775>
LayerCount: 2
Fore
SplineSet
0 443 m 1
 -0 603 l 1
 458 603 l 1
 458 1775 l 1
 618 1775 l 1
 618 603 l 1
 1075 603 l 1
 1075 443 l 1
 0 443 l 1
EndSplineSet
Validated: 3073
EndChar

StartChar: ltverthorizform
Encoding: 9532 9532 538
Width: 1075
Flags: W
HStem: 443 160<0 458 618 1075>
VStem: 458 160<-615 443 603 1775>
LayerCount: 2
Fore
SplineSet
0 443 m 1
 -0 603 l 1
 458 603 l 1
 458 1775 l 1
 618 1775 l 1
 618 603 l 1
 1075 603 l 1
 1075 443 l 1
 618 443 l 1
 618 -615 l 1
 458 -615 l 1
 458 443 l 1
 0 443 l 1
EndSplineSet
Validated: 3073
EndChar

StartChar: horizdblbar
Encoding: 9552 9552 539
Width: 1075
Flags: W
HStem: 283 160<0 1075> 635 160<0 1075>
LayerCount: 2
Fore
SplineSet
0 635 m 1
 -0 795 l 1
 1075 795 l 1
 1075 635 l 1
 0 635 l 1
0 283 m 1
 -0 443 l 1
 1075 443 l 1
 1075 283 l 1
 0 283 l 1
EndSplineSet
Validated: 3073
EndChar

StartChar: vertdblbar
Encoding: 9553 9553 540
Width: 1075
Flags: W
VStem: 298 160<-615 1775> 618 160<-615 1775>
LayerCount: 2
Fore
SplineSet
778 -615 m 1
 618 -615 l 1
 618 1775 l 1
 778 1775 l 1
 778 -615 l 1
458 -615 m 1
 298 -615 l 1
 298 1775 l 1
 458 1775 l 1
 458 -615 l 1
EndSplineSet
Validated: 3073
EndChar

StartChar: dnrtdblform
Encoding: 9554 9554 541
Width: 1075
Flags: W
HStem: 283 160<618 1075> 635 160<618 1075>
VStem: 458 160<-615 283 443 635>
LayerCount: 2
Fore
SplineSet
618 283 m 1
 618 -615 l 1
 458 -615 l 1
 458 795 l 1
 1075 795 l 1
 1075 635 l 1
 618 635 l 1
 618 443 l 1
 1075 443 l 1
 1075 283 l 1
 618 283 l 1
EndSplineSet
Validated: 3073
EndChar

StartChar: dndblrtform
Encoding: 9555 9555 542
Width: 1075
Flags: W
HStem: 443 160<458 618 778 1075>
VStem: 298 160<-615 443> 618 160<-615 443>
LayerCount: 2
Fore
SplineSet
778 -615 m 1
 618 -615 l 1
 618 443 l 1
 458 443 l 1
 458 -615 l 1
 298 -615 l 1
 298 603 l 1
 1075 603 l 1
 1075 443 l 1
 778 443 l 1
 778 -615 l 1
EndSplineSet
Validated: 3073
EndChar

StartChar: dbldnrtform
Encoding: 9556 9556 543
Width: 1075
Flags: W
HStem: 283 160<778 1075> 635 160<458 1075>
VStem: 298 160<-615 635> 618 160<-615 283>
LayerCount: 2
Fore
SplineSet
458 635 m 1
 458 -615 l 1
 298 -615 l 1
 298 795 l 1
 1075 795 l 1
 1075 635 l 1
 458 635 l 1
778 283 m 1
 778 -615 l 1
 618 -615 l 1
 618 443 l 1
 1075 443 l 1
 1075 283 l 1
 778 283 l 1
EndSplineSet
Validated: 3073
EndChar

StartChar: dnleftdblform
Encoding: 9557 9557 544
Width: 1075
Flags: W
HStem: 283 160<0 458> 635 160<0 458>
VStem: 458 160<-615 283 443 635>
LayerCount: 2
Fore
SplineSet
0 795 m 1
 618 795 l 1
 618 -615 l 1
 458 -615 l 1
 458 283 l 1
 0 283 l 1
 -0 443 l 1
 458 443 l 1
 458 635 l 1
 -0 635 l 1
 0 795 l 1
EndSplineSet
Validated: 3073
EndChar

StartChar: dndblleftform
Encoding: 9558 9558 545
Width: 1075
Flags: W
HStem: 443 160<0 298 458 618>
VStem: 298 160<-615 443> 618 160<-615 443>
LayerCount: 2
Fore
SplineSet
458 -615 m 1
 298 -615 l 1
 298 443 l 1
 0 443 l 1
 -0 603 l 1
 778 603 l 1
 778 -615 l 1
 618 -615 l 1
 618 443 l 1
 458 443 l 1
 458 -615 l 1
EndSplineSet
Validated: 3073
EndChar

StartChar: dbldnleftform
Encoding: 9559 9559 546
Width: 1075
Flags: W
HStem: 283 160<0 298> 635 160<0 618>
VStem: 298 160<-615 283> 618 160<-615 635>
LayerCount: 2
Fore
SplineSet
0 795 m 1
 778 795 l 1
 778 -615 l 1
 618 -615 l 1
 618 635 l 1
 -0 635 l 1
 0 795 l 1
0 443 m 1
 458 443 l 1
 458 -615 l 1
 298 -615 l 1
 298 283 l 1
 -0 283 l 1
 0 443 l 1
EndSplineSet
Validated: 3073
EndChar

StartChar: uprtdblform
Encoding: 9560 9560 547
Width: 1075
Flags: W
HStem: 283 160<618 1075> 603 160<618 1075>
VStem: 458 160<443 603 763 1775>
LayerCount: 2
Fore
SplineSet
1075 283 m 1
 458 283 l 1
 458 1775 l 1
 618 1775 l 1
 618 763 l 1
 1075 763 l 1
 1075 603 l 1
 618 603 l 1
 618 443 l 1
 1075 443 l 1
 1075 283 l 1
EndSplineSet
Validated: 3073
EndChar

StartChar: updblrtform
Encoding: 9561 9561 548
Width: 1075
Flags: W
HStem: 443 160<458 618 778 1075>
VStem: 298 160<603 1775> 618 160<603 1775>
LayerCount: 2
Fore
SplineSet
778 603 m 1
 1075 603 l 1
 1075 443 l 1
 298 443 l 1
 298 1775 l 1
 458 1775 l 1
 458 603 l 1
 618 603 l 1
 618 1775 l 1
 778 1775 l 1
 778 603 l 1
EndSplineSet
Validated: 3073
EndChar

StartChar: dbluprtform
Encoding: 9562 9562 549
Width: 1075
Flags: W
HStem: 283 160<458 1075> 635 160<778 1075>
VStem: 298 160<443 1775> 618 160<795 1775>
LayerCount: 2
Fore
SplineSet
1075 635 m 1
 618 635 l 1
 618 1775 l 1
 778 1775 l 1
 778 795 l 1
 1075 795 l 1
 1075 635 l 1
1075 283 m 1
 298 283 l 1
 298 1775 l 1
 458 1775 l 1
 458 443 l 1
 1075 443 l 1
 1075 283 l 1
EndSplineSet
Validated: 3073
EndChar

StartChar: upleftdblform
Encoding: 9563 9563 550
Width: 1075
Flags: W
HStem: 283 160<0 458> 603 160<0 458>
VStem: 458 160<443 603 763 1775>
LayerCount: 2
Fore
SplineSet
0 603 m 1
 -0 763 l 1
 458 763 l 1
 458 1775 l 1
 618 1775 l 1
 618 283 l 1
 -0 283 l 1
 0 443 l 1
 458 443 l 1
 458 603 l 1
 0 603 l 1
EndSplineSet
Validated: 3073
EndChar

StartChar: updblleftform
Encoding: 9564 9564 551
Width: 1075
Flags: W
HStem: 443 160<0 298 458 618>
VStem: 298 160<603 1775> 618 160<603 1775>
LayerCount: 2
Fore
SplineSet
778 1775 m 1
 778 443 l 1
 0 443 l 1
 -0 603 l 1
 298 603 l 1
 298 1775 l 1
 458 1775 l 1
 458 603 l 1
 618 603 l 1
 618 1775 l 1
 778 1775 l 1
EndSplineSet
Validated: 3073
EndChar

StartChar: dblupleftform
Encoding: 9565 9565 552
Width: 1075
Flags: W
HStem: 283 160<0 618> 635 160<0 298>
VStem: 298 160<795 1775> 618 160<443 1775>
LayerCount: 2
Fore
SplineSet
298 795 m 1
 298 1775 l 1
 458 1775 l 1
 458 635 l 1
 -0 635 l 1
 0 795 l 1
 298 795 l 1
618 443 m 1
 618 1775 l 1
 778 1775 l 1
 778 283 l 1
 -0 283 l 1
 0 443 l 1
 618 443 l 1
EndSplineSet
Validated: 3073
EndChar

StartChar: vertrtdblform
Encoding: 9566 9566 553
Width: 1075
Flags: W
HStem: 283 160<618 1075> 603 160<618 1075>
VStem: 458 160<-615 283 443 603 763 1775>
LayerCount: 2
Fore
SplineSet
618 -615 m 1
 458 -615 l 1
 458 1775 l 1
 618 1775 l 1
 618 763 l 1
 1075 763 l 1
 1075 603 l 1
 618 603 l 1
 618 443 l 1
 1075 443 l 1
 1075 283 l 1
 618 283 l 1
 618 -615 l 1
EndSplineSet
Validated: 3073
EndChar

StartChar: vertdblrtform
Encoding: 9567 9567 554
Width: 1075
Flags: W
HStem: 443 160<778 1075>
VStem: 298 160<-615 1775> 618 160<-615 443 603 1775>
LayerCount: 2
Fore
SplineSet
778 -615 m 1
 618 -615 l 1
 618 1775 l 1
 778 1775 l 1
 778 603 l 1
 1075 603 l 1
 1075 443 l 1
 778 443 l 1
 778 -615 l 1
458 -615 m 1
 298 -615 l 1
 298 1775 l 1
 458 1775 l 1
 458 -615 l 1
EndSplineSet
Validated: 3073
EndChar

StartChar: dblvertrtform
Encoding: 9568 9568 555
Width: 1075
Flags: W
HStem: 283 160<778 1075> 635 160<778 1075>
VStem: 298 160<-615 1775> 618 457<283 443 635 795> 618 160<-615 283 795 1775>
LayerCount: 2
Fore
SplineSet
458 -615 m 1xe0
 298 -615 l 1
 298 1775 l 1
 458 1775 l 1
 458 -615 l 1xe0
1075 635 m 1xf0
 618 635 l 1xf0
 618 1775 l 1
 778 1775 l 1
 778 795 l 1xe8
 1075 795 l 1
 1075 635 l 1xf0
778 283 m 1xe8
 778 -615 l 1
 618 -615 l 1xe8
 618 443 l 1
 1075 443 l 1
 1075 283 l 1xf0
 778 283 l 1xe8
EndSplineSet
Validated: 3073
EndChar

StartChar: vertleftdblform
Encoding: 9569 9569 556
Width: 1075
Flags: W
HStem: 283 160<0 458> 603 160<0 458>
VStem: 458 160<-615 283 443 603 763 1775>
LayerCount: 2
Fore
SplineSet
618 -615 m 1
 458 -615 l 1
 458 283 l 1
 0 283 l 1
 -0 443 l 1
 458 443 l 1
 458 603 l 1
 0 603 l 1
 -0 763 l 1
 458 763 l 1
 458 1775 l 1
 618 1775 l 1
 618 -615 l 1
EndSplineSet
Validated: 3073
EndChar

StartChar: vertdblleftform
Encoding: 9570 9570 557
Width: 1075
Flags: W
HStem: 443 160<0 298>
VStem: 298 160<-615 443 603 1775> 618 160<-615 1775>
LayerCount: 2
Fore
SplineSet
0 443 m 1
 -0 603 l 1
 298 603 l 1
 298 1775 l 1
 458 1775 l 1
 458 -615 l 1
 298 -615 l 1
 298 443 l 1
 0 443 l 1
778 -615 m 1
 618 -615 l 1
 618 1775 l 1
 778 1775 l 1
 778 -615 l 1
EndSplineSet
Validated: 3073
EndChar

StartChar: dblvertleftform
Encoding: 9571 9571 558
Width: 1075
Flags: W
HStem: 283 160<0 298> 635 160<0 298>
VStem: -0 458<283 443 635 795> 298 160<-615 283 795 1775> 618 160<-615 1775>
LayerCount: 2
Fore
SplineSet
778 -615 m 1xc8
 618 -615 l 1
 618 1775 l 1
 778 1775 l 1
 778 -615 l 1xc8
298 795 m 1xd8
 298 1775 l 1
 458 1775 l 1xd8
 458 635 l 1
 -0 635 l 1
 0 795 l 1xe8
 298 795 l 1xd8
0 443 m 1xe8
 458 443 l 1xe8
 458 -615 l 1
 298 -615 l 1
 298 283 l 1xd8
 -0 283 l 1
 0 443 l 1xe8
EndSplineSet
Validated: 3073
EndChar

StartChar: dnhorizdblform
Encoding: 9572 9572 559
Width: 1075
Flags: W
HStem: 283 160<0 458 618 1075> 635 160<0 1075>
VStem: 458 160<-615 283>
LayerCount: 2
Fore
SplineSet
618 -615 m 1
 458 -615 l 1
 458 283 l 1
 0 283 l 1
 -0 443 l 1
 1075 443 l 1
 1075 283 l 1
 618 283 l 1
 618 -615 l 1
0 635 m 1
 -0 795 l 1
 1075 795 l 1
 1075 635 l 1
 0 635 l 1
EndSplineSet
Validated: 3073
EndChar

StartChar: dndblhorizform
Encoding: 9573 9573 560
Width: 1075
Flags: W
HStem: 443 160<0 298 458 618 778 1075>
VStem: 298 160<-615 443> 618 160<-615 443>
LayerCount: 2
Fore
SplineSet
0 443 m 1
 -0 603 l 1
 1075 603 l 1
 1075 443 l 1
 778 443 l 1
 778 -615 l 1
 618 -615 l 1
 618 443 l 1
 458 443 l 1
 458 -615 l 1
 298 -615 l 1
 298 443 l 1
 0 443 l 1
EndSplineSet
Validated: 3073
EndChar

StartChar: dbldnhorizform
Encoding: 9574 9574 561
Width: 1075
Flags: W
HStem: 283 160<0 298 778 1075> 635 160<0 1075>
VStem: 298 160<-615 283> 618 160<-615 283>
LayerCount: 2
Fore
SplineSet
0 635 m 1
 -0 795 l 1
 1075 795 l 1
 1075 635 l 1
 0 635 l 1
0 443 m 1
 458 443 l 1
 458 -615 l 1
 298 -615 l 1
 298 283 l 1
 -0 283 l 1
 0 443 l 1
778 283 m 1
 778 -615 l 1
 618 -615 l 1
 618 443 l 1
 1075 443 l 1
 1075 283 l 1
 778 283 l 1
EndSplineSet
Validated: 3073
EndChar

StartChar: uphorizdblform
Encoding: 9575 9575 562
Width: 1075
Flags: W
HStem: 283 160<0 1075> 635 160<0 458 618 1075>
VStem: 458 160<795 1775>
LayerCount: 2
Fore
SplineSet
0 635 m 1
 -0 795 l 1
 458 795 l 1
 458 1775 l 1
 618 1775 l 1
 618 795 l 1
 1075 795 l 1
 1075 635 l 1
 0 635 l 1
0 283 m 1
 -0 443 l 1
 1075 443 l 1
 1075 283 l 1
 0 283 l 1
EndSplineSet
Validated: 3073
EndChar

StartChar: updblhorizform
Encoding: 9576 9576 563
Width: 1075
Flags: W
HStem: 443 160<0 298 458 618 778 1075>
VStem: 298 160<603 1775> 618 160<603 1775>
LayerCount: 2
Fore
SplineSet
0 443 m 1
 -0 603 l 1
 298 603 l 1
 298 1775 l 1
 458 1775 l 1
 458 603 l 1
 618 603 l 1
 618 1775 l 1
 778 1775 l 1
 778 603 l 1
 1075 603 l 1
 1075 443 l 1
 0 443 l 1
EndSplineSet
Validated: 3073
EndChar

StartChar: dbluphorizform
Encoding: 9577 9577 564
Width: 1075
Flags: W
HStem: 283 160<0 1075> 635 160<0 298 778 1075>
VStem: 298 160<795 1775> 618 160<795 1775>
LayerCount: 2
Fore
SplineSet
298 795 m 1
 298 1775 l 1
 458 1775 l 1
 458 635 l 1
 -0 635 l 1
 0 795 l 1
 298 795 l 1
1075 635 m 1
 618 635 l 1
 618 1775 l 1
 778 1775 l 1
 778 795 l 1
 1075 795 l 1
 1075 635 l 1
0 283 m 1
 -0 443 l 1
 1075 443 l 1
 1075 283 l 1
 0 283 l 1
EndSplineSet
Validated: 3073
EndChar

StartChar: verthorizdblform
Encoding: 9578 9578 565
Width: 1075
Flags: W
HStem: 283 160<0 458 618 1075> 635 160<0 458 618 1075>
VStem: 458 160<-615 283 795 1775>
LayerCount: 2
Fore
SplineSet
618 -615 m 1
 458 -615 l 1
 458 283 l 1
 0 283 l 1
 -0 443 l 1
 1075 443 l 1
 1075 283 l 1
 618 283 l 1
 618 -615 l 1
0 635 m 1
 -0 795 l 1
 458 795 l 1
 458 1775 l 1
 618 1775 l 1
 618 795 l 1
 1075 795 l 1
 1075 635 l 1
 0 635 l 1
EndSplineSet
Validated: 3073
EndChar

StartChar: vertdblhorizform
Encoding: 9579 9579 566
Width: 1075
Flags: W
HStem: 443 160<0 298 778 1075>
VStem: 298 160<-615 443 603 1775> 618 160<-615 443 603 1775>
LayerCount: 2
Fore
SplineSet
0 443 m 1
 -0 603 l 1
 298 603 l 1
 298 1775 l 1
 458 1775 l 1
 458 -615 l 1
 298 -615 l 1
 298 443 l 1
 0 443 l 1
778 -615 m 1
 618 -615 l 1
 618 1775 l 1
 778 1775 l 1
 778 603 l 1
 1075 603 l 1
 1075 443 l 1
 778 443 l 1
 778 -615 l 1
EndSplineSet
Validated: 3073
EndChar

StartChar: dblverthorizform
Encoding: 9580 9580 567
Width: 1075
Flags: W
HStem: 283 160<0 298 778 1075> 635 160<0 298 778 1075>
VStem: -0 458<283 443 635 795> 298 160<-615 283 795 1775> 618 457<283 443 635 795> 618 160<-615 283 795 1775>
LayerCount: 2
Fore
SplineSet
298 795 m 1xd0
 298 1775 l 1
 458 1775 l 1xd0
 458 635 l 1
 -0 635 l 1
 0 795 l 1xe0
 298 795 l 1xd0
1075 635 m 1xc8
 618 635 l 1xc8
 618 1775 l 1
 778 1775 l 1
 778 795 l 1xc4
 1075 795 l 1
 1075 635 l 1xc8
0 443 m 1xe0
 458 443 l 1xe0
 458 -615 l 1
 298 -615 l 1
 298 283 l 1xd0
 -0 283 l 1
 0 443 l 1xe0
778 283 m 1xc4
 778 -615 l 1
 618 -615 l 1xc4
 618 443 l 1
 1075 443 l 1
 1075 283 l 1xc8
 778 283 l 1xc4
EndSplineSet
Validated: 3073
EndChar

StartChar: upblock
Encoding: 9600 9600 568
Width: 1075
Flags: W
HStem: 523 1252<0 1075>
VStem: -0 1075<523 1775>
LayerCount: 2
Fore
SplineSet
1075 523 m 1
 -0 523 l 1
 0 1775 l 5
 1075 1775 l 5
 1075 523 l 1
EndSplineSet
Validated: 3073
EndChar

StartChar: dnblock
Encoding: 9604 9604 569
Width: 1075
Flags: W
HStem: -615 1138<0 1075>
VStem: -0 1075<-615 523>
LayerCount: 2
Fore
SplineSet
1075 -615 m 1
 -0 -615 l 1
 -0 523 l 1
 1075 523 l 1
 1075 -615 l 1
EndSplineSet
Validated: 3073
EndChar

StartChar: block
Encoding: 9608 9608 570
Width: 1075
Flags: W
VStem: -0 1075<-615 1775>
LayerCount: 2
Fore
SplineSet
-0 -615 m 1
 0 1775 l 5
 1075 1775 l 5
 1075 -615 l 1
 -0 -615 l 1
EndSplineSet
Validated: 3073
EndChar

StartChar: lfblock
Encoding: 9612 9612 571
Width: 1075
Flags: W
VStem: -0 538<-615 1775>
LayerCount: 2
Fore
SplineSet
-0 -615 m 1
 0 1775 l 5
 538 1775 l 5
 538 -615 l 1
 -0 -615 l 1
EndSplineSet
Validated: 3073
EndChar

StartChar: rtblock
Encoding: 9616 9616 572
Width: 1075
Flags: W
VStem: 538 537<-615 1775>
LayerCount: 2
Fore
SplineSet
538 -615 m 1
 538 1775 l 1
 1075 1775 l 1
 1075 -615 l 1
 538 -615 l 1
EndSplineSet
Validated: 3073
EndChar

StartChar: shadelight
Encoding: 9617 9617 573
Width: 1075
Flags: W
HStem: -514 100<179 269 538 630 897 987> -315 100<0 90 358 449 719 808> -115 99<179 269 538 630 897 987> 83 100<0 90 358 449 719 808> 283 99<179 269 538 630 897 987> 482 99<0 90 358 449 719 808> 681 100<179 269 538 630 897 987> 881 99<0 90 358 449 719 808> 1080 99<179 269 538 630 897 987> 1278 100<0 90 358 449 719 808> 1477 100<179 269 538 630 897 987> 1677 98<0 90 358 449 719 808>
VStem: 0 90<-315 -215 83 183 482 581 881 980 1278 1378 1677 1775> 179 90<-514 -414 -115 -16 283 382 681 781 1080 1179 1477 1577> 358 91<-315 -215 83 183 482 581 881 980 1278 1378 1677 1775> 538 92<-514 -414 -115 -16 283 382 681 781 1080 1179 1477 1577> 719 89<-315 -215 83 183 482 581 881 980 1278 1378 1677 1775> 897 90<-514 -414 -115 -16 283 382 681 781 1080 1179 1477 1577>
LayerCount: 2
Fore
SplineSet
0 1378 m 1
 90 1378 l 1
 90 1278 l 1
 0 1278 l 1
 0 1378 l 1
358 1378 m 1
 449 1378 l 1
 449 1278 l 1
 358 1278 l 1
 358 1378 l 1
719 1378 m 1
 808 1378 l 1
 808 1278 l 1
 719 1278 l 1
 719 1378 l 1
179 1179 m 1
 269 1179 l 1
 269 1080 l 1
 179 1080 l 1
 179 1179 l 1
538 1179 m 1
 630 1179 l 1
 630 1080 l 1
 538 1080 l 1
 538 1179 l 1
897 1179 m 1
 987 1179 l 1
 987 1080 l 1
 897 1080 l 1
 897 1179 l 1
719 980 m 1
 808 980 l 1
 808 881 l 1
 719 881 l 1
 719 980 l 1
358 980 m 1
 449 980 l 1
 449 881 l 1
 358 881 l 1
 358 980 l 1
0 980 m 1
 90 980 l 1
 90 881 l 1
 0 881 l 1
 0 980 l 1
897 781 m 1
 987 781 l 1
 987 681 l 1
 897 681 l 1
 897 781 l 1
538 781 m 1
 630 781 l 1
 630 681 l 1
 538 681 l 1
 538 781 l 1
179 781 m 1
 269 781 l 1
 269 681 l 1
 179 681 l 1
 179 781 l 1
0 581 m 1
 90 581 l 1
 90 482 l 1
 0 482 l 1
 0 581 l 1
358 581 m 1
 449 581 l 1
 449 482 l 1
 358 482 l 1
 358 581 l 1
719 581 m 1
 808 581 l 1
 808 482 l 1
 719 482 l 1
 719 581 l 1
897 382 m 1
 987 382 l 1
 987 283 l 1
 897 283 l 1
 897 382 l 1
538 382 m 1
 630 382 l 1
 630 283 l 1
 538 283 l 1
 538 382 l 1
179 382 m 1
 269 382 l 1
 269 283 l 1
 179 283 l 1
 179 382 l 1
0 183 m 1
 90 183 l 1
 90 83 l 1
 0 83 l 1
 0 183 l 1
358 183 m 1
 449 183 l 1
 449 83 l 1
 358 83 l 1
 358 183 l 1
719 183 m 1
 808 183 l 1
 808 83 l 1
 719 83 l 1
 719 183 l 1
179 -16 m 1
 269 -16 l 1
 269 -115 l 1
 179 -115 l 1
 179 -16 l 1
538 -16 m 1
 630 -16 l 1
 630 -115 l 1
 538 -115 l 1
 538 -16 l 1
897 -16 m 1
 987 -16 l 1
 987 -115 l 1
 897 -115 l 1
 897 -16 l 1
719 -215 m 1
 808 -215 l 1
 808 -315 l 1
 719 -315 l 1
 719 -215 l 1
358 -215 m 1
 449 -215 l 1
 449 -315 l 1
 358 -315 l 1
 358 -215 l 1
0 -215 m 1
 90 -215 l 1
 90 -315 l 1
 0 -315 l 1
 0 -215 l 1
179 -414 m 1
 269 -414 l 1
 269 -514 l 1
 179 -514 l 1
 179 -414 l 1
538 -414 m 1
 630 -414 l 1
 630 -514 l 1
 538 -514 l 1
 538 -414 l 1
897 -414 m 1
 987 -414 l 1
 987 -514 l 1
 897 -514 l 1
 897 -414 l 1
179 1577 m 1
 269 1577 l 1
 269 1477 l 1
 179 1477 l 1
 179 1577 l 1
538 1577 m 1
 630 1577 l 1
 630 1477 l 1
 538 1477 l 1
 538 1577 l 1
897 1577 m 1
 987 1577 l 1
 987 1477 l 1
 897 1477 l 1
 897 1577 l 1
0 1775 m 1
 90 1775 l 1
 90 1677 l 1
 0 1677 l 1
 0 1775 l 1
358 1775 m 1
 449 1775 l 1
 449 1677 l 1
 358 1677 l 1
 358 1775 l 1
719 1775 m 1
 808 1775 l 1
 808 1677 l 1
 719 1677 l 1
 719 1775 l 1
EndSplineSet
Validated: 3073
EndChar

StartChar: shademedium
Encoding: 9618 9618 574
Width: 1075
Flags: W
HStem: -514 100<0 90 179 269 358 448 538 629 719 807 897 987> -315 100<90 179 269 358 448 538 629 719 807 897 987 1075> -115 99<0 90 179 269 358 448 538 629 719 807 897 987> 83 100<90 179 269 358 448 538 629 719 807 897 987 1075> 283 99<0 90 179 269 358 448 538 629 719 807 897 987> 482 99<90 179 269 358 448 538 629 719 807 897 987 1075> 681 100<0 90 179 269 358 448 538 629 719 807 897 987> 881 99<90 179 269 358 448 538 629 719 807 897 987 1075> 1080 99<0 90 179 269 358 448 538 629 719 807 897 987> 1278 100<90 179 269 358 448 538 629 719 807 897 987 1075> 1477 100<0 90 179 269 358 448 538 629 719 807 897 987> 1677 98<90 179 269 358 448 538 629 719 807 897 987 1075>
VStem: 0 90<-514 -414 -115 -16 283 382 681 781 1080 1179 1477 1577> 90 89<-315 -215 83 183 482 581 881 980 1278 1378 1677 1775> 179 90<-514 -414 -115 -16 283 382 681 781 1080 1179 1477 1577> 269 89<-315 -215 83 183 482 581 881 980 1278 1378 1677 1775> 358 90<-514 -414 -115 -16 283 382 681 781 1080 1179 1477 1577> 448 90<-315 -215 83 183 482 581 881 980 1278 1378 1677 1775> 538 91<-514 -414 -115 -16 283 382 681 781 1080 1179 1477 1577> 629 90<-315 -215 83 183 482 581 881 980 1278 1378 1677 1775> 719 88<-514 -414 -115 -16 283 382 681 781 1080 1179 1477 1577> 807 90<-315 -215 83 183 482 581 881 980 1278 1378 1677 1775> 897 90<-514 -414 -115 -16 283 382 681 781 1080 1179 1477 1577> 987 88<-315 -215 83 183 482 581 881 980 1278 1378 1677 1775>
LayerCount: 2
Fore
SplineSet
90 1378 m 1
 179 1378 l 1
 179 1278 l 1
 90 1278 l 1
 90 1378 l 1
269 1378 m 1
 358 1378 l 1
 358 1278 l 1
 269 1278 l 1
 269 1378 l 1
448 1378 m 1
 538 1378 l 1
 538 1278 l 1
 448 1278 l 1
 448 1378 l 1
629 1378 m 1
 719 1378 l 1
 719 1278 l 1
 629 1278 l 1
 629 1378 l 1
807 1378 m 1
 897 1378 l 1
 897 1278 l 1
 807 1278 l 1
 807 1378 l 1
987 1378 m 1
 1075 1378 l 1
 1075 1278 l 1
 987 1278 l 1
 987 1378 l 1
0 1179 m 1
 90 1179 l 1
 90 1080 l 1
 0 1080 l 1
 0 1179 l 1
179 1179 m 1
 269 1179 l 1
 269 1080 l 1
 179 1080 l 1
 179 1179 l 1
358 1179 m 1
 448 1179 l 1
 448 1080 l 1
 358 1080 l 1
 358 1179 l 1
538 1179 m 1
 629 1179 l 1
 629 1080 l 1
 538 1080 l 1
 538 1179 l 1
719 1179 m 1
 807 1179 l 1
 807 1080 l 1
 719 1080 l 1
 719 1179 l 1
897 1179 m 1
 987 1179 l 1
 987 1080 l 1
 897 1080 l 1
 897 1179 l 1
90 980 m 1
 179 980 l 1
 179 881 l 1
 90 881 l 1
 90 980 l 1
269 980 m 1
 358 980 l 1
 358 881 l 1
 269 881 l 1
 269 980 l 1
448 980 m 1
 538 980 l 1
 538 881 l 1
 448 881 l 1
 448 980 l 1
629 980 m 1
 719 980 l 1
 719 881 l 1
 629 881 l 1
 629 980 l 1
807 980 m 1
 897 980 l 1
 897 881 l 1
 807 881 l 1
 807 980 l 1
987 980 m 1
 1075 980 l 1
 1075 881 l 1
 987 881 l 1
 987 980 l 1
0 781 m 1
 90 781 l 1
 90 681 l 1
 0 681 l 1
 0 781 l 1
179 781 m 1
 269 781 l 1
 269 681 l 1
 179 681 l 1
 179 781 l 1
358 781 m 1
 448 781 l 1
 448 681 l 1
 358 681 l 1
 358 781 l 1
538 781 m 1
 629 781 l 1
 629 681 l 1
 538 681 l 1
 538 781 l 1
719 781 m 1
 807 781 l 1
 807 681 l 1
 719 681 l 1
 719 781 l 1
897 781 m 1
 987 781 l 1
 987 681 l 1
 897 681 l 1
 897 781 l 1
90 581 m 1
 179 581 l 1
 179 482 l 1
 90 482 l 1
 90 581 l 1
269 581 m 1
 358 581 l 1
 358 482 l 1
 269 482 l 1
 269 581 l 1
448 581 m 1
 538 581 l 1
 538 482 l 1
 448 482 l 1
 448 581 l 1
629 581 m 1
 719 581 l 1
 719 482 l 1
 629 482 l 1
 629 581 l 1
807 581 m 1
 897 581 l 1
 897 482 l 1
 807 482 l 1
 807 581 l 1
987 581 m 1
 1075 581 l 1
 1075 482 l 1
 987 482 l 1
 987 581 l 1
0 382 m 1
 90 382 l 1
 90 283 l 1
 0 283 l 1
 0 382 l 1
358 382 m 1
 448 382 l 1
 448 283 l 1
 358 283 l 1
 358 382 l 1
538 382 m 1
 629 382 l 1
 629 283 l 1
 538 283 l 1
 538 382 l 1
719 382 m 1
 807 382 l 1
 807 283 l 1
 719 283 l 1
 719 382 l 1
897 382 m 1
 987 382 l 1
 987 283 l 1
 897 283 l 1
 897 382 l 1
179 382 m 1
 269 382 l 1
 269 283 l 1
 179 283 l 1
 179 382 l 1
987 183 m 1
 1075 183 l 1
 1075 83 l 1
 987 83 l 1
 987 183 l 1
807 183 m 1
 897 183 l 1
 897 83 l 1
 807 83 l 1
 807 183 l 1
629 183 m 1
 719 183 l 1
 719 83 l 1
 629 83 l 1
 629 183 l 1
448 183 m 1
 538 183 l 1
 538 83 l 1
 448 83 l 1
 448 183 l 1
269 183 m 1
 358 183 l 1
 358 83 l 1
 269 83 l 1
 269 183 l 1
90 183 m 1
 179 183 l 1
 179 83 l 1
 90 83 l 1
 90 183 l 1
0 -16 m 1
 90 -16 l 1
 90 -115 l 1
 0 -115 l 1
 0 -16 l 1
179 -16 m 1
 269 -16 l 1
 269 -115 l 1
 179 -115 l 1
 179 -16 l 1
358 -16 m 1
 448 -16 l 1
 448 -115 l 1
 358 -115 l 1
 358 -16 l 1
538 -16 m 1
 629 -16 l 1
 629 -115 l 1
 538 -115 l 1
 538 -16 l 1
719 -16 m 1
 807 -16 l 1
 807 -115 l 1
 719 -115 l 1
 719 -16 l 1
897 -16 m 1
 987 -16 l 1
 987 -115 l 1
 897 -115 l 1
 897 -16 l 1
987 -215 m 1
 1075 -215 l 1
 1075 -315 l 1
 987 -315 l 1
 987 -215 l 1
807 -215 m 1
 897 -215 l 1
 897 -315 l 1
 807 -315 l 1
 807 -215 l 1
629 -215 m 1
 719 -215 l 1
 719 -315 l 1
 629 -315 l 1
 629 -215 l 1
448 -215 m 1
 538 -215 l 1
 538 -315 l 1
 448 -315 l 1
 448 -215 l 1
269 -215 m 1
 358 -215 l 1
 358 -315 l 1
 269 -315 l 1
 269 -215 l 1
90 -215 m 1
 179 -215 l 1
 179 -315 l 1
 90 -315 l 1
 90 -215 l 1
0 -414 m 1
 90 -414 l 1
 90 -514 l 1
 0 -514 l 1
 0 -414 l 1
179 -414 m 1
 269 -414 l 1
 269 -514 l 1
 179 -514 l 1
 179 -414 l 1
358 -414 m 1
 448 -414 l 1
 448 -514 l 1
 358 -514 l 1
 358 -414 l 1
538 -414 m 1
 629 -414 l 1
 629 -514 l 1
 538 -514 l 1
 538 -414 l 1
719 -414 m 1
 807 -414 l 1
 807 -514 l 1
 719 -514 l 1
 719 -414 l 1
897 -414 m 1
 987 -414 l 1
 987 -514 l 1
 897 -514 l 1
 897 -414 l 1
0 1577 m 1
 90 1577 l 1
 90 1477 l 1
 0 1477 l 1
 0 1577 l 1
179 1577 m 1
 269 1577 l 1
 269 1477 l 1
 179 1477 l 1
 179 1577 l 1
358 1577 m 1
 448 1577 l 1
 448 1477 l 1
 358 1477 l 1
 358 1577 l 1
538 1577 m 1
 629 1577 l 1
 629 1477 l 1
 538 1477 l 1
 538 1577 l 1
719 1577 m 1
 807 1577 l 1
 807 1477 l 1
 719 1477 l 1
 719 1577 l 1
897 1577 m 1
 987 1577 l 1
 987 1477 l 1
 897 1477 l 1
 897 1577 l 1
90 1775 m 1
 179 1775 l 1
 179 1677 l 1
 90 1677 l 1
 90 1775 l 1
269 1775 m 1
 358 1775 l 1
 358 1677 l 1
 269 1677 l 1
 269 1775 l 1
448 1775 m 1
 538 1775 l 1
 538 1677 l 1
 448 1677 l 1
 448 1775 l 1
629 1775 m 1
 719 1775 l 1
 719 1677 l 1
 629 1677 l 1
 629 1775 l 1
807 1775 m 1
 897 1775 l 1
 897 1677 l 1
 807 1677 l 1
 807 1775 l 1
987 1775 m 1
 1075 1775 l 1
 1075 1677 l 1
 987 1677 l 1
 987 1775 l 1
EndSplineSet
Validated: 3073
EndChar

StartChar: shadedark
Encoding: 9619 9619 575
Width: 1075
Flags: W
HStem: -615 300<0 90 179 269 358 448 538 629 719 807 897 987> -615 101<90 179 269 358 448 538 629 719 807 897 987 1075> -414 299<90 179 269 358 448 538 629 719 807 897 987 1075> -215 299<0 90 179 269 358 448 538 629 719 807 897 987> -16 299<90 179 269 358 448 538 629 719 807 897 987 1075> 183 299<0 90 179 269 358 448 538 629 719 807 897 987> 382 299<90 179 269 358 448 538 629 719 807 897 987 1075> 581 299<0 90 179 269 358 448 538 629 719 807 897 987> 781 299<90 179 269 358 448 538 629 719 807 897 987 1075> 980 299<0 90 179 269 358 448 538 629 719 807 897 987> 1179 299<90 179 269 358 448 538 629 719 807 897 987 1075> 1378 299<0 90 179 269 358 448 538 629 719 807 897 987> 1577 198<90 179 269 358 448 538 629 719 807 897 987 1075>
VStem: 0 90<-514 -414 -115 -16 283 382 681 781 1080 1179 1478 1577> 90 89<-315 -215 84 183 482 581 881 980 1279 1378 1677 1775> 179 90<-514 -414 -115 -16 283 382 681 781 1080 1179 1478 1577> 269 89<-315 -215 84 183 482 581 880 980 1279 1378 1677 1775> 358 90<-514 -414 -115 -16 283 382 681 781 1080 1179 1478 1577> 448 90<-315 -215 84 183 482 581 880 980 1279 1378 1677 1775> 538 91<-514 -414 -115 -16 283 382 681 781 1080 1179 1478 1577> 629 90<-315 -215 84 183 482 581 880 980 1279 1378 1677 1775> 719 88<-514 -414 -115 -16 283 382 681 781 1080 1179 1478 1577> 807 90<-315 -215 84 183 482 581 880 980 1279 1378 1677 1775> 897 90<-514 -414 -115 -16 283 382 681 781 1080 1179 1478 1577> 987 88<-315 -215 84 183 482 581 880 980 1279 1378 1677 1775>
LayerCount: 2
Fore
SplineSet
1075 1577 m 1x000fff80
 987 1577 l 1
 987 1478 l 1
 1075 1478 l 1
 1075 1179 l 1
 987 1179 l 1
 987 1080 l 1
 1075 1080 l 1
 1075 781 l 1
 987 781 l 1
 987 681 l 1
 1075 681 l 1
 1075 382 l 1
 987 382 l 1
 987 283 l 1
 1075 283 l 1
 1075 -16 l 1
 987 -16 l 1
 987 -115 l 1
 1075 -115 l 1
 1075 -414 l 1
 987 -414 l 1
 987 -514 l 1
 1075 -514 l 1
 1075 -615 l 1x6aafff80
 0 -615 l 1
 0 -315 l 1
 90 -315 l 1
 90 -215 l 1
 0 -215 l 1
 0 83 l 1
 90 83 l 1
 90 183 l 1
 0 183 l 1
 0 482 l 1
 90 482 l 1
 90 581 l 1
 0 581 l 1
 0 881 l 1
 90 881 l 1
 90 980 l 1
 0 980 l 1
 0 1279 l 1
 90 1279 l 1
 90 1378 l 1
 0 1378 l 1
 0 1677 l 1
 90 1677 l 1x9557ff80
 90 1775 l 1
 179 1775 l 1x000fff80
 179 1677 l 1
 269 1677 l 1x0017ff80
 269 1775 l 1
 358 1775 l 1x000fff80
 358 1677 l 1
 448 1677 l 1x0017ff80
 448 1775 l 1
 538 1775 l 1x000fff80
 538 1677 l 1
 629 1677 l 1x0017ff80
 629 1775 l 1
 719 1775 l 1x000fff80
 719 1677 l 1
 807 1677 l 1x0017ff80
 807 1775 l 1
 897 1775 l 1x000fff80
 897 1677 l 1
 987 1677 l 1x0017ff80
 987 1775 l 1
 1075 1775 l 1
 1075 1577 l 1x000fff80
90 1179 m 1
 90 1080 l 1
 179 1080 l 1
 179 1179 l 1
 90 1179 l 1
269 1179 m 1
 269 1080 l 1
 358 1080 l 1
 358 1179 l 1
 269 1179 l 1
448 1179 m 1
 448 1080 l 1
 538 1080 l 1
 538 1179 l 1
 448 1179 l 1
629 1179 m 1
 629 1080 l 1
 719 1080 l 1
 719 1179 l 1
 629 1179 l 1
807 1179 m 1
 807 1080 l 1
 897 1080 l 1
 897 1179 l 1
 807 1179 l 1
987 980 m 1x0147ff80
 897 980 l 1
 897 880 l 1
 987 880 l 1
 987 980 l 1x0147ff80
807 980 m 1
 719 980 l 1
 719 880 l 1
 807 880 l 1
 807 980 l 1
629 980 m 1
 538 980 l 1
 538 880 l 1
 629 880 l 1
 629 980 l 1
448 980 m 1
 358 980 l 1
 358 880 l 1
 448 880 l 1
 448 980 l 1
269 980 m 1
 179 980 l 1
 179 880 l 1
 269 880 l 1
 269 980 l 1
90 781 m 1x0287ff80
 90 681 l 1
 179 681 l 1
 179 781 l 1
 90 781 l 1x0287ff80
269 781 m 1
 269 681 l 1
 358 681 l 1
 358 781 l 1
 269 781 l 1
448 781 m 1
 448 681 l 1
 538 681 l 1
 538 781 l 1
 448 781 l 1
629 781 m 1
 629 681 l 1
 719 681 l 1
 719 781 l 1
 629 781 l 1
807 781 m 1
 807 681 l 1
 897 681 l 1
 897 781 l 1
 807 781 l 1
269 581 m 1x0507ff80
 179 581 l 1
 179 482 l 1
 269 482 l 1
 269 581 l 1x0507ff80
358 581 m 1
 358 482 l 1
 448 482 l 1
 448 581 l 1
 358 581 l 1
538 581 m 1
 538 482 l 1
 629 482 l 1
 629 581 l 1
 538 581 l 1
719 581 m 1
 719 482 l 1
 807 482 l 1
 807 581 l 1
 719 581 l 1
897 581 m 1
 897 482 l 1
 987 482 l 1
 987 581 l 1
 897 581 l 1
90 382 m 1x0a07ff80
 90 283 l 1
 179 283 l 1
 179 382 l 1
 90 382 l 1x0a07ff80
448 382 m 1
 448 283 l 1
 538 283 l 1
 538 382 l 1
 448 382 l 1
358 283 m 1
 358 382 l 1
 269 382 l 1
 269 283 l 1
 358 283 l 1
629 382 m 1
 629 283 l 1
 719 283 l 1
 719 382 l 1
 629 382 l 1
807 382 m 1
 807 283 l 1
 897 283 l 1
 897 382 l 1
 807 382 l 1
987 84 m 1x1407ff80
 987 183 l 1
 897 183 l 1
 897 84 l 1
 987 84 l 1x1407ff80
807 84 m 1
 807 183 l 1
 719 183 l 1
 719 84 l 1
 807 84 l 1
629 84 m 1
 629 183 l 1
 538 183 l 1
 538 84 l 1
 629 84 l 1
448 84 m 1
 448 183 l 1
 358 183 l 1
 358 84 l 1
 448 84 l 1
269 84 m 1
 269 183 l 1
 179 183 l 1
 179 84 l 1
 269 84 l 1
90 -16 m 1x2807ff80
 90 -115 l 1
 179 -115 l 1
 179 -16 l 1
 90 -16 l 1x2807ff80
269 -16 m 1
 269 -115 l 1
 358 -115 l 1
 358 -16 l 1
 269 -16 l 1
448 -16 m 1
 448 -115 l 1
 538 -115 l 1
 538 -16 l 1
 448 -16 l 1
629 -16 m 1
 629 -115 l 1
 719 -115 l 1
 719 -16 l 1
 629 -16 l 1
807 -16 m 1
 807 -115 l 1
 897 -115 l 1
 897 -16 l 1
 807 -16 l 1
987 -315 m 1x9007ff80
 987 -215 l 1
 897 -215 l 1
 897 -315 l 1
 987 -315 l 1x9007ff80
807 -315 m 1
 807 -215 l 1
 719 -215 l 1
 719 -315 l 1
 807 -315 l 1
629 -315 m 1
 629 -215 l 1
 538 -215 l 1
 538 -315 l 1
 629 -315 l 1
448 -315 m 1
 448 -215 l 1
 358 -215 l 1
 358 -315 l 1
 448 -315 l 1
269 -315 m 1
 269 -215 l 1
 179 -215 l 1
 179 -315 l 1
 269 -315 l 1
90 -414 m 1x6007ff80
 90 -514 l 1
 179 -514 l 1
 179 -414 l 1
 90 -414 l 1x6007ff80
269 -414 m 1
 269 -514 l 1
 358 -514 l 1
 358 -414 l 1
 269 -414 l 1
448 -414 m 1
 448 -514 l 1
 538 -514 l 1
 538 -414 l 1
 448 -414 l 1
629 -414 m 1
 629 -514 l 1
 719 -514 l 1
 719 -414 l 1
 629 -414 l 1
807 -414 m 1
 807 -514 l 1
 897 -514 l 1
 897 -414 l 1
 807 -414 l 1
987 1378 m 1x0057ff80
 897 1378 l 1
 897 1279 l 1
 987 1279 l 1
 987 1378 l 1x0057ff80
807 1378 m 1
 719 1378 l 1
 719 1279 l 1
 807 1279 l 1
 807 1378 l 1
629 1378 m 1
 538 1378 l 1
 538 1279 l 1
 629 1279 l 1
 629 1378 l 1
448 1378 m 1
 358 1378 l 1
 358 1279 l 1
 448 1279 l 1
 448 1378 l 1
269 1378 m 1
 179 1378 l 1
 179 1279 l 1
 269 1279 l 1
 269 1378 l 1
897 1577 m 1x002fff80
 807 1577 l 1
 807 1478 l 1
 897 1478 l 1
 897 1577 l 1x002fff80
719 1577 m 1
 629 1577 l 1
 629 1478 l 1
 719 1478 l 1
 719 1577 l 1
538 1577 m 1
 448 1577 l 1
 448 1478 l 1
 538 1478 l 1
 538 1577 l 1
358 1577 m 1
 269 1577 l 1
 269 1478 l 1
 358 1478 l 1
 358 1577 l 1
179 1577 m 1
 90 1577 l 1
 90 1478 l 1
 179 1478 l 1
 179 1577 l 1
EndSplineSet
Validated: 3073
EndChar

StartChar: blacksquare
Encoding: 9632 9632 576
Width: 1075
Flags: W
HStem: 98 1233<0 1075>
VStem: 0 1075<98 1331>
LayerCount: 2
Fore
SplineSet
0 1331 m 5
 1075 1331 l 5
 1075 98 l 5
 0 98 l 5
 0 1331 l 5
EndSplineSet
Validated: 3073
EndChar

StartChar: whitesquare
Encoding: 9633 9633 577
Width: 1075
Flags: W
HStem: 98 262<219 856> 1107 224<219 856>
VStem: 0 219<360 1107> 856 219<360 1107>
LayerCount: 2
Fore
SplineSet
0 1331 m 1
 1075 1331 l 1
 1075 98 l 1
 0 98 l 1
 0 1331 l 1
219 1107 m 1
 219 360 l 1
 856 360 l 1
 856 1107 l 1
 219 1107 l 1
EndSplineSet
Validated: 3073
EndChar

StartChar: blacksmallsquare
Encoding: 9642 9642 578
Width: 1075
Flags: W
HStem: 467 551<262 813>
VStem: 262 551<467 1018>
LayerCount: 2
Fore
SplineSet
813 467 m 5
 262 467 l 5
 262 1018 l 5
 813 1018 l 5
 813 467 l 5
EndSplineSet
Validated: 3073
EndChar

StartChar: whitesmallsquare
Encoding: 9643 9643 579
Width: 1075
Flags: W
HStem: 467 133<399 676> 885 133<399 676>
VStem: 262 137<600 885> 676 137<600 885>
LayerCount: 2
Fore
SplineSet
813 467 m 1
 262 467 l 1
 262 1018 l 1
 813 1018 l 1
 813 467 l 1
676 600 m 1
 676 885 l 1
 399 885 l 1
 399 600 l 1
 676 600 l 1
EndSplineSet
Validated: 3073
EndChar

StartChar: blackrectangle
Encoding: 9644 9644 580
Width: 1075
Flags: W
HStem: 461 269<0 1075>
LayerCount: 2
Fore
SplineSet
0 730 m 1
 1075 730 l 5
 1075 461 l 5
 0 461 l 1
 0 730 l 1
EndSplineSet
Validated: 3073
EndChar

StartChar: triagup
Encoding: 9650 9650 581
Width: 1075
Flags: W
LayerCount: 2
Fore
SplineSet
0 96 m 5
 537 1103 l 5
 1075 96 l 5
 0 96 l 5
EndSplineSet
Validated: 3073
EndChar

StartChar: triagrt
Encoding: 9658 9658 582
Width: 1075
Flags: W
HStem: 1021 20G<72.0359 104.361>
LayerCount: 2
Fore
SplineSet
74 -73 m 1
 72 1041 l 1
 1004 465 l 1
 74 -73 l 1
EndSplineSet
Validated: 3073
EndChar

StartChar: triagdn
Encoding: 9660 9660 583
Width: 1075
Flags: W
LayerCount: 2
Fore
SplineSet
1075 1103 m 5
 539 96 l 5
 0 1103 l 5
 1075 1103 l 5
EndSplineSet
Validated: 3073
EndChar

StartChar: triaglf
Encoding: 9668 9668 584
Width: 1075
Flags: W
HStem: 1022 20G<970.764 1003>
LayerCount: 2
Fore
SplineSet
73 465 m 5
 1003 1042 l 5
 1003 -73 l 5
 73 465 l 5
EndSplineSet
Validated: 3073
EndChar

StartChar: lozenge
Encoding: 9674 9674 585
Width: 1075
Flags: W
LayerCount: 2
Fore
SplineSet
585 1538 m 1
 973 864 l 1
 585 121 l 1
 480 121 l 1
 104 864 l 1
 480 1538 l 1
 585 1538 l 1
535 1235 m 1
 305 866 l 1
 535 421 l 1
 767 866 l 1
 535 1235 l 1
EndSplineSet
Validated: 3073
EndChar

StartChar: whitecircle
Encoding: 9675 9675 586
Width: 1075
Flags: W
HStem: 221 212<399.744 674.929> 915 212<399.449 675.469>
VStem: 122 175<535.466 808.895> 779 175<534.535 811.506>
LayerCount: 2
Fore
SplineSet
538 1127 m 0
 774 1127 954 898 954 674 c 0
 954 440 768 221 538 221 c 0
 301 221 122 445 122 674 c 0
 122 890 293 1127 538 1127 c 0
538 915 m 0
 398 915 297 803 297 674 c 0
 297 529 414 433 538 433 c 256
 673 433 779 540 779 674 c 0
 779 797 681 915 538 915 c 0
EndSplineSet
Validated: 3073
EndChar

StartChar: blackcircle
Encoding: 9679 9679 587
Width: 1075
Flags: W
HStem: 221 906<369.641 709.306>
VStem: 122 832<484.661 865.177>
LayerCount: 2
Fore
SplineSet
538 1127 m 0
 774 1127 954 898 954 674 c 0
 954 440 768 221 538 221 c 0
 301 221 122 445 122 674 c 0
 122 890 293 1127 538 1127 c 0
EndSplineSet
Validated: 3073
EndChar

StartChar: bulletinverse
Encoding: 9688 9688 588
Width: 1075
Flags: W
HStem: 72 309<415.072 658.292> 763 309<413.445 659.122>
VStem: 74 273<451.324 695.368> 728 272<449.878 693.707>
LayerCount: 2
Fore
SplineSet
74 72 m 1
 74 1072 l 1
 1000 1072 l 1
 1000 72 l 1
 74 72 l 1
537 763 m 256
 434 763 347 682 347 572 c 0
 347 460 438 381 537 381 c 0
 642 381 728 465 728 572 c 0
 728 678 644 763 537 763 c 256
EndSplineSet
Validated: 3073
EndChar

StartChar: whitecircleinverse
Encoding: 9689 9689 589
Width: 1075
Flags: W
HStem: 91 130<365.578 706.298> 433 482<401.273 677.259> 1127 92<369.876 711.026>
VStem: 0 123<475.43 863.84> 298 481<532.13 810.215> 954 121<480.366 870.553>
LayerCount: 2
Fore
SplineSet
0 91 m 1
 0 1219 l 1
 1075 1219 l 1
 1075 91 l 1
 0 91 l 1
538 1127 m 0
 315 1127 123 910 123 673 c 0
 123 442 305 221 538 221 c 0
 761 221 954 431 954 673 c 0
 954 903 772 1127 538 1127 c 0
539 915 m 0
 673 915 779 806 779 673 c 0
 779 536 670 433 539 433 c 0
 407 433 298 536 298 673 c 0
 298 811 410 915 539 915 c 0
EndSplineSet
Validated: 3073
EndChar

StartChar: whitebullet
Encoding: 9702 9702 590
Width: 1075
Flags: W
HStem: 474 132<436.857 639.033> 880 131<436.651 638.192>
VStem: 269 131<642.264 843.073> 676 130<644.436 842.322>
LayerCount: 2
Fore
SplineSet
806 743 m 0
 806 582 677 474 537 474 c 256
 389 474 269 592 269 743 c 0
 269 892 388 1011 537 1011 c 0
 690 1011 806 891 806 743 c 0
676 743 m 0
 676 822 611 880 537 880 c 256
 466 880 400 825 400 743 c 0
 400 660 466 606 537 606 c 256
 614 606 676 666 676 743 c 0
EndSplineSet
Validated: 3073
EndChar

StartChar: smileface
Encoding: 9786 9786 591
Width: 1075
Flags: W
HStem: 108 147<373.598 701.652> 395 63<433.973 639.605> 709 133<301.37 425.592 650.282 774.302> 1109 110<371.499 699.091>
VStem: 0 149<491.462 869.427> 297 133<713.413 837.843> 646 132<713.188 838.496> 927 147<491.722 867.444>
LayerCount: 2
Fore
SplineSet
1074 681 m 0
 1074 382 839 108 537 108 c 0
 236 108 0 384 0 681 c 0
 0 992 248 1219 537 1219 c 0
 839 1219 1074 981 1074 681 c 0
927 681 m 0
 927 899 757 1109 537 1109 c 0
 318 1109 149 898 149 681 c 0
 149 455 329 255 537 255 c 0
 749 255 927 458 927 681 c 0
430 777 m 256
 430 740 400 709 362 709 c 256
 325 709 297 742 297 777 c 256
 297 810 323 842 362 842 c 256
 402 842 430 811 430 777 c 256
778 777 m 256
 778 740 751 709 714 709 c 256
 674 709 646 740 646 777 c 256
 646 812 673 842 714 842 c 256
 751 842 778 812 778 777 c 256
327 535 m 1
 372 560 l 1
 410 493 465 458 537 458 c 256
 610 458 665 493 702 560 c 1
 748 535 l 1
 700 441 629 395 537 395 c 0
 424 395 362 468 327 535 c 1
EndSplineSet
Validated: 3073
EndChar

StartChar: invsmileface
Encoding: 9787 9787 592
Width: 1075
Flags: W
HStem: 108 236<395.769 678.479> 861 358<326.126 751.604>
VStem: 0 264<532.5 851.305> 400 276<729.188 856.587> 811 263<531.5 855.968>
LayerCount: 2
Fore
SplineSet
1074 681 m 0
 1074 382 839 108 537 108 c 0
 236 108 0 384 0 681 c 0
 0 992 248 1219 537 1219 c 0
 839 1219 1074 981 1074 681 c 0
400 793 m 256
 400 828 371 861 332 861 c 256
 292 861 264 827 264 793 c 256
 264 758 293 725 332 725 c 256
 370 725 400 756 400 793 c 256
811 793 m 256
 811 829 784 861 744 861 c 256
 704 861 676 829 676 793 c 256
 676 756 705 725 744 725 c 256
 783 725 811 756 811 793 c 256
290 509 m 1
 330 431 404 344 537 344 c 0
 671 344 743 430 785 509 c 1
 732 539 l 1
 687 459 623 418 537 418 c 256
 452 418 388 459 343 539 c 1
 290 509 l 1
EndSplineSet
Validated: 3073
EndChar

StartChar: compass
Encoding: 9788 9788 593
Width: 1075
Flags: W
HStem: 523 53<0 189 887 1075> 842 92<567 688.465>
VStem: 189 56<576 672.297> 509 58<12 168.438 934 1124> 828 59<574 677.349>
LayerCount: 2
Fore
SplineSet
509 1124 m 1
 567 1124 l 1
 567 934 l 1
 648 934 707 898 763 855 c 1
 927 1015 l 1
 966 975 l 1
 805 813 l 1
 856 746 887 641 887 574 c 1
 1075 574 l 1
 1075 523 l 1
 887 523 l 1
 878 453 852 348 806 290 c 1
 966 123 l 1
 925 86 l 1
 763 245 l 1
 698 196 649 174 567 165 c 1
 567 12 l 1
 509 12 l 1
 509 165 l 1
 435 175 371 202 314 243 c 1
 149 87 l 1
 111 125 l 1
 271 287 l 1
 224 347 198 449 189 523 c 1
 0 523 l 1
 0 576 l 1
 189 576 l 1
 189 651 223 754 270 811 c 1
 111 973 l 1
 146 1016 l 1
 313 856 l 1
 379 902 446 927 509 934 c 1
 509 1124 l 1
537 842 m 256
 369 842 245 708 245 550 c 0
 245 388 371 258 537 258 c 256
 705 258 828 391 828 550 c 0
 828 713 699 842 537 842 c 256
EndSplineSet
Validated: 3073
EndChar

StartChar: female
Encoding: 9792 9792 594
Width: 1075
Flags: W
HStem: 400 81<205 497 582 871> 673 95<404.19 497 582 670.61> 1247 135<403.214 670.192>
VStem: 214 92<869.11 1148.63> 497 85<56 400 481 681.299> 771 93<865.327 1149.35>
LayerCount: 2
Fore
SplineSet
497 673 m 1
 335 697 214 871 214 1043 c 0
 214 1247 370 1382 539 1382 c 0
 709 1382 864 1245 864 1043 c 0
 864 859 733 693 582 673 c 1
 582 481 l 1
 871 481 l 1
 871 400 l 1
 582 400 l 1
 582 56 l 1
 497 56 l 1
 497 400 l 1
 205 400 l 1
 205 481 l 1
 497 481 l 1
 497 673 l 1
538 1247 m 0
 410 1247 306 1142 306 1008 c 256
 306 871 411 768 538 768 c 256
 663 768 771 868 771 1008 c 256
 771 1147 664 1247 538 1247 c 0
EndSplineSet
Validated: 3073
EndChar

StartChar: male
Encoding: 9794 9794 595
Width: 1075
Flags: W
HStem: 255 124<244.29 513.41> 875 125<239.907 517.234>
VStem: 49 89<488.381 770.77> 620 87<487.202 770.257>
LayerCount: 2
Fore
SplineSet
553 950 m 1
 846 1217 l 1
 785 1284 602 1348 602 1354 c 1
 627 1382 l 9
 1008 1382 l 0
 1027 1365 l 0
 1027 962 l 273
 1000 938 l 1
 994 938 927 1102 899 1162 c 1
 613 901 l 1
 676 838 707 726 707 639 c 0
 707 441 558 255 377 255 c 256
 189 255 49 445 49 624 c 0
 49 810 192 1000 379 1000 c 0
 433 1000 490 983 553 950 c 1
379 875 m 0
 244 875 138 767 138 628 c 256
 138 484 252 379 379 379 c 256
 503 379 620 476 620 628 c 0
 620 774 507 875 379 875 c 0
EndSplineSet
Validated: 3073
EndChar

StartChar: spade
Encoding: 9824 9824 596
Width: 1075
Flags: W
HStem: 140 33<196 308.148 780.622 880>
VStem: 532 16<484.853 587>
LayerCount: 2
Fore
SplineSet
538 1259 m 1
 621 915 964 860 964 615 c 0
 964 500 876 419 772 419 c 0
 681 419 607 475 548 587 c 1
 548 285 715 173 880 173 c 1
 885 140 l 1
 189 140 l 1
 196 173 l 1
 466 173 532 390 532 587 c 1
 477 468 395 419 304 419 c 0
 199 419 111 504 111 611 c 0
 111 870 459 898 538 1259 c 1
EndSplineSet
Validated: 3073
EndChar

StartChar: club
Encoding: 9827 9827 597
Width: 1075
Flags: W
HStem: 139 29<175 228.02 846.429 902> 414 523<108.487 350.196 723.347 968.311>
VStem: 294 484<917.104 1175.49> 529 17<519.892 622>
LayerCount: 2
Fore
SplineSet
909 139 m 1xd0
 170 139 l 1
 175 168 l 1
 199 173 529 238 529 581 c 0
 529 590 529 603 529 622 c 1xd0
 463 488 356 414 242 414 c 0
 118 414 0 507 0 658 c 0
 0 817 121 937 209 937 c 0
 245 937 293 922 353 891 c 1
 304 973 294 1002 294 1051 c 0
 294 1180 392 1249 536 1249 c 0
 676 1249 778 1182 778 1053 c 0xe0
 778 1001 758 947 718 891 c 1
 800 930 812 937 860 937 c 0
 974 937 1075 802 1075 662 c 0
 1075 518 965 414 836 414 c 0
 655 414 564 593 546 622 c 1
 546 285 734 202 902 168 c 1
 909 139 l 1xd0
EndSplineSet
Validated: 3073
EndChar

StartChar: heart
Encoding: 9829 9829 598
Width: 1075
Flags: W
LayerCount: 2
Fore
SplineSet
540 105 m 1
 445 459 93 755 93 989 c 0
 93 1116 186 1165 304 1165 c 0
 398 1165 488 1150 540 999 c 1
 582 1150 680 1166 771 1166 c 0
 895 1166 982 1107 982 1000 c 0
 982 728 632 459 540 105 c 1
EndSplineSet
Validated: 3073
EndChar

StartChar: diamond
Encoding: 9830 9830 599
Width: 1075
Flags: W
LayerCount: 2
Fore
SplineSet
537 1246 m 1
 624 1039 788 833 939 700 c 1
 812 602 635 329 537 115 c 1
 458 294 266 602 138 700 c 1
 291 833 424 1008 537 1246 c 1
EndSplineSet
Validated: 3073
EndChar

StartChar: musicalnote
Encoding: 9834 9834 600
Width: 1075
Flags: W
HStem: 122 313<297.836 433.237>
VStem: 489 71<418 933 1162 1220> 730 78<467.966 795.536>
LayerCount: 2
Fore
SplineSet
489 418 m 1
 489 1220 l 1
 560 1220 l 1
 560 1162 l 1
 706 982 l 2
 759 907 808 764 808 644 c 0
 808 547 778 462 719 388 c 1
 674 388 l 1
 712 470 730 549 730 623 c 256
 730 786 633 921 560 933 c 1
 560 418 l 2
 560 301 460 122 322 122 c 0
 254 122 214 154 214 215 c 0
 214 309 295 435 404 435 c 0
 429 435 457 430 489 418 c 1
EndSplineSet
Validated: 3073
EndChar

StartChar: musicalnotedbl
Encoding: 9835 9835 601
Width: 1075
Flags: W
HStem: 46 311<127.286 289.342> 135 311<718.31 864.386>
VStem: 318 71<304 713 833 941> 909 70<430 891 974 1082>
LayerCount: 2
Fore
SplineSet
979 430 m 2xb0
 979 261 863 135 742 135 c 0
 651 135 634 191 634 228 c 0
 634 321 714 446 824 446 c 0x70
 855 446 883 439 909 430 c 1
 909 891 l 1
 389 713 l 1
 389 304 l 2
 389 135 273 46 151 46 c 0
 60 46 42 102 42 139 c 0
 42 231 123 357 234 357 c 0
 265 357 295 314 318 304 c 1
 318 1087 l 1
 979 1219 l 1
 979 430 l 2xb0
389 833 m 1
 909 974 l 1
 909 1082 l 1
 389 941 l 1
 389 833 l 1
EndSplineSet
Validated: 3073
EndChar

StartChar: arrowboth
Encoding: 8596 8596 602
Width: 1075
VWidth: 1708
Flags: W
HStem: 520 160<296 780> 1023 20G<369.651 410.314 665.686 706.349>
LayerCount: 2
Fore
SplineSet
999 535 m 1
 690 157 l 1
 566 259 l 1
 780 520 l 1
 296 520 l 1
 510 259 l 1
 386 157 l 1
 77 535 l 1
 77 665 l 1
 386 1043 l 1
 510 941 l 1
 296 680 l 1
 780 680 l 1
 566 941 l 1
 690 1043 l 1
 999 665 l 1
 999 535 l 1
EndSplineSet
Validated: 3073
EndChar

StartChar: arrowbothv
Encoding: 8597 8597 603
Width: 1075
VWidth: 1708
Flags: W
VStem: 458 160<317 906>
LayerCount: 2
Fore
SplineSet
477 55 m 1
 118 457 l 1
 238 563 l 1
 458 317 l 1
 458 906 l 1
 233 694 l 1
 123 810 l 1
 479 1145 l 1
 597 1145 l 1
 953 810 l 1
 843 694 l 1
 618 906 l 1
 618 317 l 1
 838 563 l 1
 958 457 l 1
 599 55 l 1
 477 55 l 1
EndSplineSet
Validated: 3073
EndChar

StartChar: updownarrowbar
Encoding: 8616 8616 604
Width: 1075
VWidth: 1708
Flags: W
HStem: -54 160<127 432 644 949>
VStem: 458 160<317 906>
LayerCount: 2
Fore
SplineSet
949 106 m 1
 949 -54 l 1
 127 -54 l 1
 127 106 l 1
 432 106 l 1
 118 457 l 1
 238 563 l 1
 458 317 l 1
 458 906 l 1
 233 694 l 1
 123 810 l 1
 479 1145 l 1
 597 1145 l 1
 953 810 l 1
 843 694 l 1
 618 906 l 1
 618 317 l 1
 838 563 l 1
 958 457 l 1
 644 106 l 1
 949 106 l 1
EndSplineSet
Validated: 3073
EndChar

